P1
# guardachuva.pbm
128 64
11111111111111111111111111111111111111111111111111111111111111111111111111111111111111111111111111111111111111111111111111111111
10000000000000000000000000000000000000000000000000000000000000000000000000000000000000000000000000000000000000000000000000000001
10000000000000000000000000000000000000000000000000000000000000000000000000000000000000000000000000000000000000000000000000000001
10110011001100110011001100110011001100110011001100110011001100110011001100110011001100110011001100110011001100110011001100110011
10110011001100110011001100110011001100110011001100110011001100110011001100110011001100110011001100110011001100110011001100110011
10000000000000000000000000000000000000000000000000000000000000000000000000000000000000000000000000000000000000000000000000000001
10000000000000000000000000000000000000000000000000000000000000000000000000000000000000000000000000000000000000000000000000000001
11001100110011001100110011001100110011001100110011001100110011001100110011001100110011001100110011001100110011001100110011001101
11001100110011001100110011001100110011001100110011001100110011001100110011001100110011001100110011001100110011001100110011001101
10000000000000000000000000000000000000000000000000000000000000000000000000000000000000000000000000000000000000000000000000000001
10000000000000000000000000000000000000000000000000000000000000000000000000000000000000000000000000000000000000000000000000000001
10110011001100110011001100110011001100110011001100110011001100000011001100110011001100110011001100110011001100110011001100110011
10110011001100110011001100110011001100110011001100110011001100110011001100110011001100110011001100110011001100110011001100110011
10000000000000000000000000000000000000000000000000000000000000110000000000000000000000000000000000000000000000000000000000000001
10000000000000000000000000000000000000000000000000000000000000110000000000000000000000000000000000000000000000000000000000000001
11001100110011001100110011001100110011001100110011001100110000110000110011001100110011001100110011001100110011001100110011001101
11001100110011001100110011001100110011001100110011001100110000110000110011001100110011001100110011001100110011001100110011001101
10000000000000000000000000000000000000000000000000000000000000110000000000000000000000000000000000000000000000000000000000000001
10000000000000000000000000000000000000000000000000000000000000110000000000000000000000000000000000000000000000000000000000000001
10110011001100110011001100110011001100110011001100110000000111111110000000110011001100110011001100110011001100110011001100110011
10110011001100110011001100110011001100110011001100100001111111111111111000010011001100110011001100110011001100110011001100110011
10000000000000000000000000000000000000000000000000001111111111111111111111000000000000000000000000000000000000000000000000000001
10000000000000000000000000000000000000000000000001111111111111111111111111111000000000000000000000000000000000000000000000000001
11001100110011001100110011001100110011001100000111111111111111111111111111111110000011001100110011001100110011001100110011001101
11001100110011001100110011001100110011001100011111111111111111111111111111111111100011001100110011001100110011001100110011001101
10000000000000000000000000000000000000000001111111111111111111111111111111111111111000000000000000000000000000000000000000000001
10000000000000000000000000000000000000000011111111111111111111111111111111111111111100000000000000000000000000000000000000000001
10110011001100110011001100110011001100000111111111111111111111111111111111111111111110000011001100110011001100110011001100110011
10110011001100110011001100110011001100001111111111111111111111111111111111111111111111000011001100110011001100110011001100110011
10000000000000000000000000000000000000011111111111111111111111111111111111111111111111100000000000000000000000000000000000000001
10000000000000000000000000000000000000111111111111111111111111111111111111111111111111110000000000000000000000000000000000000001
11001100110011001100110011001100110001111111111111111111111111111111111111111111111111111000110011001100110011001100110011001101
11001100110011001100110011001100110011111111111111111111111111111111111111111111111111111100110011001100110011001100110011001101
10000000000000000000000000000000000111111111111111111111111111111111111111111111111111111110000000000000000000000000000000000001
10000000000000000000000000000000000111111111111111111111111111111111111111111111111111111110000000000000000000000000000000000001
10110011001100110011001100110011001111111111111111111111111111111111111111111111111111111111001100110011001100110011001100110011
10110011001100110011001100110011001111111111111111111111111111111111111111111111111111111111001100110011001100110011001100110011
10000000000000000000000000000000011111111111111111111111111111111111111111111111111111111111100000000000000000000000000000000001
10000000000000000000000000000000011111111111111111111111111111111111111111111111111111111111100000000000000000000000000000000001
11001100110011001100110011001100111111111111111111111111111111111111111111111111111111111111110011001100110011001100110011001101
11001100110011001100110011001100111111111111111111111111111111111111111111111111111111111111110011001100110011001100110011001101
10000000000000000000000000000000111111111111111111111111111111111111111111111111111111111111110000000000000000000000000000000001
10000000000000000000000000000000111100000111111100000011111100110011111100000011111110000011110000000000000000000000000000000001
10110011001100110011001100110001111000000011111000000001111000110001111000000001111100000001111000110011001100110011001100110011
10110011001100110011001100110001110000000001110000000001110000110000111000000000111000000000111000110011001100110011001100110011
10000000000000000000000000000001110000000001110000000000110000110000110000000000111000000000111000000000000000000000000000000001
10000000000000000000000000000001110000000001110000000000110000110000110000000000111000000000111000000000000000000000000000000001
11001100110011001100110011001101100000000000110000000000110000110000110000000000110000000000011011001100110011001100110011001101
11001100110011001100110011001100000000000000000000000000000000110000000000000000000000000000000011001100110011001100110011001101
10000000000000000000000000000000000000000000000000000000000000110000000000000000000000000000000000000000000000000000000000000001
10000000000000000000000000000000000000000000000000000000000000110000000000000000000000000000000000000000000000000000000000000001
10110011001100110011001100110000000000000000000000000000000000110000000000000000000000000000000000110011001100110011001100110011
10110011001100110011001100110000000000000000000000000000000000110000000000000000000000000000000000110011001100110011001100110011
10000000000000000000000000000000000000000000000000000000000000110000000000000000000000000000000000000000000000000000000000000001
10000000000000000000000000000000000000000000000000000000000000110000000000000000000000000000000000000000000000000000000000000001
11001100110011001100110011001100000000000000000000000000000000110000000000000000000000000000000011001100110011001100110011001101
11001100110011001100110011001100000000000000000000000000000000110000000000000000000000000000000011001100110011001100110011001101
10000000000000000000000000000000000000000000000000000000000000110000000000000000000000000000000000000000000000000000000000000001
10000000000000000000000000000000000000000000000000000000000000110000000000000000000000000000000000000000000000000000000000000001
10110011001100110011001100110000000000000000000000000000000000110000000000000000000000000000000000110011001100110011001100110011
10110011001100110011001100110000000000000000000000000000000000110000000000000000000000000000000000110011001100110011001100110011
10000000000000000000000000000000000000000000000000000000000000110000000000000000000000000000000000000000000000000000000000000001
10000000000000000000000000000000000000000000000000000000000000000000000000000000000000000000000000000000000000000000000000000001
11111111111111111111111111111111111111111111111111111111111111111111111111111111111111111111111111111111111111111111111111111111