%TF.GenerationSoftware,KiCad,Pcbnew,9.0.0*%
%TF.CreationDate,2025-08-10T17:42:25-03:00*%
%TF.ProjectId,BadgeGaroa_r2,42616467-6547-4617-926f-615f72322e6b,rev?*%
%TF.SameCoordinates,Original*%
%TF.FileFunction,Soldermask,Top*%
%TF.FilePolarity,Negative*%
%FSLAX46Y46*%
G04 Gerber Fmt 4.6, Leading zero omitted, Abs format (unit mm)*
G04 Created by KiCad (PCBNEW 9.0.0) date 2025-08-10 17:42:25*
%MOMM*%
%LPD*%
G01*
G04 APERTURE LIST*
G04 Aperture macros list*
%AMRoundRect*
0 Rectangle with rounded corners*
0 $1 Rounding radius*
0 $2 $3 $4 $5 $6 $7 $8 $9 X,Y pos of 4 corners*
0 Add a 4 corners polygon primitive as box body*
4,1,4,$2,$3,$4,$5,$6,$7,$8,$9,$2,$3,0*
0 Add four circle primitives for the rounded corners*
1,1,$1+$1,$2,$3*
1,1,$1+$1,$4,$5*
1,1,$1+$1,$6,$7*
1,1,$1+$1,$8,$9*
0 Add four rect primitives between the rounded corners*
20,1,$1+$1,$2,$3,$4,$5,0*
20,1,$1+$1,$4,$5,$6,$7,0*
20,1,$1+$1,$6,$7,$8,$9,0*
20,1,$1+$1,$8,$9,$2,$3,0*%
%AMRotRect*
0 Rectangle, with rotation*
0 The origin of the aperture is its center*
0 $1 length*
0 $2 width*
0 $3 Rotation angle, in degrees counterclockwise*
0 Add horizontal line*
21,1,$1,$2,0,0,$3*%
G04 Aperture macros list end*
%ADD10C,0.000000*%
%ADD11R,1.700000X1.700000*%
%ADD12O,1.700000X1.700000*%
%ADD13R,1.500000X1.000000*%
%ADD14RotRect,1.500000X1.500000X45.000000*%
%ADD15R,1.300000X1.300000*%
%ADD16C,1.300000*%
%ADD17C,1.400000*%
%ADD18O,1.400000X1.400000*%
%ADD19C,1.600000*%
%ADD20RotRect,1.900000X8.000000X135.000000*%
%ADD21RotRect,2.000000X7.500000X135.000000*%
%ADD22C,0.900000*%
%ADD23RoundRect,0.250000X-1.000000X0.375000X-1.000000X-0.375000X1.000000X-0.375000X1.000000X0.375000X0*%
%ADD24R,1.600000X1.600000*%
%ADD25RoundRect,0.056000X-6.244000X-1.344000X6.244000X-1.344000X6.244000X1.344000X-6.244000X1.344000X0*%
%ADD26R,1.524000X1.524000*%
%ADD27O,1.524000X1.524000*%
%ADD28RoundRect,0.375000X0.375000X-0.625000X0.375000X0.625000X-0.375000X0.625000X-0.375000X-0.625000X0*%
%ADD29RoundRect,0.500000X1.400000X-0.500000X1.400000X0.500000X-1.400000X0.500000X-1.400000X-0.500000X0*%
%ADD30R,2.195000X2.195000*%
%ADD31RoundRect,0.150000X0.825000X0.150000X-0.825000X0.150000X-0.825000X-0.150000X0.825000X-0.150000X0*%
%ADD32R,2.290000X3.000000*%
%ADD33R,2.500000X1.000000*%
%ADD34R,1.000000X1.800000*%
%ADD35C,2.000000*%
%ADD36R,1.500000X0.800000*%
%ADD37R,2.000000X1.450000*%
%ADD38RotRect,1.500000X1.500000X135.000000*%
%ADD39RotRect,1.500000X1.500000X315.000000*%
%ADD40RotRect,1.500000X1.500000X225.000000*%
%ADD41R,1.800000X1.800000*%
%ADD42C,1.800000*%
G04 APERTURE END LIST*
D10*
%TO.C,JP1*%
G36*
X80506001Y-86478800D02*
G01*
X79005999Y-86478800D01*
X79005999Y-84878800D01*
X80506001Y-84878800D01*
X80506001Y-86478800D01*
G37*
%TD*%
D11*
%TO.C,OLED1*%
X89799000Y-52501800D03*
D12*
X92339000Y-52501800D03*
X94878999Y-52501800D03*
X97419000Y-52501800D03*
%TD*%
D13*
%TO.C,JP1*%
X79756000Y-86978800D03*
X79756000Y-85678800D03*
X79756000Y-84378800D03*
%TD*%
D14*
%TO.C,SW3*%
X104466568Y-88206948D03*
X109982000Y-82691516D03*
%TD*%
D15*
%TO.C,Q1*%
X79756000Y-89428800D03*
D16*
X81026000Y-90708800D03*
X79756000Y-91968800D03*
%TD*%
D17*
%TO.C,R7*%
X111506000Y-107238800D03*
D18*
X119126000Y-107238800D03*
%TD*%
D17*
%TO.C,R14*%
X96266000Y-47548800D03*
D18*
X103886000Y-47548800D03*
%TD*%
D19*
%TO.C,C4*%
X108291000Y-100888800D03*
X103291000Y-100888800D03*
%TD*%
D20*
%TO.C,J1*%
X110935100Y-39302546D03*
D21*
X112533161Y-41254161D03*
X114371639Y-43092639D03*
D20*
X116323254Y-44690700D03*
%TD*%
D22*
%TO.C,SW5*%
X68751000Y-54903800D03*
X68751000Y-61703800D03*
D23*
X71501000Y-55803800D03*
X71501000Y-58303800D03*
X71501000Y-60803800D03*
%TD*%
D17*
%TO.C,R5*%
X111506000Y-110413800D03*
D18*
X119126000Y-110413800D03*
%TD*%
D24*
%TO.C,C6*%
X75946000Y-52588800D03*
D19*
X75946000Y-50088800D03*
%TD*%
D17*
%TO.C,R8*%
X111506000Y-100888800D03*
D18*
X119126000Y-100888800D03*
%TD*%
D24*
%TO.C,C7*%
X75946000Y-40628687D03*
D19*
X75946000Y-43128687D03*
%TD*%
D17*
%TO.C,R10*%
X77216000Y-102158800D03*
D18*
X69596000Y-102158800D03*
%TD*%
D17*
%TO.C,R6*%
X68961000Y-47548800D03*
D18*
X76581000Y-47548800D03*
%TD*%
D25*
%TO.C,H1*%
X93101000Y-38832800D03*
%TD*%
D26*
%TO.C,P2*%
X105156000Y-118033800D03*
D27*
X107696000Y-117398800D03*
X110236000Y-118033800D03*
X112776000Y-117398800D03*
X115316000Y-118033800D03*
X117856000Y-117398800D03*
%TD*%
D28*
%TO.C,CI1*%
X80631000Y-49428800D03*
X82931000Y-49428799D03*
D29*
X82931000Y-43128801D03*
D28*
X85231000Y-49428800D03*
%TD*%
D30*
%TO.C,BZ1*%
X75836000Y-94428800D03*
X75836000Y-87028800D03*
X68436000Y-87028800D03*
%TD*%
D31*
%TO.C,CI2*%
X93091000Y-47548800D03*
X93091000Y-46278800D03*
X93091000Y-45008800D03*
X93091000Y-43738800D03*
X88141000Y-43738800D03*
X88141000Y-45008800D03*
X88141000Y-46278800D03*
X88141000Y-47548800D03*
D32*
X90616000Y-45643800D03*
%TD*%
D33*
%TO.C,MOD1*%
X100691000Y-112008800D03*
X100691000Y-110008800D03*
X100691000Y-108008800D03*
X100691000Y-106008801D03*
X100691000Y-104008800D03*
X100691000Y-102008799D03*
X100691000Y-100008800D03*
X100691000Y-98008800D03*
D34*
X98091000Y-96508801D03*
X96091000Y-96508800D03*
X94091000Y-96508800D03*
X92091000Y-96508800D03*
X90091000Y-96508800D03*
X88091000Y-96508801D03*
D33*
X85491000Y-98008800D03*
X85491000Y-100008800D03*
X85491000Y-102008799D03*
X85491000Y-104008800D03*
X85491000Y-106008801D03*
X85491000Y-108008800D03*
X85491000Y-110008800D03*
X85491000Y-112008800D03*
%TD*%
D35*
%TO.C,J2*%
X77871000Y-117318799D03*
X77861000Y-107258800D03*
D36*
X81010999Y-115058800D03*
X81011000Y-113958800D03*
X81011000Y-112858800D03*
X81011000Y-111758800D03*
X81011000Y-110658800D03*
X81011000Y-109558800D03*
X81011000Y-108458800D03*
X81011000Y-107258800D03*
D37*
X72971000Y-119798800D03*
X72961000Y-104848800D03*
D36*
X81010999Y-117258800D03*
X81011000Y-116158800D03*
%TD*%
D38*
%TO.C,SW1*%
X118454716Y-88206948D03*
X112939284Y-82691516D03*
%TD*%
D39*
%TO.C,SW4*%
X104466568Y-90728800D03*
X109982000Y-96244232D03*
%TD*%
D17*
%TO.C,R9*%
X69596000Y-98983800D03*
D18*
X77216000Y-98983800D03*
%TD*%
D17*
%TO.C,R3*%
X111506000Y-113588800D03*
D18*
X119126000Y-113588800D03*
%TD*%
D19*
%TO.C,C5*%
X108291000Y-113588800D03*
X103291000Y-113588800D03*
%TD*%
%TO.C,C1*%
X109601000Y-49951567D03*
X106065466Y-46416033D03*
%TD*%
D17*
%TO.C,R11*%
X103886000Y-50088800D03*
D18*
X96266000Y-50088800D03*
%TD*%
D17*
%TO.C,R15*%
X96266000Y-45008800D03*
D18*
X103886000Y-45008800D03*
%TD*%
D17*
%TO.C,R4*%
X111506000Y-104063800D03*
D18*
X119126000Y-104063800D03*
%TD*%
D40*
%TO.C,SW2*%
X118491000Y-90728800D03*
X112975568Y-96244232D03*
%TD*%
D41*
%TO.C,LD1*%
X70871000Y-44413800D03*
D42*
X68331000Y-44413800D03*
%TD*%
M02*
