%TF.GenerationSoftware,KiCad,Pcbnew,9.0.0*%
%TF.CreationDate,2025-08-10T17:42:25-03:00*%
%TF.ProjectId,BadgeGaroa_r2,42616467-6547-4617-926f-615f72322e6b,rev?*%
%TF.SameCoordinates,Original*%
%TF.FileFunction,Soldermask,Bot*%
%TF.FilePolarity,Negative*%
%FSLAX46Y46*%
G04 Gerber Fmt 4.6, Leading zero omitted, Abs format (unit mm)*
G04 Created by KiCad (PCBNEW 9.0.0) date 2025-08-10 17:42:25*
%MOMM*%
%LPD*%
G01*
G04 APERTURE LIST*
G04 Aperture macros list*
%AMRoundRect*
0 Rectangle with rounded corners*
0 $1 Rounding radius*
0 $2 $3 $4 $5 $6 $7 $8 $9 X,Y pos of 4 corners*
0 Add a 4 corners polygon primitive as box body*
4,1,4,$2,$3,$4,$5,$6,$7,$8,$9,$2,$3,0*
0 Add four circle primitives for the rounded corners*
1,1,$1+$1,$2,$3*
1,1,$1+$1,$4,$5*
1,1,$1+$1,$6,$7*
1,1,$1+$1,$8,$9*
0 Add four rect primitives between the rounded corners*
20,1,$1+$1,$2,$3,$4,$5,0*
20,1,$1+$1,$4,$5,$6,$7,0*
20,1,$1+$1,$6,$7,$8,$9,0*
20,1,$1+$1,$8,$9,$2,$3,0*%
G04 Aperture macros list end*
%ADD10C,0.000000*%
%ADD11R,1.700000X1.700000*%
%ADD12O,1.700000X1.700000*%
%ADD13R,1.300000X1.300000*%
%ADD14C,1.300000*%
%ADD15C,1.400000*%
%ADD16O,1.400000X1.400000*%
%ADD17C,1.600000*%
%ADD18C,0.900000*%
%ADD19R,1.600000X1.600000*%
%ADD20RoundRect,0.056000X-6.244000X-1.344000X6.244000X-1.344000X6.244000X1.344000X-6.244000X1.344000X0*%
%ADD21R,1.524000X1.524000*%
%ADD22O,1.524000X1.524000*%
%ADD23C,2.000000*%
%ADD24R,1.000000X1.500000*%
%ADD25R,1.800000X1.800000*%
%ADD26C,1.800000*%
G04 APERTURE END LIST*
D10*
%TO.C,JP3*%
G36*
X84336000Y-52108801D02*
G01*
X82736000Y-52108801D01*
X82736000Y-50608799D01*
X84336000Y-50608799D01*
X84336000Y-52108801D01*
G37*
%TO.C,JP2*%
G36*
X84366000Y-54648801D02*
G01*
X82766000Y-54648801D01*
X82766000Y-53148799D01*
X84366000Y-53148799D01*
X84366000Y-54648801D01*
G37*
%TD*%
D11*
%TO.C,OLED1*%
X89799000Y-52501800D03*
D12*
X92339000Y-52501800D03*
X94878999Y-52501800D03*
X97419000Y-52501800D03*
%TD*%
D13*
%TO.C,Q1*%
X79756000Y-89428800D03*
D14*
X81026000Y-90708800D03*
X79756000Y-91968800D03*
%TD*%
D15*
%TO.C,R7*%
X111506000Y-107238800D03*
D16*
X119126000Y-107238800D03*
%TD*%
D15*
%TO.C,R14*%
X96266000Y-47548800D03*
D16*
X103886000Y-47548800D03*
%TD*%
D17*
%TO.C,C4*%
X108291000Y-100888800D03*
X103291000Y-100888800D03*
%TD*%
D18*
%TO.C,SW5*%
X68751000Y-54903800D03*
X68751000Y-61703800D03*
%TD*%
D15*
%TO.C,R5*%
X111506000Y-110413800D03*
D16*
X119126000Y-110413800D03*
%TD*%
D19*
%TO.C,C6*%
X75946000Y-52588800D03*
D17*
X75946000Y-50088800D03*
%TD*%
D15*
%TO.C,R8*%
X111506000Y-100888800D03*
D16*
X119126000Y-100888800D03*
%TD*%
D19*
%TO.C,C7*%
X75946000Y-40628687D03*
D17*
X75946000Y-43128687D03*
%TD*%
D15*
%TO.C,R10*%
X77216000Y-102158800D03*
D16*
X69596000Y-102158800D03*
%TD*%
D15*
%TO.C,R6*%
X68961000Y-47548800D03*
D16*
X76581000Y-47548800D03*
%TD*%
D20*
%TO.C,H1*%
X93101000Y-38832800D03*
%TD*%
D21*
%TO.C,P2*%
X105156000Y-118033800D03*
D22*
X107696000Y-117398800D03*
X110236000Y-118033800D03*
X112776000Y-117398800D03*
X115316000Y-118033800D03*
X117856000Y-117398800D03*
%TD*%
D23*
%TO.C,J2*%
X77871000Y-117318799D03*
X77861000Y-107258800D03*
%TD*%
D15*
%TO.C,R9*%
X69596000Y-98983800D03*
D16*
X77216000Y-98983800D03*
%TD*%
D15*
%TO.C,R3*%
X111506000Y-113588800D03*
D16*
X119126000Y-113588800D03*
%TD*%
D17*
%TO.C,C5*%
X108291000Y-113588800D03*
X103291000Y-113588800D03*
%TD*%
%TO.C,C1*%
X109601000Y-49951567D03*
X106065466Y-46416033D03*
%TD*%
D15*
%TO.C,R11*%
X103886000Y-50088800D03*
D16*
X96266000Y-50088800D03*
%TD*%
D15*
%TO.C,R15*%
X96266000Y-45008800D03*
D16*
X103886000Y-45008800D03*
%TD*%
D15*
%TO.C,R4*%
X111506000Y-104063800D03*
D16*
X119126000Y-104063800D03*
%TD*%
D11*
%TO.C,P1*%
X117221000Y-76758800D03*
D12*
X117221000Y-74218800D03*
%TD*%
D24*
%TO.C,JP3*%
X84836000Y-51358800D03*
X83536000Y-51358800D03*
X82236000Y-51358800D03*
%TD*%
%TO.C,JP2*%
X82266000Y-53898800D03*
X83566000Y-53898800D03*
X84866000Y-53898800D03*
%TD*%
D25*
%TO.C,LD1*%
X70871000Y-44413800D03*
D26*
X68331000Y-44413800D03*
%TD*%
M02*
