%TF.GenerationSoftware,KiCad,Pcbnew,9.0.0*%
%TF.CreationDate,2025-08-10T17:42:25-03:00*%
%TF.ProjectId,BadgeGaroa_r2,42616467-6547-4617-926f-615f72322e6b,rev?*%
%TF.SameCoordinates,Original*%
%TF.FileFunction,Legend,Top*%
%TF.FilePolarity,Positive*%
%FSLAX46Y46*%
G04 Gerber Fmt 4.6, Leading zero omitted, Abs format (unit mm)*
G04 Created by KiCad (PCBNEW 9.0.0) date 2025-08-10 17:42:25*
%MOMM*%
%LPD*%
G01*
G04 APERTURE LIST*
%ADD10C,0.099200*%
%ADD11C,0.100000*%
%ADD12C,0.200000*%
%ADD13C,0.150800*%
%ADD14C,0.127000*%
%ADD15C,0.150000*%
%ADD16C,0.082550*%
%ADD17C,0.120000*%
%ADD18C,0.254000*%
%ADD19R,1.524000X1.524000*%
%ADD20O,1.524000X1.524000*%
G04 APERTURE END LIST*
D10*
X102584501Y-94913613D02*
X102584501Y-94253213D01*
X102584501Y-94253213D02*
X102741739Y-94253213D01*
X102741739Y-94253213D02*
X102836082Y-94284661D01*
X102836082Y-94284661D02*
X102898977Y-94347556D01*
X102898977Y-94347556D02*
X102930424Y-94410451D01*
X102930424Y-94410451D02*
X102961872Y-94536242D01*
X102961872Y-94536242D02*
X102961872Y-94630585D01*
X102961872Y-94630585D02*
X102930424Y-94756375D01*
X102930424Y-94756375D02*
X102898977Y-94819270D01*
X102898977Y-94819270D02*
X102836082Y-94882166D01*
X102836082Y-94882166D02*
X102741739Y-94913613D01*
X102741739Y-94913613D02*
X102584501Y-94913613D01*
X103182005Y-94473346D02*
X103307796Y-94913613D01*
X103307796Y-94913613D02*
X103433586Y-94599137D01*
X103433586Y-94599137D02*
X103559377Y-94913613D01*
X103559377Y-94913613D02*
X103685167Y-94473346D01*
X102930424Y-95347868D02*
X102867529Y-95316420D01*
X102867529Y-95316420D02*
X102773186Y-95316420D01*
X102773186Y-95316420D02*
X102678843Y-95347868D01*
X102678843Y-95347868D02*
X102615948Y-95410763D01*
X102615948Y-95410763D02*
X102584501Y-95473658D01*
X102584501Y-95473658D02*
X102553053Y-95599449D01*
X102553053Y-95599449D02*
X102553053Y-95693792D01*
X102553053Y-95693792D02*
X102584501Y-95819582D01*
X102584501Y-95819582D02*
X102615948Y-95882477D01*
X102615948Y-95882477D02*
X102678843Y-95945373D01*
X102678843Y-95945373D02*
X102773186Y-95976820D01*
X102773186Y-95976820D02*
X102836082Y-95976820D01*
X102836082Y-95976820D02*
X102930424Y-95945373D01*
X102930424Y-95945373D02*
X102961872Y-95913925D01*
X102961872Y-95913925D02*
X102961872Y-95693792D01*
X102961872Y-95693792D02*
X102836082Y-95693792D01*
X103244901Y-95976820D02*
X103244901Y-95316420D01*
X103244901Y-95316420D02*
X103496482Y-95316420D01*
X103496482Y-95316420D02*
X103559377Y-95347868D01*
X103559377Y-95347868D02*
X103590824Y-95379315D01*
X103590824Y-95379315D02*
X103622272Y-95442211D01*
X103622272Y-95442211D02*
X103622272Y-95536553D01*
X103622272Y-95536553D02*
X103590824Y-95599449D01*
X103590824Y-95599449D02*
X103559377Y-95630896D01*
X103559377Y-95630896D02*
X103496482Y-95662344D01*
X103496482Y-95662344D02*
X103244901Y-95662344D01*
X103905301Y-95976820D02*
X103905301Y-95316420D01*
X104345567Y-95316420D02*
X104471358Y-95316420D01*
X104471358Y-95316420D02*
X104534253Y-95347868D01*
X104534253Y-95347868D02*
X104597148Y-95410763D01*
X104597148Y-95410763D02*
X104628596Y-95536553D01*
X104628596Y-95536553D02*
X104628596Y-95756687D01*
X104628596Y-95756687D02*
X104597148Y-95882477D01*
X104597148Y-95882477D02*
X104534253Y-95945373D01*
X104534253Y-95945373D02*
X104471358Y-95976820D01*
X104471358Y-95976820D02*
X104345567Y-95976820D01*
X104345567Y-95976820D02*
X104282672Y-95945373D01*
X104282672Y-95945373D02*
X104219777Y-95882477D01*
X104219777Y-95882477D02*
X104188329Y-95756687D01*
X104188329Y-95756687D02*
X104188329Y-95536553D01*
X104188329Y-95536553D02*
X104219777Y-95410763D01*
X104219777Y-95410763D02*
X104282672Y-95347868D01*
X104282672Y-95347868D02*
X104345567Y-95316420D01*
X105760710Y-95976820D02*
X105383339Y-95976820D01*
X105572025Y-95976820D02*
X105572025Y-95316420D01*
X105572025Y-95316420D02*
X105509129Y-95410763D01*
X105509129Y-95410763D02*
X105446234Y-95473658D01*
X105446234Y-95473658D02*
X105383339Y-95505106D01*
X105980843Y-95316420D02*
X106389662Y-95316420D01*
X106389662Y-95316420D02*
X106169529Y-95568001D01*
X106169529Y-95568001D02*
X106263872Y-95568001D01*
X106263872Y-95568001D02*
X106326767Y-95599449D01*
X106326767Y-95599449D02*
X106358215Y-95630896D01*
X106358215Y-95630896D02*
X106389662Y-95693792D01*
X106389662Y-95693792D02*
X106389662Y-95851030D01*
X106389662Y-95851030D02*
X106358215Y-95913925D01*
X106358215Y-95913925D02*
X106326767Y-95945373D01*
X106326767Y-95945373D02*
X106263872Y-95976820D01*
X106263872Y-95976820D02*
X106075186Y-95976820D01*
X106075186Y-95976820D02*
X106012291Y-95945373D01*
X106012291Y-95945373D02*
X105980843Y-95913925D01*
D11*
X102458027Y-81807172D02*
X102458027Y-82341782D01*
X102458027Y-82341782D02*
X102489474Y-82404677D01*
X102489474Y-82404677D02*
X102520922Y-82436125D01*
X102520922Y-82436125D02*
X102583817Y-82467572D01*
X102583817Y-82467572D02*
X102709608Y-82467572D01*
X102709608Y-82467572D02*
X102772503Y-82436125D01*
X102772503Y-82436125D02*
X102803950Y-82404677D01*
X102803950Y-82404677D02*
X102835398Y-82341782D01*
X102835398Y-82341782D02*
X102835398Y-81807172D01*
X103149875Y-82027305D02*
X103149875Y-82687705D01*
X103149875Y-82058753D02*
X103212770Y-82027305D01*
X103212770Y-82027305D02*
X103338560Y-82027305D01*
X103338560Y-82027305D02*
X103401456Y-82058753D01*
X103401456Y-82058753D02*
X103432903Y-82090201D01*
X103432903Y-82090201D02*
X103464351Y-82153096D01*
X103464351Y-82153096D02*
X103464351Y-82341782D01*
X103464351Y-82341782D02*
X103432903Y-82404677D01*
X103432903Y-82404677D02*
X103401456Y-82436125D01*
X103401456Y-82436125D02*
X103338560Y-82467572D01*
X103338560Y-82467572D02*
X103212770Y-82467572D01*
X103212770Y-82467572D02*
X103149875Y-82436125D01*
X102803950Y-82901827D02*
X102741055Y-82870379D01*
X102741055Y-82870379D02*
X102646712Y-82870379D01*
X102646712Y-82870379D02*
X102552369Y-82901827D01*
X102552369Y-82901827D02*
X102489474Y-82964722D01*
X102489474Y-82964722D02*
X102458027Y-83027617D01*
X102458027Y-83027617D02*
X102426579Y-83153408D01*
X102426579Y-83153408D02*
X102426579Y-83247751D01*
X102426579Y-83247751D02*
X102458027Y-83373541D01*
X102458027Y-83373541D02*
X102489474Y-83436436D01*
X102489474Y-83436436D02*
X102552369Y-83499332D01*
X102552369Y-83499332D02*
X102646712Y-83530779D01*
X102646712Y-83530779D02*
X102709608Y-83530779D01*
X102709608Y-83530779D02*
X102803950Y-83499332D01*
X102803950Y-83499332D02*
X102835398Y-83467884D01*
X102835398Y-83467884D02*
X102835398Y-83247751D01*
X102835398Y-83247751D02*
X102709608Y-83247751D01*
X103118427Y-83530779D02*
X103118427Y-82870379D01*
X103118427Y-82870379D02*
X103370008Y-82870379D01*
X103370008Y-82870379D02*
X103432903Y-82901827D01*
X103432903Y-82901827D02*
X103464350Y-82933274D01*
X103464350Y-82933274D02*
X103495798Y-82996170D01*
X103495798Y-82996170D02*
X103495798Y-83090512D01*
X103495798Y-83090512D02*
X103464350Y-83153408D01*
X103464350Y-83153408D02*
X103432903Y-83184855D01*
X103432903Y-83184855D02*
X103370008Y-83216303D01*
X103370008Y-83216303D02*
X103118427Y-83216303D01*
X103778827Y-83530779D02*
X103778827Y-82870379D01*
X104219093Y-82870379D02*
X104344884Y-82870379D01*
X104344884Y-82870379D02*
X104407779Y-82901827D01*
X104407779Y-82901827D02*
X104470674Y-82964722D01*
X104470674Y-82964722D02*
X104502122Y-83090512D01*
X104502122Y-83090512D02*
X104502122Y-83310646D01*
X104502122Y-83310646D02*
X104470674Y-83436436D01*
X104470674Y-83436436D02*
X104407779Y-83499332D01*
X104407779Y-83499332D02*
X104344884Y-83530779D01*
X104344884Y-83530779D02*
X104219093Y-83530779D01*
X104219093Y-83530779D02*
X104156198Y-83499332D01*
X104156198Y-83499332D02*
X104093303Y-83436436D01*
X104093303Y-83436436D02*
X104061855Y-83310646D01*
X104061855Y-83310646D02*
X104061855Y-83090512D01*
X104061855Y-83090512D02*
X104093303Y-82964722D01*
X104093303Y-82964722D02*
X104156198Y-82901827D01*
X104156198Y-82901827D02*
X104219093Y-82870379D01*
X105634236Y-83530779D02*
X105256865Y-83530779D01*
X105445551Y-83530779D02*
X105445551Y-82870379D01*
X105445551Y-82870379D02*
X105382655Y-82964722D01*
X105382655Y-82964722D02*
X105319760Y-83027617D01*
X105319760Y-83027617D02*
X105256865Y-83059065D01*
X105885817Y-82933274D02*
X105917265Y-82901827D01*
X105917265Y-82901827D02*
X105980160Y-82870379D01*
X105980160Y-82870379D02*
X106137398Y-82870379D01*
X106137398Y-82870379D02*
X106200293Y-82901827D01*
X106200293Y-82901827D02*
X106231741Y-82933274D01*
X106231741Y-82933274D02*
X106263188Y-82996170D01*
X106263188Y-82996170D02*
X106263188Y-83059065D01*
X106263188Y-83059065D02*
X106231741Y-83153408D01*
X106231741Y-83153408D02*
X105854369Y-83530779D01*
X105854369Y-83530779D02*
X106263188Y-83530779D01*
X116301027Y-96437572D02*
X116301027Y-95777172D01*
X116301027Y-95777172D02*
X116552608Y-95777172D01*
X116552608Y-95777172D02*
X116615503Y-95808620D01*
X116615503Y-95808620D02*
X116646950Y-95840067D01*
X116646950Y-95840067D02*
X116678398Y-95902963D01*
X116678398Y-95902963D02*
X116678398Y-95997305D01*
X116678398Y-95997305D02*
X116646950Y-96060201D01*
X116646950Y-96060201D02*
X116615503Y-96091648D01*
X116615503Y-96091648D02*
X116552608Y-96123096D01*
X116552608Y-96123096D02*
X116301027Y-96123096D01*
X116961427Y-96437572D02*
X116961427Y-95997305D01*
X116961427Y-96123096D02*
X116992874Y-96060201D01*
X116992874Y-96060201D02*
X117024322Y-96028753D01*
X117024322Y-96028753D02*
X117087217Y-95997305D01*
X117087217Y-95997305D02*
X117150112Y-95997305D01*
X117464588Y-96437572D02*
X117401693Y-96406125D01*
X117401693Y-96406125D02*
X117370246Y-96374677D01*
X117370246Y-96374677D02*
X117338798Y-96311782D01*
X117338798Y-96311782D02*
X117338798Y-96123096D01*
X117338798Y-96123096D02*
X117370246Y-96060201D01*
X117370246Y-96060201D02*
X117401693Y-96028753D01*
X117401693Y-96028753D02*
X117464588Y-95997305D01*
X117464588Y-95997305D02*
X117558931Y-95997305D01*
X117558931Y-95997305D02*
X117621827Y-96028753D01*
X117621827Y-96028753D02*
X117653274Y-96060201D01*
X117653274Y-96060201D02*
X117684722Y-96123096D01*
X117684722Y-96123096D02*
X117684722Y-96311782D01*
X117684722Y-96311782D02*
X117653274Y-96374677D01*
X117653274Y-96374677D02*
X117621827Y-96406125D01*
X117621827Y-96406125D02*
X117558931Y-96437572D01*
X117558931Y-96437572D02*
X117464588Y-96437572D01*
X118250779Y-95997305D02*
X118250779Y-96531915D01*
X118250779Y-96531915D02*
X118219332Y-96594810D01*
X118219332Y-96594810D02*
X118187884Y-96626258D01*
X118187884Y-96626258D02*
X118124989Y-96657705D01*
X118124989Y-96657705D02*
X118030646Y-96657705D01*
X118030646Y-96657705D02*
X117967751Y-96626258D01*
X118250779Y-96406125D02*
X118187884Y-96437572D01*
X118187884Y-96437572D02*
X118062093Y-96437572D01*
X118062093Y-96437572D02*
X117999198Y-96406125D01*
X117999198Y-96406125D02*
X117967751Y-96374677D01*
X117967751Y-96374677D02*
X117936303Y-96311782D01*
X117936303Y-96311782D02*
X117936303Y-96123096D01*
X117936303Y-96123096D02*
X117967751Y-96060201D01*
X117967751Y-96060201D02*
X117999198Y-96028753D01*
X117999198Y-96028753D02*
X118062093Y-95997305D01*
X118062093Y-95997305D02*
X118187884Y-95997305D01*
X118187884Y-95997305D02*
X118250779Y-96028753D01*
X116646950Y-96871827D02*
X116584055Y-96840379D01*
X116584055Y-96840379D02*
X116489712Y-96840379D01*
X116489712Y-96840379D02*
X116395369Y-96871827D01*
X116395369Y-96871827D02*
X116332474Y-96934722D01*
X116332474Y-96934722D02*
X116301027Y-96997617D01*
X116301027Y-96997617D02*
X116269579Y-97123408D01*
X116269579Y-97123408D02*
X116269579Y-97217751D01*
X116269579Y-97217751D02*
X116301027Y-97343541D01*
X116301027Y-97343541D02*
X116332474Y-97406436D01*
X116332474Y-97406436D02*
X116395369Y-97469332D01*
X116395369Y-97469332D02*
X116489712Y-97500779D01*
X116489712Y-97500779D02*
X116552608Y-97500779D01*
X116552608Y-97500779D02*
X116646950Y-97469332D01*
X116646950Y-97469332D02*
X116678398Y-97437884D01*
X116678398Y-97437884D02*
X116678398Y-97217751D01*
X116678398Y-97217751D02*
X116552608Y-97217751D01*
X116961427Y-97500779D02*
X116961427Y-96840379D01*
X116961427Y-96840379D02*
X117213008Y-96840379D01*
X117213008Y-96840379D02*
X117275903Y-96871827D01*
X117275903Y-96871827D02*
X117307350Y-96903274D01*
X117307350Y-96903274D02*
X117338798Y-96966170D01*
X117338798Y-96966170D02*
X117338798Y-97060512D01*
X117338798Y-97060512D02*
X117307350Y-97123408D01*
X117307350Y-97123408D02*
X117275903Y-97154855D01*
X117275903Y-97154855D02*
X117213008Y-97186303D01*
X117213008Y-97186303D02*
X116961427Y-97186303D01*
X117621827Y-97500779D02*
X117621827Y-96840379D01*
X118062093Y-96840379D02*
X118187884Y-96840379D01*
X118187884Y-96840379D02*
X118250779Y-96871827D01*
X118250779Y-96871827D02*
X118313674Y-96934722D01*
X118313674Y-96934722D02*
X118345122Y-97060512D01*
X118345122Y-97060512D02*
X118345122Y-97280646D01*
X118345122Y-97280646D02*
X118313674Y-97406436D01*
X118313674Y-97406436D02*
X118250779Y-97469332D01*
X118250779Y-97469332D02*
X118187884Y-97500779D01*
X118187884Y-97500779D02*
X118062093Y-97500779D01*
X118062093Y-97500779D02*
X117999198Y-97469332D01*
X117999198Y-97469332D02*
X117936303Y-97406436D01*
X117936303Y-97406436D02*
X117904855Y-97280646D01*
X117904855Y-97280646D02*
X117904855Y-97060512D01*
X117904855Y-97060512D02*
X117936303Y-96934722D01*
X117936303Y-96934722D02*
X117999198Y-96871827D01*
X117999198Y-96871827D02*
X118062093Y-96840379D01*
X119257103Y-96840379D02*
X119319998Y-96840379D01*
X119319998Y-96840379D02*
X119382894Y-96871827D01*
X119382894Y-96871827D02*
X119414341Y-96903274D01*
X119414341Y-96903274D02*
X119445789Y-96966170D01*
X119445789Y-96966170D02*
X119477236Y-97091960D01*
X119477236Y-97091960D02*
X119477236Y-97249198D01*
X119477236Y-97249198D02*
X119445789Y-97374989D01*
X119445789Y-97374989D02*
X119414341Y-97437884D01*
X119414341Y-97437884D02*
X119382894Y-97469332D01*
X119382894Y-97469332D02*
X119319998Y-97500779D01*
X119319998Y-97500779D02*
X119257103Y-97500779D01*
X119257103Y-97500779D02*
X119194208Y-97469332D01*
X119194208Y-97469332D02*
X119162760Y-97437884D01*
X119162760Y-97437884D02*
X119131313Y-97374989D01*
X119131313Y-97374989D02*
X119099865Y-97249198D01*
X119099865Y-97249198D02*
X119099865Y-97091960D01*
X119099865Y-97091960D02*
X119131313Y-96966170D01*
X119131313Y-96966170D02*
X119162760Y-96903274D01*
X119162760Y-96903274D02*
X119194208Y-96871827D01*
X119194208Y-96871827D02*
X119257103Y-96840379D01*
D12*
G36*
X86686541Y-89518465D02*
G01*
X86609193Y-89531756D01*
X86539756Y-89570725D01*
X86510312Y-89599065D01*
X86486108Y-89632073D01*
X86467990Y-89668716D01*
X86456458Y-89708525D01*
X86452214Y-89752681D01*
X86452214Y-90165610D01*
X86144798Y-90165610D01*
X86144798Y-89752681D01*
X86131482Y-89675389D01*
X86092457Y-89606146D01*
X86064073Y-89576812D01*
X86030947Y-89552659D01*
X85994071Y-89534520D01*
X85953890Y-89522895D01*
X85907944Y-89518465D01*
X85829544Y-89531756D01*
X85760377Y-89570428D01*
X85707337Y-89631216D01*
X85689342Y-89667767D01*
X85677856Y-89707500D01*
X85673507Y-89752681D01*
X85673507Y-91202495D01*
X85686845Y-91281872D01*
X85725647Y-91351859D01*
X85753670Y-91381111D01*
X85786405Y-91405116D01*
X85822809Y-91423034D01*
X85862573Y-91434478D01*
X85907944Y-91438800D01*
X85986691Y-91425483D01*
X86056591Y-91386637D01*
X86086046Y-91358470D01*
X86110279Y-91325606D01*
X86128495Y-91289003D01*
X86140214Y-91249111D01*
X86144798Y-91202495D01*
X86144798Y-90636901D01*
X86452214Y-90636901D01*
X86452214Y-91202495D01*
X86465507Y-91280977D01*
X86504315Y-91350820D01*
X86565282Y-91404554D01*
X86601765Y-91422746D01*
X86641415Y-91434381D01*
X86686541Y-91438800D01*
X86765332Y-91425483D01*
X86835219Y-91386649D01*
X86864660Y-91358493D01*
X86888880Y-91325642D01*
X86907091Y-91289042D01*
X86918808Y-91249153D01*
X86923396Y-91202495D01*
X86923396Y-89752681D01*
X86910078Y-89675351D01*
X86871053Y-89606102D01*
X86842675Y-89576778D01*
X86809553Y-89552635D01*
X86772680Y-89534508D01*
X86732495Y-89522890D01*
X86686541Y-89518465D01*
G37*
G36*
X87812227Y-89481518D02*
G01*
X87880390Y-89493832D01*
X87945915Y-89512938D01*
X88009705Y-89539044D01*
X88069948Y-89571401D01*
X88126789Y-89610004D01*
X88179185Y-89654125D01*
X88268713Y-89756811D01*
X88334795Y-89874310D01*
X88375198Y-90001639D01*
X88388816Y-90134726D01*
X88388816Y-91202495D01*
X88384423Y-91248168D01*
X88372831Y-91288268D01*
X88354723Y-91325068D01*
X88330581Y-91358142D01*
X88301245Y-91386483D01*
X88231897Y-91425483D01*
X88154379Y-91438800D01*
X88107486Y-91434191D01*
X88067495Y-91422463D01*
X88030800Y-91404246D01*
X87997896Y-91380054D01*
X87969695Y-91350658D01*
X87930841Y-91280977D01*
X87917525Y-91202495D01*
X87917525Y-90847927D01*
X87539547Y-90847927D01*
X87539547Y-91202495D01*
X87535162Y-91248125D01*
X87523576Y-91288234D01*
X87505473Y-91325043D01*
X87481336Y-91358127D01*
X87452005Y-91386476D01*
X87382682Y-91425483D01*
X87305220Y-91438800D01*
X87258250Y-91434183D01*
X87218244Y-91422450D01*
X87181540Y-91404233D01*
X87148631Y-91380043D01*
X87120429Y-91350651D01*
X87081573Y-91280977D01*
X87068256Y-91202495D01*
X87068256Y-90134726D01*
X87539547Y-90134726D01*
X87539547Y-90376746D01*
X87917525Y-90376746D01*
X87917525Y-90134726D01*
X87917444Y-90129202D01*
X87912635Y-90092230D01*
X87900900Y-90057776D01*
X87882659Y-90026231D01*
X87858750Y-89998883D01*
X87798683Y-89960743D01*
X87728591Y-89947550D01*
X87723398Y-89947622D01*
X87686058Y-89952439D01*
X87651246Y-89964255D01*
X87619155Y-89982713D01*
X87591352Y-90006818D01*
X87552744Y-90066659D01*
X87539547Y-90134726D01*
X87068256Y-90134726D01*
X87073540Y-90051778D01*
X87085914Y-89984040D01*
X87105115Y-89918813D01*
X87131367Y-89855193D01*
X87163911Y-89795029D01*
X87202717Y-89738235D01*
X87247076Y-89685827D01*
X87350177Y-89596296D01*
X87467962Y-89530236D01*
X87595435Y-89489865D01*
X87728591Y-89476259D01*
X87812227Y-89481518D01*
G37*
G36*
X89179833Y-89476259D02*
G01*
X89046129Y-89489876D01*
X88918380Y-89530246D01*
X88800618Y-89596232D01*
X88697775Y-89685589D01*
X88653597Y-89737877D01*
X88614950Y-89794590D01*
X88582550Y-89854701D01*
X88556407Y-89918340D01*
X88537263Y-89983714D01*
X88524913Y-90051706D01*
X88519608Y-90135495D01*
X88519608Y-90821879D01*
X88533217Y-90954690D01*
X88573608Y-91081871D01*
X88639717Y-91199412D01*
X88729343Y-91302320D01*
X88781824Y-91346606D01*
X88838718Y-91385357D01*
X88899011Y-91417866D01*
X88962795Y-91444100D01*
X89028235Y-91463303D01*
X89096229Y-91475690D01*
X89179833Y-91481005D01*
X89313705Y-91467397D01*
X89441322Y-91427098D01*
X89558859Y-91361246D01*
X89661560Y-91272024D01*
X89705747Y-91219747D01*
X89744395Y-91163083D01*
X89776859Y-91102944D01*
X89803055Y-91039328D01*
X89822272Y-90973948D01*
X89834684Y-90906024D01*
X89840058Y-90821879D01*
X89840058Y-90796819D01*
X89826766Y-90718653D01*
X89787941Y-90649050D01*
X89726905Y-90595474D01*
X89690362Y-90577338D01*
X89650647Y-90565756D01*
X89605732Y-90561394D01*
X89526812Y-90574708D01*
X89456811Y-90613530D01*
X89427346Y-90641658D01*
X89403124Y-90674467D01*
X89384946Y-90710977D01*
X89373279Y-90750753D01*
X89368767Y-90796819D01*
X89368767Y-90821879D01*
X89355569Y-90890274D01*
X89316982Y-90950354D01*
X89289223Y-90974527D01*
X89257183Y-90993042D01*
X89222452Y-91004895D01*
X89185192Y-91009747D01*
X89179833Y-91009824D01*
X89110894Y-90996628D01*
X89050388Y-90958082D01*
X89026110Y-90930421D01*
X89007533Y-90898508D01*
X88995688Y-90864011D01*
X88990861Y-90827018D01*
X88990789Y-90821879D01*
X88990789Y-90135495D01*
X89003986Y-90066100D01*
X89042198Y-90006486D01*
X89069696Y-89982639D01*
X89101435Y-89964400D01*
X89136231Y-89952575D01*
X89173591Y-89947651D01*
X89179833Y-89947550D01*
X89249731Y-89960808D01*
X89310248Y-89999339D01*
X89334181Y-90026826D01*
X89352454Y-90058692D01*
X89364034Y-90093269D01*
X89368707Y-90130649D01*
X89368767Y-90135495D01*
X89368767Y-90158027D01*
X89382084Y-90236193D01*
X89420958Y-90305627D01*
X89482137Y-90359052D01*
X89518902Y-90377214D01*
X89558975Y-90388893D01*
X89605732Y-90393452D01*
X89683308Y-90380138D01*
X89752708Y-90341149D01*
X89782042Y-90312831D01*
X89806165Y-90279793D01*
X89824224Y-90243070D01*
X89835751Y-90203069D01*
X89840058Y-90158027D01*
X89840058Y-90135495D01*
X89826440Y-90001422D01*
X89786124Y-89873754D01*
X89720291Y-89756363D01*
X89631143Y-89653973D01*
X89578925Y-89609981D01*
X89522274Y-89571503D01*
X89462123Y-89539197D01*
X89398420Y-89513123D01*
X89332839Y-89493985D01*
X89264603Y-89481620D01*
X89179833Y-89476259D01*
G37*
G36*
X90939591Y-90297282D02*
G01*
X91199196Y-89876439D01*
X91229095Y-89802230D01*
X91232727Y-89721836D01*
X91224208Y-89681843D01*
X91208928Y-89643885D01*
X91187403Y-89609363D01*
X91159667Y-89578717D01*
X91123579Y-89551437D01*
X91050158Y-89522000D01*
X90970368Y-89518720D01*
X90892376Y-89542784D01*
X90857551Y-89564504D01*
X90826608Y-89592393D01*
X90798467Y-89629473D01*
X90443240Y-90209134D01*
X90435657Y-90209134D01*
X90435657Y-89753011D01*
X90422364Y-89674668D01*
X90383683Y-89605532D01*
X90322872Y-89552508D01*
X90286303Y-89534517D01*
X90246545Y-89523033D01*
X90201330Y-89518684D01*
X90121745Y-89532021D01*
X90051561Y-89570818D01*
X90022232Y-89598824D01*
X89998161Y-89631536D01*
X89980198Y-89667889D01*
X89968717Y-89707590D01*
X89964366Y-89753011D01*
X89964366Y-91204473D01*
X89977683Y-91282816D01*
X90016412Y-91351785D01*
X90077367Y-91404661D01*
X90114157Y-91422678D01*
X90154273Y-91434257D01*
X90201330Y-91438800D01*
X90279563Y-91425462D01*
X90349147Y-91386499D01*
X90378346Y-91358306D01*
X90402318Y-91325366D01*
X90420162Y-91288802D01*
X90431505Y-91248877D01*
X90435657Y-91204473D01*
X90435657Y-90680316D01*
X90609533Y-90680316D01*
X90679215Y-90693574D01*
X90739639Y-90732138D01*
X90763604Y-90759694D01*
X90781935Y-90791647D01*
X90793612Y-90826372D01*
X90798391Y-90863918D01*
X90798467Y-90869360D01*
X90798467Y-91204473D01*
X90811761Y-91282816D01*
X90850443Y-91351944D01*
X90911260Y-91404962D01*
X90947839Y-91422955D01*
X90987612Y-91434443D01*
X91032904Y-91438800D01*
X91112432Y-91425462D01*
X91182592Y-91386659D01*
X91211915Y-91358646D01*
X91235982Y-91325924D01*
X91253940Y-91289563D01*
X91265415Y-91249852D01*
X91269758Y-91204473D01*
X91269758Y-90869360D01*
X91256153Y-90735806D01*
X91215870Y-90608564D01*
X91149949Y-90491098D01*
X91060343Y-90387875D01*
X91007612Y-90343115D01*
X90950446Y-90303820D01*
X90939591Y-90297282D01*
G37*
G36*
X92296531Y-90967618D02*
G01*
X91928664Y-90967618D01*
X91882358Y-90954855D01*
X91849696Y-90919368D01*
X91840407Y-90879911D01*
X91840407Y-90636901D01*
X92173102Y-90636901D01*
X92251735Y-90623585D01*
X92321579Y-90584728D01*
X92351043Y-90556535D01*
X92375295Y-90523640D01*
X92393553Y-90486979D01*
X92405318Y-90447025D01*
X92409957Y-90400047D01*
X92396641Y-90322643D01*
X92357630Y-90253350D01*
X92329262Y-90224006D01*
X92296156Y-90199844D01*
X92259297Y-90181695D01*
X92219135Y-90170058D01*
X92173102Y-90165610D01*
X91840407Y-90165610D01*
X91840407Y-90077683D01*
X91853376Y-90031497D01*
X91869141Y-90012445D01*
X91889846Y-89998482D01*
X91928664Y-89989756D01*
X92256194Y-89989756D01*
X92333598Y-89976440D01*
X92402890Y-89937429D01*
X92432235Y-89909061D01*
X92456396Y-89875955D01*
X92474545Y-89839096D01*
X92486183Y-89798934D01*
X92490630Y-89752901D01*
X92477337Y-89675497D01*
X92438371Y-89606050D01*
X92410036Y-89576609D01*
X92377029Y-89552404D01*
X92340376Y-89534279D01*
X92300545Y-89522733D01*
X92256194Y-89518465D01*
X91928664Y-89518465D01*
X91805082Y-89532045D01*
X91688436Y-89572155D01*
X91582977Y-89637377D01*
X91493833Y-89725059D01*
X91457068Y-89775961D01*
X91426114Y-89830967D01*
X91401702Y-89888826D01*
X91383801Y-89949824D01*
X91373006Y-90012041D01*
X91369227Y-90076453D01*
X91369226Y-90077683D01*
X91369226Y-90879911D01*
X91382807Y-91002556D01*
X91423018Y-91118949D01*
X91488518Y-91224594D01*
X91576591Y-91314061D01*
X91627652Y-91350942D01*
X91682826Y-91382000D01*
X91740725Y-91406436D01*
X91801756Y-91424341D01*
X91863853Y-91435086D01*
X91928131Y-91438799D01*
X91928664Y-91438800D01*
X92296531Y-91438800D01*
X92373917Y-91425482D01*
X92443191Y-91386464D01*
X92472520Y-91358095D01*
X92496667Y-91324982D01*
X92514800Y-91288118D01*
X92526423Y-91247942D01*
X92530857Y-91201945D01*
X92517565Y-91124597D01*
X92478593Y-91055167D01*
X92450252Y-91025728D01*
X92417240Y-91001525D01*
X92380587Y-90983407D01*
X92340763Y-90971870D01*
X92296531Y-90967618D01*
G37*
G36*
X93863727Y-90163302D02*
G01*
X93850115Y-90031457D01*
X93809773Y-89905659D01*
X93743841Y-89789900D01*
X93654564Y-89689091D01*
X93602324Y-89645936D01*
X93545683Y-89608329D01*
X93485654Y-89576969D01*
X93422130Y-89551887D01*
X93356894Y-89533801D01*
X93289082Y-89522532D01*
X93216032Y-89518465D01*
X92853221Y-89518465D01*
X92774533Y-89531782D01*
X92704671Y-89570634D01*
X92675206Y-89598821D01*
X92650951Y-89631711D01*
X92632687Y-89668372D01*
X92620913Y-89708331D01*
X92616257Y-89755429D01*
X92616257Y-91204913D01*
X92629574Y-91282124D01*
X92668596Y-91351258D01*
X92696984Y-91380545D01*
X92730118Y-91404657D01*
X92767024Y-91422771D01*
X92807243Y-91434379D01*
X92853221Y-91438800D01*
X92931641Y-91425507D01*
X93000817Y-91386835D01*
X93053826Y-91326067D01*
X93071790Y-91289543D01*
X93083240Y-91249836D01*
X93087548Y-91204913D01*
X93087548Y-89989756D01*
X93216032Y-89989756D01*
X93283812Y-90002932D01*
X93341325Y-90040954D01*
X93363595Y-90067999D01*
X93380033Y-90099126D01*
X93392436Y-90163302D01*
X93389008Y-90199029D01*
X93379080Y-90232047D01*
X93340944Y-90288514D01*
X93313668Y-90310267D01*
X93281798Y-90326601D01*
X93266480Y-90331903D01*
X93195154Y-90366730D01*
X93139479Y-90423808D01*
X93119400Y-90459265D01*
X93105558Y-90498045D01*
X93097659Y-90565900D01*
X93112816Y-90642623D01*
X93153844Y-90711294D01*
X93182952Y-90739748D01*
X93216867Y-90762892D01*
X93281538Y-90787257D01*
X93322952Y-90800343D01*
X93358868Y-90818983D01*
X93388029Y-90841904D01*
X93411166Y-90869122D01*
X93427452Y-90899178D01*
X93437303Y-90932424D01*
X93440356Y-90965860D01*
X93440356Y-91204913D01*
X93453649Y-91282124D01*
X93492623Y-91351427D01*
X93520974Y-91380818D01*
X93554000Y-91404977D01*
X93590681Y-91423065D01*
X93630538Y-91434573D01*
X93674683Y-91438800D01*
X93753392Y-91425507D01*
X93823441Y-91386705D01*
X93877289Y-91325797D01*
X93895494Y-91289392D01*
X93907131Y-91249832D01*
X93911538Y-91204913D01*
X93911538Y-90965860D01*
X93897849Y-90831583D01*
X93857588Y-90705789D01*
X93791786Y-90590575D01*
X93747773Y-90535675D01*
X93783507Y-90477824D01*
X93813202Y-90416158D01*
X93836126Y-90352157D01*
X93852407Y-90285264D01*
X93863727Y-90163302D01*
G37*
G36*
X95424439Y-89476259D02*
G01*
X95290735Y-89489876D01*
X95162985Y-89530246D01*
X95045224Y-89596232D01*
X94942381Y-89685589D01*
X94898203Y-89737877D01*
X94859555Y-89794590D01*
X94827155Y-89854701D01*
X94801012Y-89918340D01*
X94781869Y-89983714D01*
X94769518Y-90051706D01*
X94764214Y-90135495D01*
X94764214Y-90821879D01*
X94777823Y-90954690D01*
X94818214Y-91081871D01*
X94884323Y-91199412D01*
X94973949Y-91302320D01*
X95026430Y-91346606D01*
X95083323Y-91385357D01*
X95143617Y-91417866D01*
X95207401Y-91444100D01*
X95272841Y-91463303D01*
X95340835Y-91475690D01*
X95424439Y-91481005D01*
X95558311Y-91467397D01*
X95685928Y-91427098D01*
X95803465Y-91361246D01*
X95906165Y-91272024D01*
X95950353Y-91219747D01*
X95989000Y-91163083D01*
X96021465Y-91102944D01*
X96047661Y-91039328D01*
X96066878Y-90973948D01*
X96079290Y-90906024D01*
X96084664Y-90821879D01*
X96084664Y-90796819D01*
X96071371Y-90718653D01*
X96032546Y-90649050D01*
X95971510Y-90595474D01*
X95934967Y-90577338D01*
X95895253Y-90565756D01*
X95850337Y-90561394D01*
X95771418Y-90574708D01*
X95701416Y-90613530D01*
X95671952Y-90641658D01*
X95647729Y-90674467D01*
X95629552Y-90710977D01*
X95617885Y-90750753D01*
X95613373Y-90796819D01*
X95613373Y-90821879D01*
X95600175Y-90890274D01*
X95561588Y-90950354D01*
X95533829Y-90974527D01*
X95501789Y-90993042D01*
X95467058Y-91004895D01*
X95429798Y-91009747D01*
X95424439Y-91009824D01*
X95355500Y-90996628D01*
X95294994Y-90958082D01*
X95270716Y-90930421D01*
X95252139Y-90898508D01*
X95240294Y-90864011D01*
X95235466Y-90827018D01*
X95235395Y-90821879D01*
X95235395Y-90135495D01*
X95248591Y-90066100D01*
X95286804Y-90006486D01*
X95314302Y-89982639D01*
X95346040Y-89964400D01*
X95380837Y-89952575D01*
X95418196Y-89947651D01*
X95424439Y-89947550D01*
X95494336Y-89960808D01*
X95554854Y-89999339D01*
X95578787Y-90026826D01*
X95597059Y-90058692D01*
X95608640Y-90093269D01*
X95613312Y-90130649D01*
X95613373Y-90135495D01*
X95613373Y-90158027D01*
X95626690Y-90236193D01*
X95665563Y-90305627D01*
X95726743Y-90359052D01*
X95763508Y-90377214D01*
X95803581Y-90388893D01*
X95850337Y-90393452D01*
X95927913Y-90380138D01*
X95997313Y-90341149D01*
X96026648Y-90312831D01*
X96050771Y-90279793D01*
X96068829Y-90243070D01*
X96080357Y-90203069D01*
X96084664Y-90158027D01*
X96084664Y-90135495D01*
X96071046Y-90001422D01*
X96030730Y-89873754D01*
X95964897Y-89756363D01*
X95875748Y-89653973D01*
X95823531Y-89609981D01*
X95766880Y-89571503D01*
X95706729Y-89539197D01*
X95643026Y-89513123D01*
X95577444Y-89493985D01*
X95509209Y-89481620D01*
X95424439Y-89476259D01*
G37*
G36*
X97141442Y-90967618D02*
G01*
X96680262Y-90967618D01*
X96680262Y-89752461D01*
X96666946Y-89675237D01*
X96627920Y-89606058D01*
X96599531Y-89576748D01*
X96566398Y-89552617D01*
X96529507Y-89534493D01*
X96489310Y-89522881D01*
X96443408Y-89518465D01*
X96365966Y-89531756D01*
X96296483Y-89570713D01*
X96267035Y-89599035D01*
X96242833Y-89632021D01*
X96224724Y-89668633D01*
X96213203Y-89708407D01*
X96208971Y-89752461D01*
X96208971Y-91201945D01*
X96222265Y-91280620D01*
X96261065Y-91350608D01*
X96321999Y-91404437D01*
X96358455Y-91422666D01*
X96398079Y-91434339D01*
X96443408Y-91438800D01*
X97141442Y-91438800D01*
X97220112Y-91425482D01*
X97289963Y-91386625D01*
X97319417Y-91358438D01*
X97343660Y-91325546D01*
X97361905Y-91288888D01*
X97373662Y-91248931D01*
X97378296Y-91201945D01*
X97364980Y-91123602D01*
X97326253Y-91054626D01*
X97265303Y-91001743D01*
X97228522Y-90983728D01*
X97188421Y-90972153D01*
X97141442Y-90967618D01*
G37*
G36*
X97385660Y-89752461D02*
G01*
X97385660Y-90821219D01*
X97399279Y-90954777D01*
X97439658Y-91082400D01*
X97505668Y-91200054D01*
X97595071Y-91302815D01*
X97647396Y-91346964D01*
X97704160Y-91385594D01*
X97764340Y-91417988D01*
X97828068Y-91444134D01*
X97893560Y-91463293D01*
X97961694Y-91475665D01*
X98045995Y-91481005D01*
X98179139Y-91467396D01*
X98306566Y-91427020D01*
X98424277Y-91360955D01*
X98527301Y-91271412D01*
X98571630Y-91218987D01*
X98610418Y-91162158D01*
X98642961Y-91101936D01*
X98669224Y-91038232D01*
X98688456Y-90972875D01*
X98700872Y-90904974D01*
X98706220Y-90821219D01*
X98706220Y-89752461D01*
X98692927Y-89674242D01*
X98654236Y-89605202D01*
X98593390Y-89552240D01*
X98556789Y-89534268D01*
X98516990Y-89522800D01*
X98471784Y-89518465D01*
X98392215Y-89531801D01*
X98322028Y-89570597D01*
X98292702Y-89598600D01*
X98268640Y-89631305D01*
X98250697Y-89667634D01*
X98239244Y-89707305D01*
X98234929Y-89752461D01*
X98234929Y-90821219D01*
X98221731Y-90889842D01*
X98183151Y-90950125D01*
X98155416Y-90974373D01*
X98123405Y-90992951D01*
X98088732Y-91004848D01*
X98051535Y-91009741D01*
X98045995Y-91009824D01*
X97977180Y-90996628D01*
X97916732Y-90958061D01*
X97892438Y-90930359D01*
X97873827Y-90898393D01*
X97861924Y-90863805D01*
X97857032Y-90826708D01*
X97856951Y-90821219D01*
X97856951Y-89752461D01*
X97843635Y-89674242D01*
X97804900Y-89605355D01*
X97743922Y-89552528D01*
X97707117Y-89534533D01*
X97666990Y-89522977D01*
X97620096Y-89518465D01*
X97541768Y-89531801D01*
X97472131Y-89570750D01*
X97442924Y-89598924D01*
X97418953Y-89631838D01*
X97401119Y-89668361D01*
X97389792Y-89708236D01*
X97385660Y-89752461D01*
G37*
G36*
X99359255Y-89519792D02*
G01*
X99426233Y-89527802D01*
X99490804Y-89542716D01*
X99553823Y-89564655D01*
X99613480Y-89592960D01*
X99669847Y-89627556D01*
X99721908Y-89667778D01*
X99810951Y-89762853D01*
X99876745Y-89873006D01*
X99917013Y-89993296D01*
X99930609Y-90119778D01*
X99926570Y-90188951D01*
X99914637Y-90257098D01*
X99895329Y-90323550D01*
X99968775Y-90410316D01*
X100035232Y-90527499D01*
X100075769Y-90654117D01*
X100089428Y-90786488D01*
X100084787Y-90864630D01*
X100073005Y-90932449D01*
X100054419Y-90997687D01*
X100028852Y-91061168D01*
X99997016Y-91121152D01*
X99958953Y-91177719D01*
X99915345Y-91229888D01*
X99813634Y-91319027D01*
X99696903Y-91384872D01*
X99569976Y-91425187D01*
X99436787Y-91438800D01*
X99089034Y-91438800D01*
X99041936Y-91434148D01*
X99001971Y-91422382D01*
X98965304Y-91404129D01*
X98932418Y-91379891D01*
X98904234Y-91350445D01*
X98865387Y-91280620D01*
X98852070Y-91201945D01*
X98852070Y-90967618D01*
X99325889Y-90967618D01*
X99436787Y-90967618D01*
X99473629Y-90963942D01*
X99507850Y-90953387D01*
X99539402Y-90936215D01*
X99566698Y-90913352D01*
X99604916Y-90854980D01*
X99618137Y-90786488D01*
X99617895Y-90777417D01*
X99612242Y-90742095D01*
X99599616Y-90709056D01*
X99555827Y-90653025D01*
X99494709Y-90617887D01*
X99494209Y-90617716D01*
X99455866Y-90600764D01*
X99421815Y-90578057D01*
X99368487Y-90517580D01*
X99338418Y-90441812D01*
X99337934Y-90439059D01*
X99334399Y-90396934D01*
X99337957Y-90355375D01*
X99364775Y-90279033D01*
X99414036Y-90217927D01*
X99418680Y-90213762D01*
X99447986Y-90172977D01*
X99459428Y-90119778D01*
X99457647Y-90099968D01*
X99448226Y-90070481D01*
X99431790Y-90043902D01*
X99382946Y-90004000D01*
X99325889Y-89988986D01*
X99325889Y-90967618D01*
X98852070Y-90967618D01*
X98852070Y-89752461D01*
X98856497Y-89707432D01*
X98868153Y-89667870D01*
X98886376Y-89631460D01*
X98940247Y-89570553D01*
X99010308Y-89531756D01*
X99089034Y-89518465D01*
X99318305Y-89518465D01*
X99359255Y-89519792D01*
G37*
G36*
X101108617Y-90967618D02*
G01*
X100740751Y-90967618D01*
X100694444Y-90954855D01*
X100661783Y-90919368D01*
X100652494Y-90879911D01*
X100652494Y-90636901D01*
X100985189Y-90636901D01*
X101063821Y-90623585D01*
X101133665Y-90584728D01*
X101163129Y-90556535D01*
X101187382Y-90523640D01*
X101205640Y-90486979D01*
X101217404Y-90447025D01*
X101222043Y-90400047D01*
X101208727Y-90322643D01*
X101169717Y-90253350D01*
X101141349Y-90224006D01*
X101108242Y-90199844D01*
X101071384Y-90181695D01*
X101031222Y-90170058D01*
X100985189Y-90165610D01*
X100652494Y-90165610D01*
X100652494Y-90077683D01*
X100665463Y-90031497D01*
X100681227Y-90012445D01*
X100701933Y-89998482D01*
X100740751Y-89989756D01*
X101068280Y-89989756D01*
X101145685Y-89976440D01*
X101214977Y-89937429D01*
X101244322Y-89909061D01*
X101268483Y-89875955D01*
X101286632Y-89839096D01*
X101298269Y-89798934D01*
X101302717Y-89752901D01*
X101289423Y-89675497D01*
X101250457Y-89606050D01*
X101222123Y-89576609D01*
X101189115Y-89552404D01*
X101152462Y-89534279D01*
X101112632Y-89522733D01*
X101068280Y-89518465D01*
X100740751Y-89518465D01*
X100617168Y-89532045D01*
X100500523Y-89572155D01*
X100395063Y-89637377D01*
X100305920Y-89725059D01*
X100269155Y-89775961D01*
X100238201Y-89830967D01*
X100213788Y-89888826D01*
X100195887Y-89949824D01*
X100185093Y-90012041D01*
X100181314Y-90076453D01*
X100181312Y-90077683D01*
X100181312Y-90879911D01*
X100194894Y-91002556D01*
X100235104Y-91118949D01*
X100300605Y-91224594D01*
X100388678Y-91314061D01*
X100439739Y-91350942D01*
X100494912Y-91382000D01*
X100552811Y-91406436D01*
X100613843Y-91424341D01*
X100675939Y-91435086D01*
X100740217Y-91438799D01*
X100740751Y-91438800D01*
X101108617Y-91438800D01*
X101186003Y-91425482D01*
X101255277Y-91386464D01*
X101284607Y-91358095D01*
X101308754Y-91324982D01*
X101326886Y-91288118D01*
X101338509Y-91247942D01*
X101342944Y-91201945D01*
X101329651Y-91124597D01*
X101290680Y-91055167D01*
X101262339Y-91025728D01*
X101229327Y-91001525D01*
X101192674Y-90983407D01*
X101152849Y-90971870D01*
X101108617Y-90967618D01*
G37*
G36*
X88539272Y-86515407D02*
G01*
X88509733Y-86340669D01*
X88423486Y-86185098D01*
X88288039Y-86065404D01*
X88207038Y-86024885D01*
X88119012Y-85998949D01*
X88018546Y-85989064D01*
X87195203Y-85989064D01*
X87023318Y-86018655D01*
X86869391Y-86105361D01*
X86804192Y-86168419D01*
X86750510Y-86242010D01*
X86710189Y-86323939D01*
X86684341Y-86413209D01*
X86674477Y-86515407D01*
X86704016Y-86690242D01*
X86790235Y-86845785D01*
X86925631Y-86965419D01*
X87006623Y-87005926D01*
X87094643Y-87031856D01*
X87195203Y-87041751D01*
X87491958Y-87041751D01*
X87491958Y-87281109D01*
X87462630Y-87432963D01*
X87376858Y-87566421D01*
X87315150Y-87620130D01*
X87243925Y-87661264D01*
X87166726Y-87687588D01*
X87083908Y-87698353D01*
X87072105Y-87698520D01*
X86918907Y-87669200D01*
X86784431Y-87583549D01*
X86730471Y-87522086D01*
X86689188Y-87451186D01*
X86662874Y-87374564D01*
X86652163Y-87292411D01*
X86652007Y-87281109D01*
X86652007Y-85751904D01*
X86681333Y-85601318D01*
X86767151Y-85468942D01*
X86829008Y-85415593D01*
X86900410Y-85374763D01*
X86977943Y-85348637D01*
X87061110Y-85338056D01*
X87072105Y-85337913D01*
X87229924Y-85367731D01*
X87302140Y-85404500D01*
X87365635Y-85454287D01*
X87417729Y-85515073D01*
X87457269Y-85586278D01*
X87469732Y-85619280D01*
X87555140Y-85773033D01*
X87688049Y-85890161D01*
X87768959Y-85930887D01*
X87855961Y-85957229D01*
X87946361Y-85968183D01*
X88038936Y-85963066D01*
X88136027Y-85939483D01*
X88292777Y-85854652D01*
X88411320Y-85723238D01*
X88452275Y-85643631D01*
X88478750Y-85558048D01*
X88489754Y-85469304D01*
X88484700Y-85378391D01*
X88460870Y-85281981D01*
X88336977Y-85011456D01*
X88160167Y-84771444D01*
X87936218Y-84570886D01*
X87809122Y-84488319D01*
X87673885Y-84419123D01*
X87532174Y-84364226D01*
X87384473Y-84324028D01*
X87234168Y-84299504D01*
X87080055Y-84290621D01*
X87072105Y-84290599D01*
X86774985Y-84320850D01*
X86490998Y-84410551D01*
X86229136Y-84557181D01*
X86000427Y-84755722D01*
X85902198Y-84871868D01*
X85816293Y-84997807D01*
X85744316Y-85131226D01*
X85686278Y-85272423D01*
X85643843Y-85417358D01*
X85616530Y-85568030D01*
X85604938Y-85751904D01*
X85604938Y-87281109D01*
X85635181Y-87576164D01*
X85724943Y-87858734D01*
X85871863Y-88119905D01*
X86071052Y-88348573D01*
X86187689Y-88446979D01*
X86314133Y-88533087D01*
X86448130Y-88605322D01*
X86589885Y-88663611D01*
X86735316Y-88706274D01*
X86886423Y-88733792D01*
X87072105Y-88745589D01*
X87369598Y-88715351D01*
X87653198Y-88625796D01*
X87914403Y-88479461D01*
X88142637Y-88281190D01*
X88240835Y-88165023D01*
X88326721Y-88039109D01*
X88398862Y-87905477D01*
X88457072Y-87764123D01*
X88499769Y-87618857D01*
X88527343Y-87467942D01*
X88539272Y-87281109D01*
X88539272Y-86515407D01*
G37*
G36*
X90457544Y-84302286D02*
G01*
X90609018Y-84329651D01*
X90754629Y-84372107D01*
X90896385Y-84430121D01*
X91030258Y-84502024D01*
X91156571Y-84587809D01*
X91273007Y-84685856D01*
X91471957Y-84914048D01*
X91618806Y-85175157D01*
X91708590Y-85458109D01*
X91738853Y-85753858D01*
X91738853Y-88126677D01*
X91729090Y-88228174D01*
X91703330Y-88317284D01*
X91663090Y-88399062D01*
X91609442Y-88472561D01*
X91544252Y-88535541D01*
X91390145Y-88622207D01*
X91217883Y-88651800D01*
X91113675Y-88641559D01*
X91024805Y-88615495D01*
X90943262Y-88575014D01*
X90870141Y-88521254D01*
X90807473Y-88455929D01*
X90721131Y-88301084D01*
X90691540Y-88126677D01*
X90691540Y-87338750D01*
X89851588Y-87338750D01*
X89851588Y-88126677D01*
X89841844Y-88228078D01*
X89816098Y-88317209D01*
X89775869Y-88399007D01*
X89722230Y-88472527D01*
X89657052Y-88535525D01*
X89503000Y-88622207D01*
X89330863Y-88651800D01*
X89226484Y-88641541D01*
X89137581Y-88615468D01*
X89056017Y-88574985D01*
X88982887Y-88521229D01*
X88920215Y-88455914D01*
X88833869Y-88301084D01*
X88804275Y-88126677D01*
X88804275Y-85753858D01*
X89851588Y-85753858D01*
X89851588Y-86291681D01*
X90691540Y-86291681D01*
X90691540Y-85753858D01*
X90691360Y-85741582D01*
X90680673Y-85659423D01*
X90654595Y-85582858D01*
X90614059Y-85512758D01*
X90560928Y-85451986D01*
X90427445Y-85367230D01*
X90271686Y-85337913D01*
X90260146Y-85338072D01*
X90177168Y-85348776D01*
X90099808Y-85375034D01*
X90028495Y-85416052D01*
X89966710Y-85469619D01*
X89880914Y-85602599D01*
X89851588Y-85753858D01*
X88804275Y-85753858D01*
X88816018Y-85569530D01*
X88843516Y-85419000D01*
X88886185Y-85274051D01*
X88944521Y-85132674D01*
X89016842Y-84998977D01*
X89103076Y-84872767D01*
X89201653Y-84756304D01*
X89430766Y-84557347D01*
X89692510Y-84410547D01*
X89975783Y-84320834D01*
X90271686Y-84290599D01*
X90457544Y-84302286D01*
G37*
G36*
X94835120Y-85817361D02*
G01*
X94804871Y-85524372D01*
X94715221Y-85244820D01*
X94568707Y-84987578D01*
X94370313Y-84763558D01*
X94254224Y-84667657D01*
X94128355Y-84584088D01*
X93994957Y-84514397D01*
X93853793Y-84458660D01*
X93708824Y-84418469D01*
X93558131Y-84393428D01*
X93395796Y-84384388D01*
X92589551Y-84384388D01*
X92414688Y-84413982D01*
X92259439Y-84500321D01*
X92193961Y-84562959D01*
X92140061Y-84636047D01*
X92099476Y-84717517D01*
X92073310Y-84806314D01*
X92062963Y-84910976D01*
X92062963Y-88132051D01*
X92092557Y-88303632D01*
X92179274Y-88457264D01*
X92242358Y-88522345D01*
X92315989Y-88575927D01*
X92398002Y-88616181D01*
X92487377Y-88641976D01*
X92589551Y-88651800D01*
X92763816Y-88622262D01*
X92917542Y-88536324D01*
X93035340Y-88401284D01*
X93075259Y-88320119D01*
X93100705Y-88231882D01*
X93110277Y-88132051D01*
X93110277Y-85431702D01*
X93395796Y-85431702D01*
X93546420Y-85460982D01*
X93674226Y-85545476D01*
X93723715Y-85605575D01*
X93760244Y-85674747D01*
X93787806Y-85817361D01*
X93780188Y-85896753D01*
X93758126Y-85970128D01*
X93673379Y-86095610D01*
X93612766Y-86143949D01*
X93541945Y-86180247D01*
X93507904Y-86192030D01*
X93349402Y-86269424D01*
X93225679Y-86396263D01*
X93181060Y-86475056D01*
X93150299Y-86561234D01*
X93132747Y-86712023D01*
X93166429Y-86882517D01*
X93257602Y-87035121D01*
X93322286Y-87098352D01*
X93397653Y-87149782D01*
X93541365Y-87203928D01*
X93633397Y-87233008D01*
X93713210Y-87274430D01*
X93778013Y-87325365D01*
X93829429Y-87385848D01*
X93865620Y-87452641D01*
X93887511Y-87526520D01*
X93894296Y-87600823D01*
X93894296Y-88132051D01*
X93923835Y-88303632D01*
X94010444Y-88457639D01*
X94073447Y-88522952D01*
X94146837Y-88576638D01*
X94228351Y-88616834D01*
X94316921Y-88642408D01*
X94415022Y-88651800D01*
X94589931Y-88622262D01*
X94745596Y-88536035D01*
X94865256Y-88400683D01*
X94905713Y-88319783D01*
X94931573Y-88231871D01*
X94941365Y-88132051D01*
X94941365Y-87600823D01*
X94910946Y-87302429D01*
X94821478Y-87022886D01*
X94675250Y-86766855D01*
X94577443Y-86644856D01*
X94656852Y-86516299D01*
X94722842Y-86379262D01*
X94773784Y-86237039D01*
X94809964Y-86088387D01*
X94835120Y-85817361D01*
G37*
G36*
X96813470Y-84302379D02*
G01*
X96964884Y-84329813D01*
X97110434Y-84372334D01*
X97252103Y-84430401D01*
X97385891Y-84502356D01*
X97512110Y-84588185D01*
X97628459Y-84686279D01*
X97827265Y-84914594D01*
X97974031Y-85175922D01*
X98063789Y-85459250D01*
X98094052Y-85755568D01*
X98094052Y-87280864D01*
X98082152Y-87468651D01*
X98054678Y-87619943D01*
X98012143Y-87765381D01*
X97954184Y-87906681D01*
X97882357Y-88040127D01*
X97796792Y-88165828D01*
X97698950Y-88281712D01*
X97471167Y-88479599D01*
X97209898Y-88625778D01*
X96925611Y-88715330D01*
X96626885Y-88745589D01*
X96439296Y-88733643D01*
X96287976Y-88706069D01*
X96142366Y-88663387D01*
X96000730Y-88605217D01*
X95866867Y-88533140D01*
X95740767Y-88447348D01*
X95624455Y-88349272D01*
X95425988Y-88121372D01*
X95279553Y-87860625D01*
X95189961Y-87577619D01*
X95159718Y-87280864D01*
X95159718Y-85755568D01*
X96206787Y-85755568D01*
X96206787Y-87280864D01*
X96206946Y-87292285D01*
X96217674Y-87374493D01*
X96243997Y-87451152D01*
X96285279Y-87522069D01*
X96339229Y-87583538D01*
X96473687Y-87669197D01*
X96626885Y-87698520D01*
X96638795Y-87698350D01*
X96721594Y-87687566D01*
X96798775Y-87661228D01*
X96869974Y-87620084D01*
X96931660Y-87566364D01*
X97017410Y-87432854D01*
X97046738Y-87280864D01*
X97046738Y-85755568D01*
X97046580Y-85744175D01*
X97035865Y-85661939D01*
X97009560Y-85585256D01*
X96968315Y-85514343D01*
X96914408Y-85452878D01*
X96780049Y-85367235D01*
X96626885Y-85337913D01*
X96614834Y-85338087D01*
X96532014Y-85348901D01*
X96454802Y-85375273D01*
X96383581Y-85416443D01*
X96321871Y-85470184D01*
X96236113Y-85603670D01*
X96206787Y-85755568D01*
X95159718Y-85755568D01*
X95171545Y-85570179D01*
X95199098Y-85419434D01*
X95241808Y-85274308D01*
X95300157Y-85132820D01*
X95372474Y-84999042D01*
X95458678Y-84872791D01*
X95557206Y-84756307D01*
X95786189Y-84557346D01*
X96047803Y-84410552D01*
X96330993Y-84320837D01*
X96626885Y-84290599D01*
X96813470Y-84302379D01*
G37*
G36*
X100035771Y-84302286D02*
G01*
X100187246Y-84329651D01*
X100332857Y-84372107D01*
X100474613Y-84430121D01*
X100608485Y-84502024D01*
X100734799Y-84587809D01*
X100851234Y-84685856D01*
X101050185Y-84914048D01*
X101197034Y-85175157D01*
X101286818Y-85458109D01*
X101317080Y-85753858D01*
X101317080Y-88126677D01*
X101307317Y-88228174D01*
X101281558Y-88317284D01*
X101241317Y-88399062D01*
X101187669Y-88472561D01*
X101122479Y-88535541D01*
X100968372Y-88622207D01*
X100796110Y-88651800D01*
X100691903Y-88641559D01*
X100603033Y-88615495D01*
X100521489Y-88575014D01*
X100448368Y-88521254D01*
X100385701Y-88455929D01*
X100299358Y-88301084D01*
X100269767Y-88126677D01*
X100269767Y-87338750D01*
X99429816Y-87338750D01*
X99429816Y-88126677D01*
X99420072Y-88228078D01*
X99394325Y-88317209D01*
X99354096Y-88399007D01*
X99300458Y-88472527D01*
X99235279Y-88535525D01*
X99081228Y-88622207D01*
X98909090Y-88651800D01*
X98804711Y-88641541D01*
X98715809Y-88615468D01*
X98634245Y-88574985D01*
X98561114Y-88521229D01*
X98498443Y-88455914D01*
X98412096Y-88301084D01*
X98382503Y-88126677D01*
X98382503Y-85753858D01*
X99429816Y-85753858D01*
X99429816Y-86291681D01*
X100269767Y-86291681D01*
X100269767Y-85753858D01*
X100269587Y-85741582D01*
X100258901Y-85659423D01*
X100232822Y-85582858D01*
X100192287Y-85512758D01*
X100139156Y-85451986D01*
X100005673Y-85367230D01*
X99849914Y-85337913D01*
X99838374Y-85338072D01*
X99755396Y-85348776D01*
X99678036Y-85375034D01*
X99606723Y-85416052D01*
X99544937Y-85469619D01*
X99459142Y-85602599D01*
X99429816Y-85753858D01*
X98382503Y-85753858D01*
X98394245Y-85569530D01*
X98421743Y-85419000D01*
X98464413Y-85274051D01*
X98522749Y-85132674D01*
X98595069Y-84998977D01*
X98681304Y-84872767D01*
X98779880Y-84756304D01*
X99008993Y-84557347D01*
X99270737Y-84410547D01*
X99554011Y-84320834D01*
X99849914Y-84290599D01*
X100035771Y-84302286D01*
G37*
X110177006Y-115345209D02*
X109843673Y-115345209D01*
X109843673Y-115869019D02*
X109843673Y-114869019D01*
X109843673Y-114869019D02*
X110319863Y-114869019D01*
X110557959Y-114869019D02*
X111129387Y-114869019D01*
X110843673Y-115869019D02*
X110843673Y-114869019D01*
X111462721Y-115869019D02*
X111462721Y-114869019D01*
X111462721Y-114869019D02*
X111700816Y-114869019D01*
X111700816Y-114869019D02*
X111843673Y-114916638D01*
X111843673Y-114916638D02*
X111938911Y-115011876D01*
X111938911Y-115011876D02*
X111986530Y-115107114D01*
X111986530Y-115107114D02*
X112034149Y-115297590D01*
X112034149Y-115297590D02*
X112034149Y-115440447D01*
X112034149Y-115440447D02*
X111986530Y-115630923D01*
X111986530Y-115630923D02*
X111938911Y-115726161D01*
X111938911Y-115726161D02*
X111843673Y-115821400D01*
X111843673Y-115821400D02*
X111700816Y-115869019D01*
X111700816Y-115869019D02*
X111462721Y-115869019D01*
X112462721Y-115869019D02*
X112462721Y-114869019D01*
D13*
X81596924Y-84743786D02*
X81596924Y-83829386D01*
X82554867Y-84743786D02*
X82250067Y-84308358D01*
X82032353Y-84743786D02*
X82032353Y-83829386D01*
X82032353Y-83829386D02*
X82380696Y-83829386D01*
X82380696Y-83829386D02*
X82467781Y-83872929D01*
X82467781Y-83872929D02*
X82511324Y-83916472D01*
X82511324Y-83916472D02*
X82554867Y-84003558D01*
X82554867Y-84003558D02*
X82554867Y-84134186D01*
X82554867Y-84134186D02*
X82511324Y-84221272D01*
X82511324Y-84221272D02*
X82467781Y-84264815D01*
X82467781Y-84264815D02*
X82380696Y-84308358D01*
X82380696Y-84308358D02*
X82032353Y-84308358D01*
X81901724Y-87209081D02*
X82032352Y-87252624D01*
X82032352Y-87252624D02*
X82075895Y-87296167D01*
X82075895Y-87296167D02*
X82119438Y-87383252D01*
X82119438Y-87383252D02*
X82119438Y-87513881D01*
X82119438Y-87513881D02*
X82075895Y-87600967D01*
X82075895Y-87600967D02*
X82032352Y-87644510D01*
X82032352Y-87644510D02*
X81945267Y-87688052D01*
X81945267Y-87688052D02*
X81596924Y-87688052D01*
X81596924Y-87688052D02*
X81596924Y-86773652D01*
X81596924Y-86773652D02*
X81901724Y-86773652D01*
X81901724Y-86773652D02*
X81988810Y-86817195D01*
X81988810Y-86817195D02*
X82032352Y-86860738D01*
X82032352Y-86860738D02*
X82075895Y-86947824D01*
X82075895Y-86947824D02*
X82075895Y-87034910D01*
X82075895Y-87034910D02*
X82032352Y-87121995D01*
X82032352Y-87121995D02*
X81988810Y-87165538D01*
X81988810Y-87165538D02*
X81901724Y-87209081D01*
X81901724Y-87209081D02*
X81596924Y-87209081D01*
X82903210Y-87078452D02*
X82903210Y-87688052D01*
X82511324Y-87078452D02*
X82511324Y-87557424D01*
X82511324Y-87557424D02*
X82554867Y-87644510D01*
X82554867Y-87644510D02*
X82641952Y-87688052D01*
X82641952Y-87688052D02*
X82772581Y-87688052D01*
X82772581Y-87688052D02*
X82859667Y-87644510D01*
X82859667Y-87644510D02*
X82903210Y-87600967D01*
X83251552Y-87078452D02*
X83730524Y-87078452D01*
X83730524Y-87078452D02*
X83251552Y-87688052D01*
X83251552Y-87688052D02*
X83730524Y-87688052D01*
D11*
X103697693Y-118160219D02*
X103126265Y-118160219D01*
X103411979Y-118160219D02*
X103411979Y-117160219D01*
X103411979Y-117160219D02*
X103316741Y-117303076D01*
X103316741Y-117303076D02*
X103221503Y-117398314D01*
X103221503Y-117398314D02*
X103126265Y-117445933D01*
X83168609Y-108585915D02*
X83168609Y-108252582D01*
X83692419Y-108109725D02*
X83692419Y-108585915D01*
X83692419Y-108585915D02*
X82692419Y-108585915D01*
X82692419Y-108585915D02*
X82692419Y-108109725D01*
X83644800Y-107728772D02*
X83692419Y-107585915D01*
X83692419Y-107585915D02*
X83692419Y-107347820D01*
X83692419Y-107347820D02*
X83644800Y-107252582D01*
X83644800Y-107252582D02*
X83597180Y-107204963D01*
X83597180Y-107204963D02*
X83501942Y-107157344D01*
X83501942Y-107157344D02*
X83406704Y-107157344D01*
X83406704Y-107157344D02*
X83311466Y-107204963D01*
X83311466Y-107204963D02*
X83263847Y-107252582D01*
X83263847Y-107252582D02*
X83216228Y-107347820D01*
X83216228Y-107347820D02*
X83168609Y-107538296D01*
X83168609Y-107538296D02*
X83120990Y-107633534D01*
X83120990Y-107633534D02*
X83073371Y-107681153D01*
X83073371Y-107681153D02*
X82978133Y-107728772D01*
X82978133Y-107728772D02*
X82882895Y-107728772D01*
X82882895Y-107728772D02*
X82787657Y-107681153D01*
X82787657Y-107681153D02*
X82740038Y-107633534D01*
X82740038Y-107633534D02*
X82692419Y-107538296D01*
X82692419Y-107538296D02*
X82692419Y-107300201D01*
X82692419Y-107300201D02*
X82740038Y-107157344D01*
X83692419Y-106728772D02*
X82692419Y-106728772D01*
X82692419Y-106728772D02*
X82692419Y-106347820D01*
X82692419Y-106347820D02*
X82740038Y-106252582D01*
X82740038Y-106252582D02*
X82787657Y-106204963D01*
X82787657Y-106204963D02*
X82882895Y-106157344D01*
X82882895Y-106157344D02*
X83025752Y-106157344D01*
X83025752Y-106157344D02*
X83120990Y-106204963D01*
X83120990Y-106204963D02*
X83168609Y-106252582D01*
X83168609Y-106252582D02*
X83216228Y-106347820D01*
X83216228Y-106347820D02*
X83216228Y-106728772D01*
X83120990Y-105585915D02*
X83073371Y-105681153D01*
X83073371Y-105681153D02*
X83025752Y-105728772D01*
X83025752Y-105728772D02*
X82930514Y-105776391D01*
X82930514Y-105776391D02*
X82882895Y-105776391D01*
X82882895Y-105776391D02*
X82787657Y-105728772D01*
X82787657Y-105728772D02*
X82740038Y-105681153D01*
X82740038Y-105681153D02*
X82692419Y-105585915D01*
X82692419Y-105585915D02*
X82692419Y-105395439D01*
X82692419Y-105395439D02*
X82740038Y-105300201D01*
X82740038Y-105300201D02*
X82787657Y-105252582D01*
X82787657Y-105252582D02*
X82882895Y-105204963D01*
X82882895Y-105204963D02*
X82930514Y-105204963D01*
X82930514Y-105204963D02*
X83025752Y-105252582D01*
X83025752Y-105252582D02*
X83073371Y-105300201D01*
X83073371Y-105300201D02*
X83120990Y-105395439D01*
X83120990Y-105395439D02*
X83120990Y-105585915D01*
X83120990Y-105585915D02*
X83168609Y-105681153D01*
X83168609Y-105681153D02*
X83216228Y-105728772D01*
X83216228Y-105728772D02*
X83311466Y-105776391D01*
X83311466Y-105776391D02*
X83501942Y-105776391D01*
X83501942Y-105776391D02*
X83597180Y-105728772D01*
X83597180Y-105728772D02*
X83644800Y-105681153D01*
X83644800Y-105681153D02*
X83692419Y-105585915D01*
X83692419Y-105585915D02*
X83692419Y-105395439D01*
X83692419Y-105395439D02*
X83644800Y-105300201D01*
X83644800Y-105300201D02*
X83597180Y-105252582D01*
X83597180Y-105252582D02*
X83501942Y-105204963D01*
X83501942Y-105204963D02*
X83311466Y-105204963D01*
X83311466Y-105204963D02*
X83216228Y-105252582D01*
X83216228Y-105252582D02*
X83168609Y-105300201D01*
X83168609Y-105300201D02*
X83120990Y-105395439D01*
X82787657Y-104824010D02*
X82740038Y-104776391D01*
X82740038Y-104776391D02*
X82692419Y-104681153D01*
X82692419Y-104681153D02*
X82692419Y-104443058D01*
X82692419Y-104443058D02*
X82740038Y-104347820D01*
X82740038Y-104347820D02*
X82787657Y-104300201D01*
X82787657Y-104300201D02*
X82882895Y-104252582D01*
X82882895Y-104252582D02*
X82978133Y-104252582D01*
X82978133Y-104252582D02*
X83120990Y-104300201D01*
X83120990Y-104300201D02*
X83692419Y-104871629D01*
X83692419Y-104871629D02*
X83692419Y-104252582D01*
X82692419Y-103395439D02*
X82692419Y-103585915D01*
X82692419Y-103585915D02*
X82740038Y-103681153D01*
X82740038Y-103681153D02*
X82787657Y-103728772D01*
X82787657Y-103728772D02*
X82930514Y-103824010D01*
X82930514Y-103824010D02*
X83120990Y-103871629D01*
X83120990Y-103871629D02*
X83501942Y-103871629D01*
X83501942Y-103871629D02*
X83597180Y-103824010D01*
X83597180Y-103824010D02*
X83644800Y-103776391D01*
X83644800Y-103776391D02*
X83692419Y-103681153D01*
X83692419Y-103681153D02*
X83692419Y-103490677D01*
X83692419Y-103490677D02*
X83644800Y-103395439D01*
X83644800Y-103395439D02*
X83597180Y-103347820D01*
X83597180Y-103347820D02*
X83501942Y-103300201D01*
X83501942Y-103300201D02*
X83263847Y-103300201D01*
X83263847Y-103300201D02*
X83168609Y-103347820D01*
X83168609Y-103347820D02*
X83120990Y-103395439D01*
X83120990Y-103395439D02*
X83073371Y-103490677D01*
X83073371Y-103490677D02*
X83073371Y-103681153D01*
X83073371Y-103681153D02*
X83120990Y-103776391D01*
X83120990Y-103776391D02*
X83168609Y-103824010D01*
X83168609Y-103824010D02*
X83263847Y-103871629D01*
X82692419Y-102443058D02*
X82692419Y-102633534D01*
X82692419Y-102633534D02*
X82740038Y-102728772D01*
X82740038Y-102728772D02*
X82787657Y-102776391D01*
X82787657Y-102776391D02*
X82930514Y-102871629D01*
X82930514Y-102871629D02*
X83120990Y-102919248D01*
X83120990Y-102919248D02*
X83501942Y-102919248D01*
X83501942Y-102919248D02*
X83597180Y-102871629D01*
X83597180Y-102871629D02*
X83644800Y-102824010D01*
X83644800Y-102824010D02*
X83692419Y-102728772D01*
X83692419Y-102728772D02*
X83692419Y-102538296D01*
X83692419Y-102538296D02*
X83644800Y-102443058D01*
X83644800Y-102443058D02*
X83597180Y-102395439D01*
X83597180Y-102395439D02*
X83501942Y-102347820D01*
X83501942Y-102347820D02*
X83263847Y-102347820D01*
X83263847Y-102347820D02*
X83168609Y-102395439D01*
X83168609Y-102395439D02*
X83120990Y-102443058D01*
X83120990Y-102443058D02*
X83073371Y-102538296D01*
X83073371Y-102538296D02*
X83073371Y-102728772D01*
X83073371Y-102728772D02*
X83120990Y-102824010D01*
X83120990Y-102824010D02*
X83168609Y-102871629D01*
X83168609Y-102871629D02*
X83263847Y-102919248D01*
D14*
X77649107Y-86144466D02*
X78048250Y-86144466D01*
X78048250Y-86144466D02*
X78128078Y-86171075D01*
X78128078Y-86171075D02*
X78181298Y-86224294D01*
X78181298Y-86224294D02*
X78207907Y-86304123D01*
X78207907Y-86304123D02*
X78207907Y-86357342D01*
X78207907Y-85878371D02*
X77649107Y-85878371D01*
X77649107Y-85878371D02*
X77649107Y-85665495D01*
X77649107Y-85665495D02*
X77675717Y-85612276D01*
X77675717Y-85612276D02*
X77702326Y-85585666D01*
X77702326Y-85585666D02*
X77755545Y-85559057D01*
X77755545Y-85559057D02*
X77835374Y-85559057D01*
X77835374Y-85559057D02*
X77888593Y-85585666D01*
X77888593Y-85585666D02*
X77915202Y-85612276D01*
X77915202Y-85612276D02*
X77941812Y-85665495D01*
X77941812Y-85665495D02*
X77941812Y-85878371D01*
X78207907Y-85026866D02*
X78207907Y-85346180D01*
X78207907Y-85186523D02*
X77649107Y-85186523D01*
X77649107Y-85186523D02*
X77728936Y-85239742D01*
X77728936Y-85239742D02*
X77782155Y-85292961D01*
X77782155Y-85292961D02*
X77808764Y-85346180D01*
D15*
X106660125Y-86498542D02*
X106794812Y-86431199D01*
X106794812Y-86431199D02*
X106963170Y-86262840D01*
X106963170Y-86262840D02*
X106996842Y-86161825D01*
X106996842Y-86161825D02*
X106996842Y-86094481D01*
X106996842Y-86094481D02*
X106963170Y-85993466D01*
X106963170Y-85993466D02*
X106895827Y-85926122D01*
X106895827Y-85926122D02*
X106794812Y-85892451D01*
X106794812Y-85892451D02*
X106727468Y-85892451D01*
X106727468Y-85892451D02*
X106626453Y-85926122D01*
X106626453Y-85926122D02*
X106458094Y-86027138D01*
X106458094Y-86027138D02*
X106357079Y-86060809D01*
X106357079Y-86060809D02*
X106289735Y-86060809D01*
X106289735Y-86060809D02*
X106188720Y-86027138D01*
X106188720Y-86027138D02*
X106121377Y-85959794D01*
X106121377Y-85959794D02*
X106087705Y-85858779D01*
X106087705Y-85858779D02*
X106087705Y-85791435D01*
X106087705Y-85791435D02*
X106121377Y-85690420D01*
X106121377Y-85690420D02*
X106289735Y-85522061D01*
X106289735Y-85522061D02*
X106424422Y-85454718D01*
X106626453Y-85185344D02*
X107501919Y-85724092D01*
X107501919Y-85724092D02*
X107131529Y-85084328D01*
X107131529Y-85084328D02*
X107771293Y-85454718D01*
X107771293Y-85454718D02*
X107232545Y-84579252D01*
X107434575Y-84377222D02*
X107872308Y-83939489D01*
X107872308Y-83939489D02*
X107905979Y-84444565D01*
X107905979Y-84444565D02*
X108006995Y-84343550D01*
X108006995Y-84343550D02*
X108108010Y-84309878D01*
X108108010Y-84309878D02*
X108175353Y-84309878D01*
X108175353Y-84309878D02*
X108276369Y-84343550D01*
X108276369Y-84343550D02*
X108444727Y-84511909D01*
X108444727Y-84511909D02*
X108478399Y-84612924D01*
X108478399Y-84612924D02*
X108478399Y-84680268D01*
X108478399Y-84680268D02*
X108444727Y-84781283D01*
X108444727Y-84781283D02*
X108242697Y-84983313D01*
X108242697Y-84983313D02*
X108141682Y-85016985D01*
X108141682Y-85016985D02*
X108074338Y-85016985D01*
X82026057Y-90814038D02*
X81978438Y-90909276D01*
X81978438Y-90909276D02*
X81883200Y-91004514D01*
X81883200Y-91004514D02*
X81740342Y-91147371D01*
X81740342Y-91147371D02*
X81692723Y-91242609D01*
X81692723Y-91242609D02*
X81692723Y-91337847D01*
X81930819Y-91290228D02*
X81883200Y-91385466D01*
X81883200Y-91385466D02*
X81787961Y-91480704D01*
X81787961Y-91480704D02*
X81597485Y-91528323D01*
X81597485Y-91528323D02*
X81264152Y-91528323D01*
X81264152Y-91528323D02*
X81073676Y-91480704D01*
X81073676Y-91480704D02*
X80978438Y-91385466D01*
X80978438Y-91385466D02*
X80930819Y-91290228D01*
X80930819Y-91290228D02*
X80930819Y-91099752D01*
X80930819Y-91099752D02*
X80978438Y-91004514D01*
X80978438Y-91004514D02*
X81073676Y-90909276D01*
X81073676Y-90909276D02*
X81264152Y-90861657D01*
X81264152Y-90861657D02*
X81597485Y-90861657D01*
X81597485Y-90861657D02*
X81787961Y-90909276D01*
X81787961Y-90909276D02*
X81883200Y-91004514D01*
X81883200Y-91004514D02*
X81930819Y-91099752D01*
X81930819Y-91099752D02*
X81930819Y-91290228D01*
X81930819Y-89909276D02*
X81930819Y-90480704D01*
X81930819Y-90194990D02*
X80930819Y-90194990D01*
X80930819Y-90194990D02*
X81073676Y-90290228D01*
X81073676Y-90290228D02*
X81168914Y-90385466D01*
X81168914Y-90385466D02*
X81216533Y-90480704D01*
X115262333Y-107894419D02*
X114929000Y-107418228D01*
X114690905Y-107894419D02*
X114690905Y-106894419D01*
X114690905Y-106894419D02*
X115071857Y-106894419D01*
X115071857Y-106894419D02*
X115167095Y-106942038D01*
X115167095Y-106942038D02*
X115214714Y-106989657D01*
X115214714Y-106989657D02*
X115262333Y-107084895D01*
X115262333Y-107084895D02*
X115262333Y-107227752D01*
X115262333Y-107227752D02*
X115214714Y-107322990D01*
X115214714Y-107322990D02*
X115167095Y-107370609D01*
X115167095Y-107370609D02*
X115071857Y-107418228D01*
X115071857Y-107418228D02*
X114690905Y-107418228D01*
X115595667Y-106894419D02*
X116262333Y-106894419D01*
X116262333Y-106894419D02*
X115833762Y-107894419D01*
X99433142Y-48003619D02*
X99099809Y-47527428D01*
X98861714Y-48003619D02*
X98861714Y-47003619D01*
X98861714Y-47003619D02*
X99242666Y-47003619D01*
X99242666Y-47003619D02*
X99337904Y-47051238D01*
X99337904Y-47051238D02*
X99385523Y-47098857D01*
X99385523Y-47098857D02*
X99433142Y-47194095D01*
X99433142Y-47194095D02*
X99433142Y-47336952D01*
X99433142Y-47336952D02*
X99385523Y-47432190D01*
X99385523Y-47432190D02*
X99337904Y-47479809D01*
X99337904Y-47479809D02*
X99242666Y-47527428D01*
X99242666Y-47527428D02*
X98861714Y-47527428D01*
X100385523Y-48003619D02*
X99814095Y-48003619D01*
X100099809Y-48003619D02*
X100099809Y-47003619D01*
X100099809Y-47003619D02*
X100004571Y-47146476D01*
X100004571Y-47146476D02*
X99909333Y-47241714D01*
X99909333Y-47241714D02*
X99814095Y-47289333D01*
X101242666Y-47336952D02*
X101242666Y-48003619D01*
X101004571Y-46956000D02*
X100766476Y-47670285D01*
X100766476Y-47670285D02*
X101385523Y-47670285D01*
X105624333Y-101248380D02*
X105576714Y-101296000D01*
X105576714Y-101296000D02*
X105433857Y-101343619D01*
X105433857Y-101343619D02*
X105338619Y-101343619D01*
X105338619Y-101343619D02*
X105195762Y-101296000D01*
X105195762Y-101296000D02*
X105100524Y-101200761D01*
X105100524Y-101200761D02*
X105052905Y-101105523D01*
X105052905Y-101105523D02*
X105005286Y-100915047D01*
X105005286Y-100915047D02*
X105005286Y-100772190D01*
X105005286Y-100772190D02*
X105052905Y-100581714D01*
X105052905Y-100581714D02*
X105100524Y-100486476D01*
X105100524Y-100486476D02*
X105195762Y-100391238D01*
X105195762Y-100391238D02*
X105338619Y-100343619D01*
X105338619Y-100343619D02*
X105433857Y-100343619D01*
X105433857Y-100343619D02*
X105576714Y-100391238D01*
X105576714Y-100391238D02*
X105624333Y-100438857D01*
X106481476Y-100676952D02*
X106481476Y-101343619D01*
X106243381Y-100296000D02*
X106005286Y-101010285D01*
X106005286Y-101010285D02*
X106624333Y-101010285D01*
X69158200Y-59637132D02*
X69205819Y-59494275D01*
X69205819Y-59494275D02*
X69205819Y-59256180D01*
X69205819Y-59256180D02*
X69158200Y-59160942D01*
X69158200Y-59160942D02*
X69110580Y-59113323D01*
X69110580Y-59113323D02*
X69015342Y-59065704D01*
X69015342Y-59065704D02*
X68920104Y-59065704D01*
X68920104Y-59065704D02*
X68824866Y-59113323D01*
X68824866Y-59113323D02*
X68777247Y-59160942D01*
X68777247Y-59160942D02*
X68729628Y-59256180D01*
X68729628Y-59256180D02*
X68682009Y-59446656D01*
X68682009Y-59446656D02*
X68634390Y-59541894D01*
X68634390Y-59541894D02*
X68586771Y-59589513D01*
X68586771Y-59589513D02*
X68491533Y-59637132D01*
X68491533Y-59637132D02*
X68396295Y-59637132D01*
X68396295Y-59637132D02*
X68301057Y-59589513D01*
X68301057Y-59589513D02*
X68253438Y-59541894D01*
X68253438Y-59541894D02*
X68205819Y-59446656D01*
X68205819Y-59446656D02*
X68205819Y-59208561D01*
X68205819Y-59208561D02*
X68253438Y-59065704D01*
X68205819Y-58732370D02*
X69205819Y-58494275D01*
X69205819Y-58494275D02*
X68491533Y-58303799D01*
X68491533Y-58303799D02*
X69205819Y-58113323D01*
X69205819Y-58113323D02*
X68205819Y-57875228D01*
X68205819Y-57018085D02*
X68205819Y-57494275D01*
X68205819Y-57494275D02*
X68682009Y-57541894D01*
X68682009Y-57541894D02*
X68634390Y-57494275D01*
X68634390Y-57494275D02*
X68586771Y-57399037D01*
X68586771Y-57399037D02*
X68586771Y-57160942D01*
X68586771Y-57160942D02*
X68634390Y-57065704D01*
X68634390Y-57065704D02*
X68682009Y-57018085D01*
X68682009Y-57018085D02*
X68777247Y-56970466D01*
X68777247Y-56970466D02*
X69015342Y-56970466D01*
X69015342Y-56970466D02*
X69110580Y-57018085D01*
X69110580Y-57018085D02*
X69158200Y-57065704D01*
X69158200Y-57065704D02*
X69205819Y-57160942D01*
X69205819Y-57160942D02*
X69205819Y-57399037D01*
X69205819Y-57399037D02*
X69158200Y-57494275D01*
X69158200Y-57494275D02*
X69110580Y-57541894D01*
X115262333Y-111019419D02*
X114929000Y-110543228D01*
X114690905Y-111019419D02*
X114690905Y-110019419D01*
X114690905Y-110019419D02*
X115071857Y-110019419D01*
X115071857Y-110019419D02*
X115167095Y-110067038D01*
X115167095Y-110067038D02*
X115214714Y-110114657D01*
X115214714Y-110114657D02*
X115262333Y-110209895D01*
X115262333Y-110209895D02*
X115262333Y-110352752D01*
X115262333Y-110352752D02*
X115214714Y-110447990D01*
X115214714Y-110447990D02*
X115167095Y-110495609D01*
X115167095Y-110495609D02*
X115071857Y-110543228D01*
X115071857Y-110543228D02*
X114690905Y-110543228D01*
X116167095Y-110019419D02*
X115690905Y-110019419D01*
X115690905Y-110019419D02*
X115643286Y-110495609D01*
X115643286Y-110495609D02*
X115690905Y-110447990D01*
X115690905Y-110447990D02*
X115786143Y-110400371D01*
X115786143Y-110400371D02*
X116024238Y-110400371D01*
X116024238Y-110400371D02*
X116119476Y-110447990D01*
X116119476Y-110447990D02*
X116167095Y-110495609D01*
X116167095Y-110495609D02*
X116214714Y-110590847D01*
X116214714Y-110590847D02*
X116214714Y-110828942D01*
X116214714Y-110828942D02*
X116167095Y-110924180D01*
X116167095Y-110924180D02*
X116119476Y-110971800D01*
X116119476Y-110971800D02*
X116024238Y-111019419D01*
X116024238Y-111019419D02*
X115786143Y-111019419D01*
X115786143Y-111019419D02*
X115690905Y-110971800D01*
X115690905Y-110971800D02*
X115643286Y-110924180D01*
X75035579Y-52820353D02*
X75083199Y-52867972D01*
X75083199Y-52867972D02*
X75130818Y-53010829D01*
X75130818Y-53010829D02*
X75130818Y-53106067D01*
X75130818Y-53106067D02*
X75083199Y-53248924D01*
X75083199Y-53248924D02*
X74987960Y-53344162D01*
X74987960Y-53344162D02*
X74892722Y-53391781D01*
X74892722Y-53391781D02*
X74702246Y-53439400D01*
X74702246Y-53439400D02*
X74559389Y-53439400D01*
X74559389Y-53439400D02*
X74368913Y-53391781D01*
X74368913Y-53391781D02*
X74273675Y-53344162D01*
X74273675Y-53344162D02*
X74178437Y-53248924D01*
X74178437Y-53248924D02*
X74130818Y-53106067D01*
X74130818Y-53106067D02*
X74130818Y-53010829D01*
X74130818Y-53010829D02*
X74178437Y-52867972D01*
X74178437Y-52867972D02*
X74226056Y-52820353D01*
X74130818Y-51963210D02*
X74130818Y-52153686D01*
X74130818Y-52153686D02*
X74178437Y-52248924D01*
X74178437Y-52248924D02*
X74226056Y-52296543D01*
X74226056Y-52296543D02*
X74368913Y-52391781D01*
X74368913Y-52391781D02*
X74559389Y-52439400D01*
X74559389Y-52439400D02*
X74940341Y-52439400D01*
X74940341Y-52439400D02*
X75035579Y-52391781D01*
X75035579Y-52391781D02*
X75083199Y-52344162D01*
X75083199Y-52344162D02*
X75130818Y-52248924D01*
X75130818Y-52248924D02*
X75130818Y-52058448D01*
X75130818Y-52058448D02*
X75083199Y-51963210D01*
X75083199Y-51963210D02*
X75035579Y-51915591D01*
X75035579Y-51915591D02*
X74940341Y-51867972D01*
X74940341Y-51867972D02*
X74702246Y-51867972D01*
X74702246Y-51867972D02*
X74607008Y-51915591D01*
X74607008Y-51915591D02*
X74559389Y-51963210D01*
X74559389Y-51963210D02*
X74511770Y-52058448D01*
X74511770Y-52058448D02*
X74511770Y-52248924D01*
X74511770Y-52248924D02*
X74559389Y-52344162D01*
X74559389Y-52344162D02*
X74607008Y-52391781D01*
X74607008Y-52391781D02*
X74702246Y-52439400D01*
X115149333Y-101569419D02*
X114816000Y-101093228D01*
X114577905Y-101569419D02*
X114577905Y-100569419D01*
X114577905Y-100569419D02*
X114958857Y-100569419D01*
X114958857Y-100569419D02*
X115054095Y-100617038D01*
X115054095Y-100617038D02*
X115101714Y-100664657D01*
X115101714Y-100664657D02*
X115149333Y-100759895D01*
X115149333Y-100759895D02*
X115149333Y-100902752D01*
X115149333Y-100902752D02*
X115101714Y-100997990D01*
X115101714Y-100997990D02*
X115054095Y-101045609D01*
X115054095Y-101045609D02*
X114958857Y-101093228D01*
X114958857Y-101093228D02*
X114577905Y-101093228D01*
X115720762Y-100997990D02*
X115625524Y-100950371D01*
X115625524Y-100950371D02*
X115577905Y-100902752D01*
X115577905Y-100902752D02*
X115530286Y-100807514D01*
X115530286Y-100807514D02*
X115530286Y-100759895D01*
X115530286Y-100759895D02*
X115577905Y-100664657D01*
X115577905Y-100664657D02*
X115625524Y-100617038D01*
X115625524Y-100617038D02*
X115720762Y-100569419D01*
X115720762Y-100569419D02*
X115911238Y-100569419D01*
X115911238Y-100569419D02*
X116006476Y-100617038D01*
X116006476Y-100617038D02*
X116054095Y-100664657D01*
X116054095Y-100664657D02*
X116101714Y-100759895D01*
X116101714Y-100759895D02*
X116101714Y-100807514D01*
X116101714Y-100807514D02*
X116054095Y-100902752D01*
X116054095Y-100902752D02*
X116006476Y-100950371D01*
X116006476Y-100950371D02*
X115911238Y-100997990D01*
X115911238Y-100997990D02*
X115720762Y-100997990D01*
X115720762Y-100997990D02*
X115625524Y-101045609D01*
X115625524Y-101045609D02*
X115577905Y-101093228D01*
X115577905Y-101093228D02*
X115530286Y-101188466D01*
X115530286Y-101188466D02*
X115530286Y-101378942D01*
X115530286Y-101378942D02*
X115577905Y-101474180D01*
X115577905Y-101474180D02*
X115625524Y-101521800D01*
X115625524Y-101521800D02*
X115720762Y-101569419D01*
X115720762Y-101569419D02*
X115911238Y-101569419D01*
X115911238Y-101569419D02*
X116006476Y-101521800D01*
X116006476Y-101521800D02*
X116054095Y-101474180D01*
X116054095Y-101474180D02*
X116101714Y-101378942D01*
X116101714Y-101378942D02*
X116101714Y-101188466D01*
X116101714Y-101188466D02*
X116054095Y-101093228D01*
X116054095Y-101093228D02*
X116006476Y-101045609D01*
X116006476Y-101045609D02*
X115911238Y-100997990D01*
X77575580Y-40730465D02*
X77623200Y-40778084D01*
X77623200Y-40778084D02*
X77670819Y-40920941D01*
X77670819Y-40920941D02*
X77670819Y-41016179D01*
X77670819Y-41016179D02*
X77623200Y-41159036D01*
X77623200Y-41159036D02*
X77527961Y-41254274D01*
X77527961Y-41254274D02*
X77432723Y-41301893D01*
X77432723Y-41301893D02*
X77242247Y-41349512D01*
X77242247Y-41349512D02*
X77099390Y-41349512D01*
X77099390Y-41349512D02*
X76908914Y-41301893D01*
X76908914Y-41301893D02*
X76813676Y-41254274D01*
X76813676Y-41254274D02*
X76718438Y-41159036D01*
X76718438Y-41159036D02*
X76670819Y-41016179D01*
X76670819Y-41016179D02*
X76670819Y-40920941D01*
X76670819Y-40920941D02*
X76718438Y-40778084D01*
X76718438Y-40778084D02*
X76766057Y-40730465D01*
X76670819Y-40397131D02*
X76670819Y-39730465D01*
X76670819Y-39730465D02*
X77670819Y-40159036D01*
X72763142Y-102337819D02*
X72429809Y-101861628D01*
X72191714Y-102337819D02*
X72191714Y-101337819D01*
X72191714Y-101337819D02*
X72572666Y-101337819D01*
X72572666Y-101337819D02*
X72667904Y-101385438D01*
X72667904Y-101385438D02*
X72715523Y-101433057D01*
X72715523Y-101433057D02*
X72763142Y-101528295D01*
X72763142Y-101528295D02*
X72763142Y-101671152D01*
X72763142Y-101671152D02*
X72715523Y-101766390D01*
X72715523Y-101766390D02*
X72667904Y-101814009D01*
X72667904Y-101814009D02*
X72572666Y-101861628D01*
X72572666Y-101861628D02*
X72191714Y-101861628D01*
X73715523Y-102337819D02*
X73144095Y-102337819D01*
X73429809Y-102337819D02*
X73429809Y-101337819D01*
X73429809Y-101337819D02*
X73334571Y-101480676D01*
X73334571Y-101480676D02*
X73239333Y-101575914D01*
X73239333Y-101575914D02*
X73144095Y-101623533D01*
X74334571Y-101337819D02*
X74429809Y-101337819D01*
X74429809Y-101337819D02*
X74525047Y-101385438D01*
X74525047Y-101385438D02*
X74572666Y-101433057D01*
X74572666Y-101433057D02*
X74620285Y-101528295D01*
X74620285Y-101528295D02*
X74667904Y-101718771D01*
X74667904Y-101718771D02*
X74667904Y-101956866D01*
X74667904Y-101956866D02*
X74620285Y-102147342D01*
X74620285Y-102147342D02*
X74572666Y-102242580D01*
X74572666Y-102242580D02*
X74525047Y-102290200D01*
X74525047Y-102290200D02*
X74429809Y-102337819D01*
X74429809Y-102337819D02*
X74334571Y-102337819D01*
X74334571Y-102337819D02*
X74239333Y-102290200D01*
X74239333Y-102290200D02*
X74191714Y-102242580D01*
X74191714Y-102242580D02*
X74144095Y-102147342D01*
X74144095Y-102147342D02*
X74096476Y-101956866D01*
X74096476Y-101956866D02*
X74096476Y-101718771D01*
X74096476Y-101718771D02*
X74144095Y-101528295D01*
X74144095Y-101528295D02*
X74191714Y-101433057D01*
X74191714Y-101433057D02*
X74239333Y-101385438D01*
X74239333Y-101385438D02*
X74334571Y-101337819D01*
X72717333Y-48179418D02*
X72384000Y-47703227D01*
X72145905Y-48179418D02*
X72145905Y-47179418D01*
X72145905Y-47179418D02*
X72526857Y-47179418D01*
X72526857Y-47179418D02*
X72622095Y-47227037D01*
X72622095Y-47227037D02*
X72669714Y-47274656D01*
X72669714Y-47274656D02*
X72717333Y-47369894D01*
X72717333Y-47369894D02*
X72717333Y-47512751D01*
X72717333Y-47512751D02*
X72669714Y-47607989D01*
X72669714Y-47607989D02*
X72622095Y-47655608D01*
X72622095Y-47655608D02*
X72526857Y-47703227D01*
X72526857Y-47703227D02*
X72145905Y-47703227D01*
X73574476Y-47179418D02*
X73384000Y-47179418D01*
X73384000Y-47179418D02*
X73288762Y-47227037D01*
X73288762Y-47227037D02*
X73241143Y-47274656D01*
X73241143Y-47274656D02*
X73145905Y-47417513D01*
X73145905Y-47417513D02*
X73098286Y-47607989D01*
X73098286Y-47607989D02*
X73098286Y-47988941D01*
X73098286Y-47988941D02*
X73145905Y-48084179D01*
X73145905Y-48084179D02*
X73193524Y-48131799D01*
X73193524Y-48131799D02*
X73288762Y-48179418D01*
X73288762Y-48179418D02*
X73479238Y-48179418D01*
X73479238Y-48179418D02*
X73574476Y-48131799D01*
X73574476Y-48131799D02*
X73622095Y-48084179D01*
X73622095Y-48084179D02*
X73669714Y-47988941D01*
X73669714Y-47988941D02*
X73669714Y-47750846D01*
X73669714Y-47750846D02*
X73622095Y-47655608D01*
X73622095Y-47655608D02*
X73574476Y-47607989D01*
X73574476Y-47607989D02*
X73479238Y-47560370D01*
X73479238Y-47560370D02*
X73288762Y-47560370D01*
X73288762Y-47560370D02*
X73193524Y-47607989D01*
X73193524Y-47607989D02*
X73145905Y-47655608D01*
X73145905Y-47655608D02*
X73098286Y-47750846D01*
X81002238Y-46511380D02*
X80954619Y-46559000D01*
X80954619Y-46559000D02*
X80811762Y-46606619D01*
X80811762Y-46606619D02*
X80716524Y-46606619D01*
X80716524Y-46606619D02*
X80573667Y-46559000D01*
X80573667Y-46559000D02*
X80478429Y-46463761D01*
X80478429Y-46463761D02*
X80430810Y-46368523D01*
X80430810Y-46368523D02*
X80383191Y-46178047D01*
X80383191Y-46178047D02*
X80383191Y-46035190D01*
X80383191Y-46035190D02*
X80430810Y-45844714D01*
X80430810Y-45844714D02*
X80478429Y-45749476D01*
X80478429Y-45749476D02*
X80573667Y-45654238D01*
X80573667Y-45654238D02*
X80716524Y-45606619D01*
X80716524Y-45606619D02*
X80811762Y-45606619D01*
X80811762Y-45606619D02*
X80954619Y-45654238D01*
X80954619Y-45654238D02*
X81002238Y-45701857D01*
X81430810Y-46606619D02*
X81430810Y-45606619D01*
X82430809Y-46606619D02*
X81859381Y-46606619D01*
X82145095Y-46606619D02*
X82145095Y-45606619D01*
X82145095Y-45606619D02*
X82049857Y-45749476D01*
X82049857Y-45749476D02*
X81954619Y-45844714D01*
X81954619Y-45844714D02*
X81859381Y-45892333D01*
X71055048Y-96559809D02*
X71197905Y-96607428D01*
X71197905Y-96607428D02*
X71245524Y-96655047D01*
X71245524Y-96655047D02*
X71293143Y-96750285D01*
X71293143Y-96750285D02*
X71293143Y-96893142D01*
X71293143Y-96893142D02*
X71245524Y-96988380D01*
X71245524Y-96988380D02*
X71197905Y-97036000D01*
X71197905Y-97036000D02*
X71102667Y-97083619D01*
X71102667Y-97083619D02*
X70721715Y-97083619D01*
X70721715Y-97083619D02*
X70721715Y-96083619D01*
X70721715Y-96083619D02*
X71055048Y-96083619D01*
X71055048Y-96083619D02*
X71150286Y-96131238D01*
X71150286Y-96131238D02*
X71197905Y-96178857D01*
X71197905Y-96178857D02*
X71245524Y-96274095D01*
X71245524Y-96274095D02*
X71245524Y-96369333D01*
X71245524Y-96369333D02*
X71197905Y-96464571D01*
X71197905Y-96464571D02*
X71150286Y-96512190D01*
X71150286Y-96512190D02*
X71055048Y-96559809D01*
X71055048Y-96559809D02*
X70721715Y-96559809D01*
X71626477Y-96083619D02*
X72293143Y-96083619D01*
X72293143Y-96083619D02*
X71626477Y-97083619D01*
X71626477Y-97083619D02*
X72293143Y-97083619D01*
X73197905Y-97083619D02*
X72626477Y-97083619D01*
X72912191Y-97083619D02*
X72912191Y-96083619D01*
X72912191Y-96083619D02*
X72816953Y-96226476D01*
X72816953Y-96226476D02*
X72721715Y-96321714D01*
X72721715Y-96321714D02*
X72626477Y-96369333D01*
X90276238Y-45368380D02*
X90228619Y-45416000D01*
X90228619Y-45416000D02*
X90085762Y-45463619D01*
X90085762Y-45463619D02*
X89990524Y-45463619D01*
X89990524Y-45463619D02*
X89847667Y-45416000D01*
X89847667Y-45416000D02*
X89752429Y-45320761D01*
X89752429Y-45320761D02*
X89704810Y-45225523D01*
X89704810Y-45225523D02*
X89657191Y-45035047D01*
X89657191Y-45035047D02*
X89657191Y-44892190D01*
X89657191Y-44892190D02*
X89704810Y-44701714D01*
X89704810Y-44701714D02*
X89752429Y-44606476D01*
X89752429Y-44606476D02*
X89847667Y-44511238D01*
X89847667Y-44511238D02*
X89990524Y-44463619D01*
X89990524Y-44463619D02*
X90085762Y-44463619D01*
X90085762Y-44463619D02*
X90228619Y-44511238D01*
X90228619Y-44511238D02*
X90276238Y-44558857D01*
X90704810Y-45463619D02*
X90704810Y-44463619D01*
X91133381Y-44558857D02*
X91181000Y-44511238D01*
X91181000Y-44511238D02*
X91276238Y-44463619D01*
X91276238Y-44463619D02*
X91514333Y-44463619D01*
X91514333Y-44463619D02*
X91609571Y-44511238D01*
X91609571Y-44511238D02*
X91657190Y-44558857D01*
X91657190Y-44558857D02*
X91704809Y-44654095D01*
X91704809Y-44654095D02*
X91704809Y-44749333D01*
X91704809Y-44749333D02*
X91657190Y-44892190D01*
X91657190Y-44892190D02*
X91085762Y-45463619D01*
X91085762Y-45463619D02*
X91704809Y-45463619D01*
X91130667Y-110741619D02*
X91130667Y-109741619D01*
X91130667Y-109741619D02*
X91464000Y-110455904D01*
X91464000Y-110455904D02*
X91797333Y-109741619D01*
X91797333Y-109741619D02*
X91797333Y-110741619D01*
X92464000Y-109741619D02*
X92654476Y-109741619D01*
X92654476Y-109741619D02*
X92749714Y-109789238D01*
X92749714Y-109789238D02*
X92844952Y-109884476D01*
X92844952Y-109884476D02*
X92892571Y-110074952D01*
X92892571Y-110074952D02*
X92892571Y-110408285D01*
X92892571Y-110408285D02*
X92844952Y-110598761D01*
X92844952Y-110598761D02*
X92749714Y-110694000D01*
X92749714Y-110694000D02*
X92654476Y-110741619D01*
X92654476Y-110741619D02*
X92464000Y-110741619D01*
X92464000Y-110741619D02*
X92368762Y-110694000D01*
X92368762Y-110694000D02*
X92273524Y-110598761D01*
X92273524Y-110598761D02*
X92225905Y-110408285D01*
X92225905Y-110408285D02*
X92225905Y-110074952D01*
X92225905Y-110074952D02*
X92273524Y-109884476D01*
X92273524Y-109884476D02*
X92368762Y-109789238D01*
X92368762Y-109789238D02*
X92464000Y-109741619D01*
X93321143Y-110741619D02*
X93321143Y-109741619D01*
X93321143Y-109741619D02*
X93559238Y-109741619D01*
X93559238Y-109741619D02*
X93702095Y-109789238D01*
X93702095Y-109789238D02*
X93797333Y-109884476D01*
X93797333Y-109884476D02*
X93844952Y-109979714D01*
X93844952Y-109979714D02*
X93892571Y-110170190D01*
X93892571Y-110170190D02*
X93892571Y-110313047D01*
X93892571Y-110313047D02*
X93844952Y-110503523D01*
X93844952Y-110503523D02*
X93797333Y-110598761D01*
X93797333Y-110598761D02*
X93702095Y-110694000D01*
X93702095Y-110694000D02*
X93559238Y-110741619D01*
X93559238Y-110741619D02*
X93321143Y-110741619D01*
X94844952Y-110741619D02*
X94273524Y-110741619D01*
X94559238Y-110741619D02*
X94559238Y-109741619D01*
X94559238Y-109741619D02*
X94464000Y-109884476D01*
X94464000Y-109884476D02*
X94368762Y-109979714D01*
X94368762Y-109979714D02*
X94273524Y-110027333D01*
X69770666Y-109436819D02*
X69770666Y-110151104D01*
X69770666Y-110151104D02*
X69723047Y-110293961D01*
X69723047Y-110293961D02*
X69627809Y-110389200D01*
X69627809Y-110389200D02*
X69484952Y-110436819D01*
X69484952Y-110436819D02*
X69389714Y-110436819D01*
X70199238Y-109532057D02*
X70246857Y-109484438D01*
X70246857Y-109484438D02*
X70342095Y-109436819D01*
X70342095Y-109436819D02*
X70580190Y-109436819D01*
X70580190Y-109436819D02*
X70675428Y-109484438D01*
X70675428Y-109484438D02*
X70723047Y-109532057D01*
X70723047Y-109532057D02*
X70770666Y-109627295D01*
X70770666Y-109627295D02*
X70770666Y-109722533D01*
X70770666Y-109722533D02*
X70723047Y-109865390D01*
X70723047Y-109865390D02*
X70151619Y-110436819D01*
X70151619Y-110436819D02*
X70770666Y-110436819D01*
X114339257Y-84612925D02*
X114406600Y-84747612D01*
X114406600Y-84747612D02*
X114574959Y-84915970D01*
X114574959Y-84915970D02*
X114675974Y-84949642D01*
X114675974Y-84949642D02*
X114743318Y-84949642D01*
X114743318Y-84949642D02*
X114844333Y-84915970D01*
X114844333Y-84915970D02*
X114911677Y-84848627D01*
X114911677Y-84848627D02*
X114945348Y-84747612D01*
X114945348Y-84747612D02*
X114945348Y-84680268D01*
X114945348Y-84680268D02*
X114911677Y-84579253D01*
X114911677Y-84579253D02*
X114810661Y-84410894D01*
X114810661Y-84410894D02*
X114776990Y-84309879D01*
X114776990Y-84309879D02*
X114776990Y-84242535D01*
X114776990Y-84242535D02*
X114810661Y-84141520D01*
X114810661Y-84141520D02*
X114878005Y-84074177D01*
X114878005Y-84074177D02*
X114979020Y-84040505D01*
X114979020Y-84040505D02*
X115046364Y-84040505D01*
X115046364Y-84040505D02*
X115147379Y-84074177D01*
X115147379Y-84074177D02*
X115315738Y-84242535D01*
X115315738Y-84242535D02*
X115383081Y-84377222D01*
X115652455Y-84579253D02*
X115113707Y-85454719D01*
X115113707Y-85454719D02*
X115753471Y-85084329D01*
X115753471Y-85084329D02*
X115383081Y-85724093D01*
X115383081Y-85724093D02*
X116258547Y-85185345D01*
X116191203Y-86532214D02*
X115787142Y-86128153D01*
X115989173Y-86330184D02*
X116696279Y-85623077D01*
X116696279Y-85623077D02*
X116527921Y-85656749D01*
X116527921Y-85656749D02*
X116393234Y-85656749D01*
X116393234Y-85656749D02*
X116292218Y-85623077D01*
D16*
X116911362Y-83410020D02*
X116691229Y-83095544D01*
X116533991Y-83410020D02*
X116533991Y-82749620D01*
X116533991Y-82749620D02*
X116785572Y-82749620D01*
X116785572Y-82749620D02*
X116848467Y-82781068D01*
X116848467Y-82781068D02*
X116879914Y-82812515D01*
X116879914Y-82812515D02*
X116911362Y-82875411D01*
X116911362Y-82875411D02*
X116911362Y-82969753D01*
X116911362Y-82969753D02*
X116879914Y-83032649D01*
X116879914Y-83032649D02*
X116848467Y-83064096D01*
X116848467Y-83064096D02*
X116785572Y-83095544D01*
X116785572Y-83095544D02*
X116533991Y-83095544D01*
X117445972Y-83378573D02*
X117383076Y-83410020D01*
X117383076Y-83410020D02*
X117257286Y-83410020D01*
X117257286Y-83410020D02*
X117194391Y-83378573D01*
X117194391Y-83378573D02*
X117162943Y-83315677D01*
X117162943Y-83315677D02*
X117162943Y-83064096D01*
X117162943Y-83064096D02*
X117194391Y-83001201D01*
X117194391Y-83001201D02*
X117257286Y-82969753D01*
X117257286Y-82969753D02*
X117383076Y-82969753D01*
X117383076Y-82969753D02*
X117445972Y-83001201D01*
X117445972Y-83001201D02*
X117477419Y-83064096D01*
X117477419Y-83064096D02*
X117477419Y-83126992D01*
X117477419Y-83126992D02*
X117162943Y-83189887D01*
X117729000Y-83378573D02*
X117791895Y-83410020D01*
X117791895Y-83410020D02*
X117917686Y-83410020D01*
X117917686Y-83410020D02*
X117980581Y-83378573D01*
X117980581Y-83378573D02*
X118012029Y-83315677D01*
X118012029Y-83315677D02*
X118012029Y-83284230D01*
X118012029Y-83284230D02*
X117980581Y-83221334D01*
X117980581Y-83221334D02*
X117917686Y-83189887D01*
X117917686Y-83189887D02*
X117823343Y-83189887D01*
X117823343Y-83189887D02*
X117760448Y-83158439D01*
X117760448Y-83158439D02*
X117729000Y-83095544D01*
X117729000Y-83095544D02*
X117729000Y-83064096D01*
X117729000Y-83064096D02*
X117760448Y-83001201D01*
X117760448Y-83001201D02*
X117823343Y-82969753D01*
X117823343Y-82969753D02*
X117917686Y-82969753D01*
X117917686Y-82969753D02*
X117980581Y-83001201D01*
X118546639Y-83378573D02*
X118483743Y-83410020D01*
X118483743Y-83410020D02*
X118357953Y-83410020D01*
X118357953Y-83410020D02*
X118295058Y-83378573D01*
X118295058Y-83378573D02*
X118263610Y-83315677D01*
X118263610Y-83315677D02*
X118263610Y-83064096D01*
X118263610Y-83064096D02*
X118295058Y-83001201D01*
X118295058Y-83001201D02*
X118357953Y-82969753D01*
X118357953Y-82969753D02*
X118483743Y-82969753D01*
X118483743Y-82969753D02*
X118546639Y-83001201D01*
X118546639Y-83001201D02*
X118578086Y-83064096D01*
X118578086Y-83064096D02*
X118578086Y-83126992D01*
X118578086Y-83126992D02*
X118263610Y-83189887D01*
X118766772Y-82969753D02*
X119018353Y-82969753D01*
X118861115Y-82749620D02*
X118861115Y-83315677D01*
X118861115Y-83315677D02*
X118892562Y-83378573D01*
X118892562Y-83378573D02*
X118955457Y-83410020D01*
X118955457Y-83410020D02*
X119018353Y-83410020D01*
D15*
X106211257Y-92994925D02*
X106278600Y-93129612D01*
X106278600Y-93129612D02*
X106446959Y-93297970D01*
X106446959Y-93297970D02*
X106547974Y-93331642D01*
X106547974Y-93331642D02*
X106615318Y-93331642D01*
X106615318Y-93331642D02*
X106716333Y-93297970D01*
X106716333Y-93297970D02*
X106783677Y-93230627D01*
X106783677Y-93230627D02*
X106817348Y-93129612D01*
X106817348Y-93129612D02*
X106817348Y-93062268D01*
X106817348Y-93062268D02*
X106783677Y-92961253D01*
X106783677Y-92961253D02*
X106682661Y-92792894D01*
X106682661Y-92792894D02*
X106648990Y-92691879D01*
X106648990Y-92691879D02*
X106648990Y-92624535D01*
X106648990Y-92624535D02*
X106682661Y-92523520D01*
X106682661Y-92523520D02*
X106750005Y-92456177D01*
X106750005Y-92456177D02*
X106851020Y-92422505D01*
X106851020Y-92422505D02*
X106918364Y-92422505D01*
X106918364Y-92422505D02*
X107019379Y-92456177D01*
X107019379Y-92456177D02*
X107187738Y-92624535D01*
X107187738Y-92624535D02*
X107255081Y-92759222D01*
X107524455Y-92961253D02*
X106985707Y-93836719D01*
X106985707Y-93836719D02*
X107625471Y-93466329D01*
X107625471Y-93466329D02*
X107255081Y-94106093D01*
X107255081Y-94106093D02*
X108130547Y-93567345D01*
X108467264Y-94375466D02*
X107995860Y-94846871D01*
X108568279Y-93937734D02*
X107894844Y-94274451D01*
X107894844Y-94274451D02*
X108332577Y-94712184D01*
X73239333Y-99438619D02*
X72906000Y-98962428D01*
X72667905Y-99438619D02*
X72667905Y-98438619D01*
X72667905Y-98438619D02*
X73048857Y-98438619D01*
X73048857Y-98438619D02*
X73144095Y-98486238D01*
X73144095Y-98486238D02*
X73191714Y-98533857D01*
X73191714Y-98533857D02*
X73239333Y-98629095D01*
X73239333Y-98629095D02*
X73239333Y-98771952D01*
X73239333Y-98771952D02*
X73191714Y-98867190D01*
X73191714Y-98867190D02*
X73144095Y-98914809D01*
X73144095Y-98914809D02*
X73048857Y-98962428D01*
X73048857Y-98962428D02*
X72667905Y-98962428D01*
X73715524Y-99438619D02*
X73906000Y-99438619D01*
X73906000Y-99438619D02*
X74001238Y-99391000D01*
X74001238Y-99391000D02*
X74048857Y-99343380D01*
X74048857Y-99343380D02*
X74144095Y-99200523D01*
X74144095Y-99200523D02*
X74191714Y-99010047D01*
X74191714Y-99010047D02*
X74191714Y-98629095D01*
X74191714Y-98629095D02*
X74144095Y-98533857D01*
X74144095Y-98533857D02*
X74096476Y-98486238D01*
X74096476Y-98486238D02*
X74001238Y-98438619D01*
X74001238Y-98438619D02*
X73810762Y-98438619D01*
X73810762Y-98438619D02*
X73715524Y-98486238D01*
X73715524Y-98486238D02*
X73667905Y-98533857D01*
X73667905Y-98533857D02*
X73620286Y-98629095D01*
X73620286Y-98629095D02*
X73620286Y-98867190D01*
X73620286Y-98867190D02*
X73667905Y-98962428D01*
X73667905Y-98962428D02*
X73715524Y-99010047D01*
X73715524Y-99010047D02*
X73810762Y-99057666D01*
X73810762Y-99057666D02*
X74001238Y-99057666D01*
X74001238Y-99057666D02*
X74096476Y-99010047D01*
X74096476Y-99010047D02*
X74144095Y-98962428D01*
X74144095Y-98962428D02*
X74191714Y-98867190D01*
X115149333Y-114144419D02*
X114816000Y-113668228D01*
X114577905Y-114144419D02*
X114577905Y-113144419D01*
X114577905Y-113144419D02*
X114958857Y-113144419D01*
X114958857Y-113144419D02*
X115054095Y-113192038D01*
X115054095Y-113192038D02*
X115101714Y-113239657D01*
X115101714Y-113239657D02*
X115149333Y-113334895D01*
X115149333Y-113334895D02*
X115149333Y-113477752D01*
X115149333Y-113477752D02*
X115101714Y-113572990D01*
X115101714Y-113572990D02*
X115054095Y-113620609D01*
X115054095Y-113620609D02*
X114958857Y-113668228D01*
X114958857Y-113668228D02*
X114577905Y-113668228D01*
X115482667Y-113144419D02*
X116101714Y-113144419D01*
X116101714Y-113144419D02*
X115768381Y-113525371D01*
X115768381Y-113525371D02*
X115911238Y-113525371D01*
X115911238Y-113525371D02*
X116006476Y-113572990D01*
X116006476Y-113572990D02*
X116054095Y-113620609D01*
X116054095Y-113620609D02*
X116101714Y-113715847D01*
X116101714Y-113715847D02*
X116101714Y-113953942D01*
X116101714Y-113953942D02*
X116054095Y-114049180D01*
X116054095Y-114049180D02*
X116006476Y-114096800D01*
X116006476Y-114096800D02*
X115911238Y-114144419D01*
X115911238Y-114144419D02*
X115625524Y-114144419D01*
X115625524Y-114144419D02*
X115530286Y-114096800D01*
X115530286Y-114096800D02*
X115482667Y-114049180D01*
X105624333Y-113948380D02*
X105576714Y-113996000D01*
X105576714Y-113996000D02*
X105433857Y-114043619D01*
X105433857Y-114043619D02*
X105338619Y-114043619D01*
X105338619Y-114043619D02*
X105195762Y-113996000D01*
X105195762Y-113996000D02*
X105100524Y-113900761D01*
X105100524Y-113900761D02*
X105052905Y-113805523D01*
X105052905Y-113805523D02*
X105005286Y-113615047D01*
X105005286Y-113615047D02*
X105005286Y-113472190D01*
X105005286Y-113472190D02*
X105052905Y-113281714D01*
X105052905Y-113281714D02*
X105100524Y-113186476D01*
X105100524Y-113186476D02*
X105195762Y-113091238D01*
X105195762Y-113091238D02*
X105338619Y-113043619D01*
X105338619Y-113043619D02*
X105433857Y-113043619D01*
X105433857Y-113043619D02*
X105576714Y-113091238D01*
X105576714Y-113091238D02*
X105624333Y-113138857D01*
X106529095Y-113043619D02*
X106052905Y-113043619D01*
X106052905Y-113043619D02*
X106005286Y-113519809D01*
X106005286Y-113519809D02*
X106052905Y-113472190D01*
X106052905Y-113472190D02*
X106148143Y-113424571D01*
X106148143Y-113424571D02*
X106386238Y-113424571D01*
X106386238Y-113424571D02*
X106481476Y-113472190D01*
X106481476Y-113472190D02*
X106529095Y-113519809D01*
X106529095Y-113519809D02*
X106576714Y-113615047D01*
X106576714Y-113615047D02*
X106576714Y-113853142D01*
X106576714Y-113853142D02*
X106529095Y-113948380D01*
X106529095Y-113948380D02*
X106481476Y-113996000D01*
X106481476Y-113996000D02*
X106386238Y-114043619D01*
X106386238Y-114043619D02*
X106148143Y-114043619D01*
X106148143Y-114043619D02*
X106052905Y-113996000D01*
X106052905Y-113996000D02*
X106005286Y-113948380D01*
X107323887Y-48193211D02*
X107256543Y-48193211D01*
X107256543Y-48193211D02*
X107121856Y-48125867D01*
X107121856Y-48125867D02*
X107054513Y-48058524D01*
X107054513Y-48058524D02*
X106987169Y-47923837D01*
X106987169Y-47923837D02*
X106987169Y-47789150D01*
X106987169Y-47789150D02*
X107020841Y-47688135D01*
X107020841Y-47688135D02*
X107121856Y-47519776D01*
X107121856Y-47519776D02*
X107222871Y-47418761D01*
X107222871Y-47418761D02*
X107391230Y-47317745D01*
X107391230Y-47317745D02*
X107492245Y-47284074D01*
X107492245Y-47284074D02*
X107626932Y-47284074D01*
X107626932Y-47284074D02*
X107761619Y-47351417D01*
X107761619Y-47351417D02*
X107828963Y-47418761D01*
X107828963Y-47418761D02*
X107896306Y-47553448D01*
X107896306Y-47553448D02*
X107896306Y-47620791D01*
X107929978Y-48933989D02*
X107525917Y-48529928D01*
X107727948Y-48731959D02*
X108435054Y-48024852D01*
X108435054Y-48024852D02*
X108266696Y-48058524D01*
X108266696Y-48058524D02*
X108132009Y-48058524D01*
X108132009Y-48058524D02*
X108030993Y-48024852D01*
X99433142Y-50543619D02*
X99099809Y-50067428D01*
X98861714Y-50543619D02*
X98861714Y-49543619D01*
X98861714Y-49543619D02*
X99242666Y-49543619D01*
X99242666Y-49543619D02*
X99337904Y-49591238D01*
X99337904Y-49591238D02*
X99385523Y-49638857D01*
X99385523Y-49638857D02*
X99433142Y-49734095D01*
X99433142Y-49734095D02*
X99433142Y-49876952D01*
X99433142Y-49876952D02*
X99385523Y-49972190D01*
X99385523Y-49972190D02*
X99337904Y-50019809D01*
X99337904Y-50019809D02*
X99242666Y-50067428D01*
X99242666Y-50067428D02*
X98861714Y-50067428D01*
X100385523Y-50543619D02*
X99814095Y-50543619D01*
X100099809Y-50543619D02*
X100099809Y-49543619D01*
X100099809Y-49543619D02*
X100004571Y-49686476D01*
X100004571Y-49686476D02*
X99909333Y-49781714D01*
X99909333Y-49781714D02*
X99814095Y-49829333D01*
X101337904Y-50543619D02*
X100766476Y-50543619D01*
X101052190Y-50543619D02*
X101052190Y-49543619D01*
X101052190Y-49543619D02*
X100956952Y-49686476D01*
X100956952Y-49686476D02*
X100861714Y-49781714D01*
X100861714Y-49781714D02*
X100766476Y-49829333D01*
X99433142Y-45463619D02*
X99099809Y-44987428D01*
X98861714Y-45463619D02*
X98861714Y-44463619D01*
X98861714Y-44463619D02*
X99242666Y-44463619D01*
X99242666Y-44463619D02*
X99337904Y-44511238D01*
X99337904Y-44511238D02*
X99385523Y-44558857D01*
X99385523Y-44558857D02*
X99433142Y-44654095D01*
X99433142Y-44654095D02*
X99433142Y-44796952D01*
X99433142Y-44796952D02*
X99385523Y-44892190D01*
X99385523Y-44892190D02*
X99337904Y-44939809D01*
X99337904Y-44939809D02*
X99242666Y-44987428D01*
X99242666Y-44987428D02*
X98861714Y-44987428D01*
X100385523Y-45463619D02*
X99814095Y-45463619D01*
X100099809Y-45463619D02*
X100099809Y-44463619D01*
X100099809Y-44463619D02*
X100004571Y-44606476D01*
X100004571Y-44606476D02*
X99909333Y-44701714D01*
X99909333Y-44701714D02*
X99814095Y-44749333D01*
X101290285Y-44463619D02*
X100814095Y-44463619D01*
X100814095Y-44463619D02*
X100766476Y-44939809D01*
X100766476Y-44939809D02*
X100814095Y-44892190D01*
X100814095Y-44892190D02*
X100909333Y-44844571D01*
X100909333Y-44844571D02*
X101147428Y-44844571D01*
X101147428Y-44844571D02*
X101242666Y-44892190D01*
X101242666Y-44892190D02*
X101290285Y-44939809D01*
X101290285Y-44939809D02*
X101337904Y-45035047D01*
X101337904Y-45035047D02*
X101337904Y-45273142D01*
X101337904Y-45273142D02*
X101290285Y-45368380D01*
X101290285Y-45368380D02*
X101242666Y-45416000D01*
X101242666Y-45416000D02*
X101147428Y-45463619D01*
X101147428Y-45463619D02*
X100909333Y-45463619D01*
X100909333Y-45463619D02*
X100814095Y-45416000D01*
X100814095Y-45416000D02*
X100766476Y-45368380D01*
X115149333Y-104644419D02*
X114816000Y-104168228D01*
X114577905Y-104644419D02*
X114577905Y-103644419D01*
X114577905Y-103644419D02*
X114958857Y-103644419D01*
X114958857Y-103644419D02*
X115054095Y-103692038D01*
X115054095Y-103692038D02*
X115101714Y-103739657D01*
X115101714Y-103739657D02*
X115149333Y-103834895D01*
X115149333Y-103834895D02*
X115149333Y-103977752D01*
X115149333Y-103977752D02*
X115101714Y-104072990D01*
X115101714Y-104072990D02*
X115054095Y-104120609D01*
X115054095Y-104120609D02*
X114958857Y-104168228D01*
X114958857Y-104168228D02*
X114577905Y-104168228D01*
X116006476Y-103977752D02*
X116006476Y-104644419D01*
X115768381Y-103596800D02*
X115530286Y-104311085D01*
X115530286Y-104311085D02*
X116149333Y-104311085D01*
X115169125Y-94626542D02*
X115303812Y-94559199D01*
X115303812Y-94559199D02*
X115472170Y-94390840D01*
X115472170Y-94390840D02*
X115505842Y-94289825D01*
X115505842Y-94289825D02*
X115505842Y-94222481D01*
X115505842Y-94222481D02*
X115472170Y-94121466D01*
X115472170Y-94121466D02*
X115404827Y-94054122D01*
X115404827Y-94054122D02*
X115303812Y-94020451D01*
X115303812Y-94020451D02*
X115236468Y-94020451D01*
X115236468Y-94020451D02*
X115135453Y-94054122D01*
X115135453Y-94054122D02*
X114967094Y-94155138D01*
X114967094Y-94155138D02*
X114866079Y-94188809D01*
X114866079Y-94188809D02*
X114798735Y-94188809D01*
X114798735Y-94188809D02*
X114697720Y-94155138D01*
X114697720Y-94155138D02*
X114630377Y-94087794D01*
X114630377Y-94087794D02*
X114596705Y-93986779D01*
X114596705Y-93986779D02*
X114596705Y-93919435D01*
X114596705Y-93919435D02*
X114630377Y-93818420D01*
X114630377Y-93818420D02*
X114798735Y-93650061D01*
X114798735Y-93650061D02*
X114933422Y-93582718D01*
X115135453Y-93313344D02*
X116010919Y-93852092D01*
X116010919Y-93852092D02*
X115640529Y-93212328D01*
X115640529Y-93212328D02*
X116280293Y-93582718D01*
X116280293Y-93582718D02*
X115741545Y-92707252D01*
X116044590Y-92538894D02*
X116044590Y-92471550D01*
X116044590Y-92471550D02*
X116078262Y-92370535D01*
X116078262Y-92370535D02*
X116246621Y-92202176D01*
X116246621Y-92202176D02*
X116347636Y-92168504D01*
X116347636Y-92168504D02*
X116414979Y-92168504D01*
X116414979Y-92168504D02*
X116515995Y-92202176D01*
X116515995Y-92202176D02*
X116583338Y-92269520D01*
X116583338Y-92269520D02*
X116650682Y-92404207D01*
X116650682Y-92404207D02*
X116650682Y-93212329D01*
X116650682Y-93212329D02*
X117088414Y-92774596D01*
X68934333Y-38478619D02*
X68458143Y-38478619D01*
X68458143Y-38478619D02*
X68458143Y-37478619D01*
X69267667Y-38478619D02*
X69267667Y-37478619D01*
X69267667Y-37478619D02*
X69505762Y-37478619D01*
X69505762Y-37478619D02*
X69648619Y-37526238D01*
X69648619Y-37526238D02*
X69743857Y-37621476D01*
X69743857Y-37621476D02*
X69791476Y-37716714D01*
X69791476Y-37716714D02*
X69839095Y-37907190D01*
X69839095Y-37907190D02*
X69839095Y-38050047D01*
X69839095Y-38050047D02*
X69791476Y-38240523D01*
X69791476Y-38240523D02*
X69743857Y-38335761D01*
X69743857Y-38335761D02*
X69648619Y-38431000D01*
X69648619Y-38431000D02*
X69505762Y-38478619D01*
X69505762Y-38478619D02*
X69267667Y-38478619D01*
X70791476Y-38478619D02*
X70220048Y-38478619D01*
X70505762Y-38478619D02*
X70505762Y-37478619D01*
X70505762Y-37478619D02*
X70410524Y-37621476D01*
X70410524Y-37621476D02*
X70315286Y-37716714D01*
X70315286Y-37716714D02*
X70220048Y-37764333D01*
D17*
%TO.C,OLED1*%
X88469000Y-53831800D02*
X88469000Y-52501800D01*
X89799000Y-53831800D02*
X88469000Y-53831800D01*
X91069001Y-51171800D02*
X98749000Y-51171800D01*
X91069001Y-53831800D02*
X91069001Y-51171800D01*
X91069001Y-53831800D02*
X98749000Y-53831800D01*
X98749000Y-53831800D02*
X98749000Y-51171800D01*
%TO.C,JP1*%
X78756000Y-83628800D02*
X80756000Y-83628800D01*
X78756000Y-87728800D02*
X78756000Y-83628800D01*
X80756000Y-83628800D02*
X80756000Y-87728800D01*
X80756000Y-87728800D02*
X78756000Y-87728800D01*
X80956000Y-86978800D02*
X81256000Y-86678800D01*
X80956000Y-86978800D02*
X81256000Y-87278800D01*
X81256000Y-87278800D02*
X81256000Y-86678800D01*
%TO.C,SW3*%
X103752390Y-86304831D02*
X108079883Y-81977338D01*
X106368685Y-88921126D02*
X103752390Y-86304831D01*
X108079883Y-81977338D02*
X110696178Y-84593633D01*
X110696178Y-84593633D02*
X106368685Y-88921126D01*
%TO.C,Q1*%
X78056000Y-88778800D02*
X78056000Y-92628800D01*
X78056000Y-88778800D02*
G75*
G02*
X78065878Y-92667411I1700000J-1940000D01*
G01*
%TO.C,R7*%
X112446000Y-107238800D02*
X113396000Y-107238800D01*
X113396000Y-106318800D02*
X113396000Y-108158800D01*
X113396000Y-108158800D02*
X117236000Y-108158800D01*
X117236000Y-106318800D02*
X113396000Y-106318800D01*
X117236000Y-108158800D02*
X117236000Y-106318800D01*
X118186000Y-107238800D02*
X117236000Y-107238800D01*
%TO.C,R14*%
X97205999Y-47548800D02*
X98156000Y-47548800D01*
X98156000Y-46628800D02*
X98156000Y-48468800D01*
X98156000Y-48468800D02*
X101996000Y-48468800D01*
X101996000Y-46628800D02*
X98156000Y-46628800D01*
X101996000Y-48468800D02*
X101996000Y-46628800D01*
X102946000Y-47548800D02*
X101996000Y-47548800D01*
%TO.C,C4*%
X103521000Y-99833800D02*
X103521000Y-99818800D01*
X103521000Y-101958800D02*
X103521000Y-101943800D01*
X108061000Y-99818800D02*
X103521000Y-99818800D01*
X108061000Y-99833800D02*
X108061000Y-99818800D01*
X108061000Y-101958800D02*
X103521000Y-101958800D01*
X108061000Y-101958800D02*
X108061000Y-101943800D01*
%TO.C,SW5*%
X68351000Y-53703800D02*
X70651000Y-53703800D01*
X70651000Y-53703800D02*
X70651000Y-54903800D01*
X70651000Y-57403800D02*
X70651000Y-56703800D01*
X70651000Y-59903800D02*
X70651000Y-59203800D01*
X70651000Y-61703800D02*
X70651000Y-62903800D01*
X70651000Y-62903800D02*
X68351000Y-62903800D01*
%TO.C,R5*%
X112446000Y-110413800D02*
X113396000Y-110413800D01*
X113396000Y-109493800D02*
X113396000Y-111333800D01*
X113396000Y-111333800D02*
X117236000Y-111333800D01*
X117236000Y-109493800D02*
X113396000Y-109493800D01*
X117236000Y-111333800D02*
X117236000Y-109493800D01*
X118186000Y-110413800D02*
X117236000Y-110413800D01*
%TO.C,C6*%
X73366000Y-51298800D02*
X78526000Y-51298800D01*
X73366000Y-51338800D02*
X78526000Y-51338800D01*
X73367001Y-51258800D02*
X78524999Y-51258800D01*
X73368000Y-51218800D02*
X78524000Y-51218800D01*
X73369999Y-51178800D02*
X78522001Y-51178800D01*
X73373000Y-51138800D02*
X78519000Y-51138800D01*
X73377000Y-51098800D02*
X74906000Y-51098800D01*
X73381000Y-51058801D02*
X74906000Y-51058801D01*
X73385000Y-51018800D02*
X74906000Y-51018800D01*
X73390000Y-50978800D02*
X74906000Y-50978800D01*
X73396000Y-50938800D02*
X74906000Y-50938800D01*
X73403000Y-50898800D02*
X74905999Y-50898800D01*
X73410000Y-50858800D02*
X74906000Y-50858800D01*
X73418000Y-50818800D02*
X74906000Y-50818800D01*
X73426000Y-50778800D02*
X74906000Y-50778800D01*
X73434999Y-50738800D02*
X74905999Y-50738800D01*
X73445000Y-50698800D02*
X74906000Y-50698800D01*
X73455000Y-50658800D02*
X74906000Y-50658800D01*
X73466000Y-50617800D02*
X74905999Y-50617800D01*
X73478000Y-50577800D02*
X74906000Y-50577800D01*
X73491000Y-50537800D02*
X74906000Y-50537800D01*
X73504000Y-50497800D02*
X74906000Y-50497800D01*
X73518000Y-50457800D02*
X74905999Y-50457800D01*
X73532000Y-50417800D02*
X74906000Y-50417800D01*
X73548000Y-50377800D02*
X74906000Y-50377800D01*
X73564000Y-50337800D02*
X74906000Y-50337801D01*
X73581000Y-50297800D02*
X74906000Y-50297799D01*
X73598000Y-50257800D02*
X74906000Y-50257800D01*
X73617000Y-50217800D02*
X74906000Y-50217800D01*
X73636000Y-50177800D02*
X74905999Y-50177800D01*
X73656000Y-50137800D02*
X74906000Y-50137800D01*
X73678000Y-50097800D02*
X74906000Y-50097800D01*
X73699000Y-50057800D02*
X74906000Y-50057800D01*
X73722000Y-50017800D02*
X74905999Y-50017800D01*
X73746000Y-49977800D02*
X74906000Y-49977800D01*
X73771000Y-49937800D02*
X74906000Y-49937800D01*
X73797000Y-49897800D02*
X74906000Y-49897800D01*
X73824000Y-49857800D02*
X74906000Y-49857799D01*
X73851000Y-49817800D02*
X74906000Y-49817800D01*
X73881000Y-49777800D02*
X74906000Y-49777800D01*
X73911000Y-49737800D02*
X74906000Y-49737801D01*
X73942000Y-49697800D02*
X74906000Y-49697800D01*
X73975001Y-49657800D02*
X74906000Y-49657800D01*
X74009000Y-49617800D02*
X74906000Y-49617800D01*
X74045000Y-49577799D02*
X74905999Y-49577800D01*
X74082000Y-49537800D02*
X74906000Y-49537800D01*
X74120000Y-49497800D02*
X74906000Y-49497800D01*
X74161000Y-49457800D02*
X74906000Y-49457800D01*
X74202999Y-49417800D02*
X74906000Y-49417799D01*
X74221000Y-53893575D02*
X74721000Y-53893575D01*
X74247000Y-49377801D02*
X74906000Y-49377800D01*
X74293000Y-49337799D02*
X74906000Y-49337800D01*
X74341000Y-49297800D02*
X74906000Y-49297801D01*
X74392000Y-49257800D02*
X74906000Y-49257800D01*
X74446000Y-49217800D02*
X74906000Y-49217800D01*
X74471000Y-54143574D02*
X74471000Y-53643575D01*
X74503000Y-49177800D02*
X74906000Y-49177800D01*
X74563000Y-49137800D02*
X74905999Y-49137800D01*
X74627000Y-49097800D02*
X74906000Y-49097800D01*
X74694999Y-49057800D02*
X74906000Y-49057800D01*
X74768000Y-49017800D02*
X77124000Y-49017800D01*
X74848000Y-48977800D02*
X77044000Y-48977800D01*
X74935000Y-48937800D02*
X76957000Y-48937800D01*
X75031000Y-48897800D02*
X76861000Y-48897800D01*
X75141000Y-48857801D02*
X76751000Y-48857801D01*
X75269000Y-48817800D02*
X76623000Y-48817800D01*
X75428000Y-48777800D02*
X76464000Y-48777800D01*
X75662000Y-48737800D02*
X76230000Y-48737800D01*
X76986000Y-49057800D02*
X77197001Y-49057800D01*
X76986000Y-49097800D02*
X77265000Y-49097800D01*
X76986000Y-49177800D02*
X77389000Y-49177800D01*
X76986000Y-49217800D02*
X77446000Y-49217800D01*
X76986000Y-49257800D02*
X77500000Y-49257800D01*
X76986000Y-49297801D02*
X77551000Y-49297800D01*
X76986000Y-49337800D02*
X77599000Y-49337799D01*
X76986000Y-49377800D02*
X77645000Y-49377801D01*
X76986000Y-49417799D02*
X77689001Y-49417800D01*
X76986000Y-49457800D02*
X77731000Y-49457800D01*
X76986000Y-49497800D02*
X77772000Y-49497800D01*
X76986000Y-49537800D02*
X77810000Y-49537800D01*
X76986000Y-49617800D02*
X77883000Y-49617800D01*
X76986000Y-49657800D02*
X77916999Y-49657800D01*
X76986000Y-49697800D02*
X77950000Y-49697800D01*
X76986000Y-49737801D02*
X77981000Y-49737800D01*
X76986000Y-49777800D02*
X78011000Y-49777800D01*
X76986000Y-49817800D02*
X78041000Y-49817800D01*
X76986000Y-49857799D02*
X78068000Y-49857800D01*
X76986000Y-49897800D02*
X78095000Y-49897800D01*
X76986000Y-49937800D02*
X78121000Y-49937800D01*
X76986000Y-49977800D02*
X78146000Y-49977800D01*
X76986000Y-50057800D02*
X78193000Y-50057800D01*
X76986000Y-50097800D02*
X78214000Y-50097800D01*
X76986000Y-50137800D02*
X78236000Y-50137800D01*
X76986000Y-50217800D02*
X78275000Y-50217800D01*
X76986000Y-50257800D02*
X78294000Y-50257800D01*
X76986000Y-50297799D02*
X78311000Y-50297800D01*
X76986000Y-50337801D02*
X78328000Y-50337800D01*
X76986000Y-50377800D02*
X78344000Y-50377800D01*
X76986000Y-50417800D02*
X78360000Y-50417800D01*
X76986000Y-50497800D02*
X78388000Y-50497800D01*
X76986000Y-50537800D02*
X78401000Y-50537800D01*
X76986000Y-50577800D02*
X78414000Y-50577800D01*
X76986000Y-50658800D02*
X78437000Y-50658800D01*
X76986000Y-50698800D02*
X78447000Y-50698800D01*
X76986000Y-50778800D02*
X78466000Y-50778800D01*
X76986000Y-50818800D02*
X78474000Y-50818800D01*
X76986000Y-50858800D02*
X78482000Y-50858800D01*
X76986000Y-50938800D02*
X78496000Y-50938800D01*
X76986000Y-50978800D02*
X78502000Y-50978800D01*
X76986000Y-51018800D02*
X78507000Y-51018800D01*
X76986000Y-51058801D02*
X78511000Y-51058801D01*
X76986000Y-51098800D02*
X78515000Y-51098800D01*
X76986001Y-49137800D02*
X77329000Y-49137800D01*
X76986001Y-49577800D02*
X77847000Y-49577799D01*
X76986001Y-50017800D02*
X78170000Y-50017800D01*
X76986001Y-50177800D02*
X78256000Y-50177800D01*
X76986001Y-50457800D02*
X78374000Y-50457800D01*
X76986001Y-50617800D02*
X78426000Y-50617800D01*
X76986001Y-50738800D02*
X78457001Y-50738800D01*
X76986001Y-50898800D02*
X78489000Y-50898800D01*
X78566001Y-51338801D02*
G75*
G02*
X73325999Y-51338801I-2620001J0D01*
G01*
X73325999Y-51338801D02*
G75*
G02*
X78566001Y-51338801I2620001J0D01*
G01*
%TO.C,R8*%
X112446000Y-100888800D02*
X113396000Y-100888800D01*
X113396000Y-99968800D02*
X113396000Y-101808800D01*
X113396000Y-101808800D02*
X117236000Y-101808800D01*
X117236000Y-99968800D02*
X113396000Y-99968800D01*
X117236000Y-101808800D02*
X117236000Y-99968800D01*
X118186000Y-100888800D02*
X117236000Y-100888800D01*
%TO.C,C7*%
X74905999Y-42318687D02*
X73403000Y-42318687D01*
X74905999Y-42478687D02*
X73434999Y-42478687D01*
X74905999Y-42599687D02*
X73466000Y-42599687D01*
X74905999Y-42759687D02*
X73518000Y-42759687D01*
X74905999Y-43039687D02*
X73636000Y-43039687D01*
X74905999Y-43199687D02*
X73722000Y-43199687D01*
X74905999Y-43639687D02*
X74045000Y-43639688D01*
X74905999Y-44079687D02*
X74563000Y-44079687D01*
X74906000Y-42118687D02*
X73377000Y-42118687D01*
X74906000Y-42158686D02*
X73381000Y-42158686D01*
X74906000Y-42198687D02*
X73385000Y-42198687D01*
X74906000Y-42238687D02*
X73390000Y-42238687D01*
X74906000Y-42278687D02*
X73396000Y-42278687D01*
X74906000Y-42358687D02*
X73410000Y-42358687D01*
X74906000Y-42398687D02*
X73418000Y-42398687D01*
X74906000Y-42438687D02*
X73426000Y-42438687D01*
X74906000Y-42518687D02*
X73445000Y-42518687D01*
X74906000Y-42558687D02*
X73455000Y-42558687D01*
X74906000Y-42639687D02*
X73478000Y-42639687D01*
X74906000Y-42679687D02*
X73491000Y-42679687D01*
X74906000Y-42719687D02*
X73504000Y-42719687D01*
X74906000Y-42799687D02*
X73532000Y-42799687D01*
X74906000Y-42839687D02*
X73548000Y-42839687D01*
X74906000Y-42879686D02*
X73564000Y-42879687D01*
X74906000Y-42919688D02*
X73581000Y-42919687D01*
X74906000Y-42959687D02*
X73598000Y-42959687D01*
X74906000Y-42999687D02*
X73617000Y-42999687D01*
X74906000Y-43079687D02*
X73656000Y-43079687D01*
X74906000Y-43119687D02*
X73678000Y-43119687D01*
X74906000Y-43159687D02*
X73699000Y-43159687D01*
X74906000Y-43239687D02*
X73746000Y-43239687D01*
X74906000Y-43279687D02*
X73771000Y-43279687D01*
X74906000Y-43319687D02*
X73797000Y-43319687D01*
X74906000Y-43359688D02*
X73824000Y-43359687D01*
X74906000Y-43399687D02*
X73851000Y-43399687D01*
X74906000Y-43439687D02*
X73881000Y-43439687D01*
X74906000Y-43479686D02*
X73911000Y-43479687D01*
X74906000Y-43519687D02*
X73942000Y-43519687D01*
X74906000Y-43559687D02*
X73975001Y-43559687D01*
X74906000Y-43599687D02*
X74009000Y-43599687D01*
X74906000Y-43679687D02*
X74082000Y-43679687D01*
X74906000Y-43719687D02*
X74120000Y-43719687D01*
X74906000Y-43759687D02*
X74161000Y-43759687D01*
X74906000Y-43799688D02*
X74202999Y-43799687D01*
X74906000Y-43839687D02*
X74247000Y-43839686D01*
X74906000Y-43879687D02*
X74293000Y-43879688D01*
X74906000Y-43919686D02*
X74341000Y-43919687D01*
X74906000Y-43959687D02*
X74392000Y-43959687D01*
X74906000Y-43999687D02*
X74446000Y-43999687D01*
X74906000Y-44039687D02*
X74503000Y-44039687D01*
X74906000Y-44119687D02*
X74627000Y-44119687D01*
X74906000Y-44159687D02*
X74694999Y-44159687D01*
X76230000Y-44479687D02*
X75662000Y-44479687D01*
X76464000Y-44439687D02*
X75428000Y-44439687D01*
X76623000Y-44399687D02*
X75269000Y-44399687D01*
X76751000Y-44359686D02*
X75141000Y-44359686D01*
X76861000Y-44319687D02*
X75031000Y-44319687D01*
X76957000Y-44279687D02*
X74935000Y-44279687D01*
X77044000Y-44239687D02*
X74848000Y-44239687D01*
X77124000Y-44199687D02*
X74768000Y-44199687D01*
X77197001Y-44159687D02*
X76986000Y-44159687D01*
X77265000Y-44119687D02*
X76986000Y-44119687D01*
X77329000Y-44079687D02*
X76986001Y-44079687D01*
X77389000Y-44039687D02*
X76986000Y-44039687D01*
X77421000Y-39073913D02*
X77421000Y-39573912D01*
X77446000Y-43999687D02*
X76986000Y-43999687D01*
X77500000Y-43959687D02*
X76986000Y-43959687D01*
X77551000Y-43919687D02*
X76986000Y-43919686D01*
X77599000Y-43879688D02*
X76986000Y-43879687D01*
X77645000Y-43839686D02*
X76986000Y-43839687D01*
X77671000Y-39323912D02*
X77171000Y-39323912D01*
X77689001Y-43799687D02*
X76986000Y-43799688D01*
X77731000Y-43759687D02*
X76986000Y-43759687D01*
X77772000Y-43719687D02*
X76986000Y-43719687D01*
X77810000Y-43679687D02*
X76986000Y-43679687D01*
X77847000Y-43639688D02*
X76986001Y-43639687D01*
X77883000Y-43599687D02*
X76986000Y-43599687D01*
X77916999Y-43559687D02*
X76986000Y-43559687D01*
X77950000Y-43519687D02*
X76986000Y-43519687D01*
X77981000Y-43479687D02*
X76986000Y-43479686D01*
X78011000Y-43439687D02*
X76986000Y-43439687D01*
X78041000Y-43399687D02*
X76986000Y-43399687D01*
X78068000Y-43359687D02*
X76986000Y-43359688D01*
X78095000Y-43319687D02*
X76986000Y-43319687D01*
X78121000Y-43279687D02*
X76986000Y-43279687D01*
X78146000Y-43239687D02*
X76986000Y-43239687D01*
X78170000Y-43199687D02*
X76986001Y-43199687D01*
X78193000Y-43159687D02*
X76986000Y-43159687D01*
X78214000Y-43119687D02*
X76986000Y-43119687D01*
X78236000Y-43079687D02*
X76986000Y-43079687D01*
X78256000Y-43039687D02*
X76986001Y-43039687D01*
X78275000Y-42999687D02*
X76986000Y-42999687D01*
X78294000Y-42959687D02*
X76986000Y-42959687D01*
X78311000Y-42919687D02*
X76986000Y-42919688D01*
X78328000Y-42879687D02*
X76986000Y-42879686D01*
X78344000Y-42839687D02*
X76986000Y-42839687D01*
X78360000Y-42799687D02*
X76986000Y-42799687D01*
X78374000Y-42759687D02*
X76986001Y-42759687D01*
X78388000Y-42719687D02*
X76986000Y-42719687D01*
X78401000Y-42679687D02*
X76986000Y-42679687D01*
X78414000Y-42639687D02*
X76986000Y-42639687D01*
X78426000Y-42599687D02*
X76986001Y-42599687D01*
X78437000Y-42558687D02*
X76986000Y-42558687D01*
X78447000Y-42518687D02*
X76986000Y-42518687D01*
X78457001Y-42478687D02*
X76986001Y-42478687D01*
X78466000Y-42438687D02*
X76986000Y-42438687D01*
X78474000Y-42398687D02*
X76986000Y-42398687D01*
X78482000Y-42358687D02*
X76986000Y-42358687D01*
X78489000Y-42318687D02*
X76986001Y-42318687D01*
X78496000Y-42278687D02*
X76986000Y-42278687D01*
X78502000Y-42238687D02*
X76986000Y-42238687D01*
X78507000Y-42198687D02*
X76986000Y-42198687D01*
X78511000Y-42158686D02*
X76986000Y-42158686D01*
X78515000Y-42118687D02*
X76986000Y-42118687D01*
X78519000Y-42078687D02*
X73373000Y-42078687D01*
X78522001Y-42038687D02*
X73369999Y-42038687D01*
X78524000Y-41998687D02*
X73368000Y-41998687D01*
X78524999Y-41958687D02*
X73367001Y-41958687D01*
X78526000Y-41878687D02*
X73366000Y-41878687D01*
X78526000Y-41918687D02*
X73366000Y-41918687D01*
X78566001Y-41878686D02*
G75*
G02*
X73325999Y-41878686I-2620001J0D01*
G01*
X73325999Y-41878686D02*
G75*
G02*
X78566001Y-41878686I2620001J0D01*
G01*
%TO.C,R10*%
X70536000Y-102158800D02*
X71486000Y-102158800D01*
X71486000Y-101238800D02*
X71486000Y-103078800D01*
X71486000Y-103078800D02*
X75326000Y-103078800D01*
X75326000Y-101238800D02*
X71486000Y-101238800D01*
X75326000Y-103078800D02*
X75326000Y-101238800D01*
X76276001Y-102158800D02*
X75326000Y-102158800D01*
%TO.C,R6*%
X69900999Y-47548800D02*
X70851000Y-47548800D01*
X70851000Y-46628800D02*
X70851000Y-48468800D01*
X70851000Y-48468800D02*
X74691000Y-48468800D01*
X74691000Y-46628800D02*
X70851000Y-46628800D01*
X74691000Y-48468800D02*
X74691000Y-46628800D01*
X75641000Y-47548800D02*
X74691000Y-47548800D01*
D18*
%TO.C,P2*%
X103886000Y-116763800D02*
X104317800Y-116332000D01*
X103886000Y-118668800D02*
X103886000Y-116763800D01*
X103886000Y-118668800D02*
X104317800Y-119100600D01*
X104317800Y-116332000D02*
X118491000Y-116332000D01*
X104317800Y-119100600D02*
X118491000Y-119100600D01*
X118491000Y-116332000D02*
X118922800Y-116763800D01*
X118491000Y-119100600D02*
X118922800Y-118668800D01*
X118922800Y-118668800D02*
X118922800Y-116763800D01*
D17*
%TO.C,CI1*%
X79520999Y-48128800D02*
X79521000Y-44368800D01*
X79521000Y-44368800D02*
X80780999Y-44368800D01*
X86341000Y-44368800D02*
X85081001Y-44368800D01*
X86341001Y-48128800D02*
X86341000Y-44368800D01*
X79621000Y-49408800D02*
X79291000Y-49648800D01*
X79291000Y-49168800D01*
X79621000Y-49408800D01*
G36*
X79621000Y-49408800D02*
G01*
X79291000Y-49648800D01*
X79291000Y-49168800D01*
X79621000Y-49408800D01*
G37*
%TO.C,BZ1*%
X67766000Y-88728800D02*
X67766000Y-93478800D01*
X69386000Y-95098800D02*
X67766000Y-93478800D01*
X69386000Y-95098800D02*
X74136000Y-95098800D01*
X74136000Y-86358800D02*
X70136000Y-86358800D01*
X76506000Y-92728800D02*
X76506000Y-88728800D01*
%TO.C,CI2*%
X90616000Y-43083801D02*
X88666000Y-43083800D01*
X90616000Y-43083801D02*
X92566000Y-43083800D01*
X90616000Y-48203799D02*
X88666000Y-48203800D01*
X90616000Y-48203799D02*
X92566000Y-48203800D01*
X93555999Y-48438800D02*
X93076000Y-48438800D01*
X93316000Y-48108800D01*
X93555999Y-48438800D01*
G36*
X93555999Y-48438800D02*
G01*
X93076000Y-48438800D01*
X93316000Y-48108800D01*
X93555999Y-48438800D01*
G37*
%TO.C,MOD1*%
X84971000Y-96388800D02*
X87091000Y-96388800D01*
X84971000Y-97008800D02*
X84971000Y-96388800D01*
X84971000Y-120628800D02*
X84970999Y-113008800D01*
X99091000Y-96388800D02*
X101211000Y-96388800D01*
X101211000Y-96388800D02*
X101211000Y-97008800D01*
X101211000Y-120628800D02*
X84971000Y-120628800D01*
X101211001Y-113008800D02*
X101211000Y-120628800D01*
X101881000Y-113344800D02*
X101401000Y-113344800D01*
X101640999Y-113008800D01*
X101881000Y-113344800D01*
G36*
X101881000Y-113344800D02*
G01*
X101401000Y-113344800D01*
X101640999Y-113008800D01*
X101881000Y-113344800D01*
G37*
%TO.C,J2*%
X65461000Y-117318799D02*
X65461000Y-107318801D01*
X66061000Y-117818800D02*
X66261000Y-117018800D01*
X66161000Y-107318800D02*
X66061000Y-106818800D01*
X66261000Y-117018800D02*
X66561000Y-115318800D01*
X66461000Y-108618800D02*
X66161000Y-107318800D01*
X66561000Y-115318800D02*
X66661000Y-114518799D01*
X66661000Y-110118801D02*
X66461000Y-108618800D01*
X66661000Y-114518799D02*
X66761000Y-113218800D01*
X66761000Y-111418800D02*
X66661000Y-110118801D01*
X66761000Y-113218800D02*
X66761000Y-111418800D01*
X66961000Y-105408801D02*
X67361000Y-105408800D01*
X66961000Y-106818800D02*
X65961000Y-106818800D01*
X66961000Y-117818800D02*
X65961000Y-117818800D01*
X66961000Y-119228799D02*
X66961000Y-105408801D01*
X66961000Y-119228799D02*
X67361000Y-119228800D01*
X69881000Y-105408801D02*
X75661000Y-105408801D01*
X69881000Y-119228799D02*
X75661000Y-119228799D01*
X78181000Y-105408800D02*
X80881000Y-105408800D01*
X78181000Y-119228800D02*
X80881000Y-119228800D01*
X80881000Y-105408800D02*
X80881000Y-119228800D01*
X65461000Y-107318801D02*
G75*
G02*
X65961000Y-106818800I500000J1D01*
G01*
X65961000Y-117818800D02*
G75*
G02*
X65461000Y-117318799I0J500000D01*
G01*
%TO.C,SW1*%
X112225106Y-84593633D02*
X114841401Y-81977338D01*
X114841401Y-81977338D02*
X119168894Y-86304831D01*
X116552599Y-88921126D02*
X112225106Y-84593633D01*
X119168894Y-86304831D02*
X116552599Y-88921126D01*
%TO.C,SW4*%
X103752390Y-92630917D02*
X106368685Y-90014622D01*
X106368685Y-90014622D02*
X110696178Y-94342115D01*
X108079883Y-96958410D02*
X103752390Y-92630917D01*
X110696178Y-94342115D02*
X108079883Y-96958410D01*
%TO.C,R9*%
X70535999Y-98983800D02*
X71486000Y-98983800D01*
X71486000Y-98063800D02*
X71486000Y-99903800D01*
X71486000Y-99903800D02*
X75326000Y-99903800D01*
X75326000Y-98063800D02*
X71486000Y-98063800D01*
X75326000Y-99903800D02*
X75326000Y-98063800D01*
X76276000Y-98983800D02*
X75326000Y-98983800D01*
%TO.C,R3*%
X112445999Y-113588800D02*
X113396000Y-113588800D01*
X113396000Y-112668800D02*
X113396000Y-114508800D01*
X113396000Y-114508800D02*
X117236000Y-114508800D01*
X117236000Y-112668800D02*
X113396000Y-112668800D01*
X117236000Y-114508800D02*
X117236000Y-112668800D01*
X118186000Y-113588800D02*
X117236000Y-113588800D01*
%TO.C,C5*%
X103521000Y-112533800D02*
X103521000Y-112518800D01*
X103521000Y-114658800D02*
X103521000Y-114643800D01*
X108061000Y-112518800D02*
X103521000Y-112518800D01*
X108061000Y-112533800D02*
X108061000Y-112518800D01*
X108061000Y-114658800D02*
X103521000Y-114658800D01*
X108061000Y-114658800D02*
X108061000Y-114643800D01*
%TO.C,C1*%
X105471496Y-47335272D02*
X105482103Y-47324665D01*
X106974098Y-45832670D02*
X106984705Y-45822063D01*
X108681761Y-50545537D02*
X105471496Y-47335272D01*
X108681761Y-50545537D02*
X108692368Y-50534930D01*
X110184363Y-49042935D02*
X110194970Y-49032328D01*
X110194970Y-49032328D02*
X106984705Y-45822063D01*
%TO.C,R11*%
X97206000Y-50088800D02*
X98156000Y-50088800D01*
X98156000Y-49168800D02*
X98156000Y-51008800D01*
X98156000Y-51008800D02*
X101996000Y-51008800D01*
X101996000Y-49168800D02*
X98156000Y-49168800D01*
X101996000Y-51008800D02*
X101996000Y-49168800D01*
X102946001Y-50088800D02*
X101996000Y-50088800D01*
%TO.C,R15*%
X97206000Y-45008800D02*
X98156000Y-45008800D01*
X98156000Y-44088800D02*
X98156000Y-45928800D01*
X98156000Y-45928800D02*
X101996000Y-45928800D01*
X101996000Y-44088800D02*
X98156000Y-44088800D01*
X101996000Y-45928800D02*
X101996000Y-44088800D01*
X102946000Y-45008800D02*
X101996000Y-45008800D01*
%TO.C,R4*%
X112445999Y-104063800D02*
X113396000Y-104063800D01*
X113396000Y-103143800D02*
X113396000Y-104983800D01*
X113396000Y-104983800D02*
X117236000Y-104983800D01*
X117236000Y-103143800D02*
X113396000Y-103143800D01*
X117236000Y-104983800D02*
X117236000Y-103143800D01*
X118186000Y-104063800D02*
X117236000Y-104063800D01*
%TO.C,SW2*%
X112261390Y-94342115D02*
X116588883Y-90014622D01*
X114877685Y-96958410D02*
X112261390Y-94342115D01*
X116588883Y-90014622D02*
X119205178Y-92630917D01*
X119205178Y-92630917D02*
X114877685Y-96958410D01*
%TO.C,LD1*%
X66641000Y-42083800D02*
X67041000Y-42083800D01*
X66641000Y-43203800D02*
X66641000Y-42083800D01*
X67041000Y-42083800D02*
X67041000Y-43203800D01*
X67041000Y-43203800D02*
X66641000Y-43203800D01*
X67041000Y-43203800D02*
X67041000Y-37043800D01*
X68331000Y-43203800D02*
X68331000Y-43203800D01*
X68331000Y-43203800D02*
X68331000Y-43333800D01*
X68331000Y-43333800D02*
X68331000Y-43203800D01*
X68331000Y-43333800D02*
X68331000Y-43333800D01*
X70871000Y-43203800D02*
X70871000Y-43203800D01*
X70871000Y-43203800D02*
X70871000Y-43333800D01*
X70871000Y-43333800D02*
X70871000Y-43203800D01*
X70871000Y-43333800D02*
X70871000Y-43333800D01*
X72161000Y-43203800D02*
X67041000Y-43203800D01*
X72161000Y-43203800D02*
X72161000Y-37043800D01*
X67041000Y-37043800D02*
G75*
G02*
X72161000Y-37043800I2560000J0D01*
G01*
%TD*%
D19*
%TO.C,P2*%
X105156000Y-118033800D03*
D20*
X107696000Y-117398800D03*
X110236000Y-118033800D03*
X112776000Y-117398800D03*
X115316000Y-118033800D03*
X117856000Y-117398800D03*
%TD*%
M02*
