%TF.GenerationSoftware,KiCad,Pcbnew,9.0.0*%
%TF.CreationDate,2025-08-10T17:42:25-03:00*%
%TF.ProjectId,BadgeGaroa_r2,42616467-6547-4617-926f-615f72322e6b,rev?*%
%TF.SameCoordinates,Original*%
%TF.FileFunction,Copper,L2,Bot*%
%TF.FilePolarity,Positive*%
%FSLAX46Y46*%
G04 Gerber Fmt 4.6, Leading zero omitted, Abs format (unit mm)*
G04 Created by KiCad (PCBNEW 9.0.0) date 2025-08-10 17:42:25*
%MOMM*%
%LPD*%
G01*
G04 APERTURE LIST*
G04 Aperture macros list*
%AMRoundRect*
0 Rectangle with rounded corners*
0 $1 Rounding radius*
0 $2 $3 $4 $5 $6 $7 $8 $9 X,Y pos of 4 corners*
0 Add a 4 corners polygon primitive as box body*
4,1,4,$2,$3,$4,$5,$6,$7,$8,$9,$2,$3,0*
0 Add four circle primitives for the rounded corners*
1,1,$1+$1,$2,$3*
1,1,$1+$1,$4,$5*
1,1,$1+$1,$6,$7*
1,1,$1+$1,$8,$9*
0 Add four rect primitives between the rounded corners*
20,1,$1+$1,$2,$3,$4,$5,0*
20,1,$1+$1,$4,$5,$6,$7,0*
20,1,$1+$1,$6,$7,$8,$9,0*
20,1,$1+$1,$8,$9,$2,$3,0*%
G04 Aperture macros list end*
%TA.AperFunction,EtchedComponent*%
%ADD10C,0.000000*%
%TD*%
%TA.AperFunction,ComponentPad*%
%ADD11R,1.700000X1.700000*%
%TD*%
%TA.AperFunction,ComponentPad*%
%ADD12O,1.700000X1.700000*%
%TD*%
%TA.AperFunction,ComponentPad*%
%ADD13R,1.300000X1.300000*%
%TD*%
%TA.AperFunction,ComponentPad*%
%ADD14C,1.300000*%
%TD*%
%TA.AperFunction,ComponentPad*%
%ADD15C,1.400000*%
%TD*%
%TA.AperFunction,ComponentPad*%
%ADD16O,1.400000X1.400000*%
%TD*%
%TA.AperFunction,ComponentPad*%
%ADD17C,1.600000*%
%TD*%
%TA.AperFunction,ComponentPad*%
%ADD18R,1.600000X1.600000*%
%TD*%
%TA.AperFunction,ComponentPad*%
%ADD19RoundRect,0.056000X-6.244000X-1.344000X6.244000X-1.344000X6.244000X1.344000X-6.244000X1.344000X0*%
%TD*%
%TA.AperFunction,ComponentPad*%
%ADD20R,1.524000X1.524000*%
%TD*%
%TA.AperFunction,ComponentPad*%
%ADD21O,1.524000X1.524000*%
%TD*%
%TA.AperFunction,ComponentPad*%
%ADD22C,2.000000*%
%TD*%
%TA.AperFunction,SMDPad,CuDef*%
%ADD23R,1.700000X1.700000*%
%TD*%
%TA.AperFunction,SMDPad,CuDef*%
%ADD24O,1.700000X1.700000*%
%TD*%
%TA.AperFunction,SMDPad,CuDef*%
%ADD25R,1.000000X1.500000*%
%TD*%
%TA.AperFunction,ComponentPad*%
%ADD26R,1.800000X1.800000*%
%TD*%
%TA.AperFunction,ComponentPad*%
%ADD27C,1.800000*%
%TD*%
%TA.AperFunction,ViaPad*%
%ADD28C,1.066800*%
%TD*%
%TA.AperFunction,ViaPad*%
%ADD29C,1.219200*%
%TD*%
%TA.AperFunction,Conductor*%
%ADD30C,0.812800*%
%TD*%
%TA.AperFunction,Conductor*%
%ADD31C,0.406400*%
%TD*%
%TA.AperFunction,Conductor*%
%ADD32C,0.609600*%
%TD*%
G04 APERTURE END LIST*
D10*
%TA.AperFunction,EtchedComponent*%
%TO.C,JP3*%
G36*
X84436000Y-51658800D02*
G01*
X83936000Y-51658800D01*
X83936000Y-51058800D01*
X84436000Y-51058800D01*
X84436000Y-51658800D01*
G37*
%TD.AperFunction*%
%TA.AperFunction,EtchedComponent*%
%TO.C,JP2*%
G36*
X83166000Y-54198800D02*
G01*
X82666000Y-54198800D01*
X82666000Y-53598800D01*
X83166000Y-53598800D01*
X83166000Y-54198800D01*
G37*
%TD.AperFunction*%
%TD*%
D11*
%TO.P,OLED1,1,Pin_1*%
%TO.N,Net-(JP2-C)*%
X89799000Y-52501800D03*
D12*
%TO.P,OLED1,2,Pin_2*%
%TO.N,Net-(JP3-C)*%
X92339000Y-52501800D03*
%TO.P,OLED1,3,Pin_3*%
%TO.N,Net-(MOD1-GPIO5)*%
X94878999Y-52501800D03*
%TO.P,OLED1,4,Pin_4*%
%TO.N,Net-(MOD1-GPIO4)*%
X97419000Y-52501800D03*
%TD*%
D13*
%TO.P,Q1,1,C*%
%TO.N,Net-(JP1-C)*%
X79756000Y-89428800D03*
D14*
%TO.P,Q1,2,B*%
%TO.N,Net-(Q1-B)*%
X81026000Y-90708800D03*
%TO.P,Q1,3,E*%
%TO.N,GNDD*%
X79756000Y-91968800D03*
%TD*%
D15*
%TO.P,R7,1*%
%TO.N,Net-(J2-DAT0)*%
X111506000Y-107238800D03*
D16*
%TO.P,R7,2*%
%TO.N,+3.3V*%
X119126000Y-107238800D03*
%TD*%
D15*
%TO.P,R14,1*%
%TO.N,GNDD*%
X96266000Y-47548800D03*
D16*
%TO.P,R14,2*%
%TO.N,Net-(CI2-PROG)*%
X103886000Y-47548800D03*
%TD*%
D17*
%TO.P,C4,1*%
%TO.N,GNDD*%
X108291000Y-100888800D03*
%TO.P,C4,2*%
%TO.N,+3.3V*%
X103291000Y-100888800D03*
%TD*%
D15*
%TO.P,R5,1*%
%TO.N,Net-(MOD1-EN)*%
X111506000Y-110413800D03*
D16*
%TO.P,R5,2*%
%TO.N,+3.3V*%
X119126000Y-110413800D03*
%TD*%
D18*
%TO.P,C6,1*%
%TO.N,Net-(CI2-BAT)*%
X75946000Y-52588800D03*
D17*
%TO.P,C6,2*%
%TO.N,GNDD*%
X75946000Y-50088800D03*
%TD*%
D15*
%TO.P,R8,1*%
%TO.N,Net-(J2-CMD)*%
X111506000Y-100888800D03*
D16*
%TO.P,R8,2*%
%TO.N,+3.3V*%
X119126000Y-100888800D03*
%TD*%
D18*
%TO.P,C7,1*%
%TO.N,+3.3V*%
X75946000Y-40628687D03*
D17*
%TO.P,C7,2*%
%TO.N,GNDD*%
X75946000Y-43128687D03*
%TD*%
D15*
%TO.P,R10,1*%
%TO.N,Net-(J2-DAT3{slash}CD)*%
X77216000Y-102158800D03*
D16*
%TO.P,R10,2*%
%TO.N,GNDD*%
X69596000Y-102158800D03*
%TD*%
D15*
%TO.P,R6,1*%
%TO.N,Net-(LD1-A)*%
X68961000Y-47548800D03*
D16*
%TO.P,R6,2*%
%TO.N,+3.3V*%
X76581000Y-47548800D03*
%TD*%
D19*
%TO.P,H1,1,1*%
%TO.N,N/C*%
X93101000Y-38832800D03*
%TD*%
D20*
%TO.P,P2,1,Pin_1*%
%TO.N,GNDD*%
X105156000Y-118033800D03*
D21*
%TO.P,P2,2,Pin_2*%
%TO.N,unconnected-(P2-Pin_2-Pad2)*%
X107696000Y-117398800D03*
%TO.P,P2,3,Pin_3*%
%TO.N,+5V*%
X110236000Y-118033800D03*
%TO.P,P2,4,Pin_4*%
%TO.N,Net-(MOD1-GPIO3{slash}RXD)*%
X112776000Y-117398800D03*
%TO.P,P2,5,Pin_5*%
%TO.N,Net-(MOD1-GPIO1{slash}TXD)*%
X115316000Y-118033800D03*
%TO.P,P2,6,Pin_6*%
%TO.N,unconnected-(P2-Pin_6-Pad6)*%
X117856000Y-117398800D03*
%TD*%
D22*
%TO.P,J2,*%
%TO.N,*%
X77871000Y-117318799D03*
X77861000Y-107258800D03*
%TD*%
D15*
%TO.P,R9,1*%
%TO.N,Net-(MOD1-GPIO16)*%
X69596000Y-98983800D03*
D16*
%TO.P,R9,2*%
%TO.N,Net-(Q1-B)*%
X77216000Y-98983800D03*
%TD*%
D15*
%TO.P,R3,1*%
%TO.N,Net-(MOD1-~{RST})*%
X111506000Y-113588800D03*
D16*
%TO.P,R3,2*%
%TO.N,+3.3V*%
X119126000Y-113588800D03*
%TD*%
D17*
%TO.P,C5,1*%
%TO.N,GNDD*%
X108291000Y-113588800D03*
%TO.P,C5,2*%
%TO.N,/AD_VBat*%
X103291000Y-113588800D03*
%TD*%
%TO.P,C1,1*%
%TO.N,GNDD*%
X109601000Y-49951567D03*
%TO.P,C1,2*%
%TO.N,+5V*%
X106065466Y-46416033D03*
%TD*%
D15*
%TO.P,R11,1*%
%TO.N,/AD_VBat*%
X103886000Y-50088800D03*
D16*
%TO.P,R11,2*%
%TO.N,Net-(CI1-VI)*%
X96266000Y-50088800D03*
%TD*%
D15*
%TO.P,R15,1*%
%TO.N,GNDD*%
X96266000Y-45008800D03*
D16*
%TO.P,R15,2*%
%TO.N,/AD_VBat*%
X103886000Y-45008800D03*
%TD*%
D15*
%TO.P,R4,1*%
%TO.N,Net-(MOD1-GPIO0)*%
X111506000Y-104063800D03*
D16*
%TO.P,R4,2*%
%TO.N,+3.3V*%
X119126000Y-104063800D03*
%TD*%
D23*
%TO.P,P1,1,P1*%
%TO.N,Net-(CI2-BAT)*%
X117221000Y-76758800D03*
D24*
%TO.P,P1,2,P2*%
%TO.N,GNDD*%
X117221000Y-74218800D03*
%TD*%
D25*
%TO.P,JP3,1,A*%
%TO.N,+3.3V*%
X84836000Y-51358800D03*
%TO.P,JP3,2,C*%
%TO.N,Net-(JP3-C)*%
X83536000Y-51358800D03*
%TO.P,JP3,3,B*%
%TO.N,GNDD*%
X82236000Y-51358800D03*
%TD*%
%TO.P,JP2,1,A*%
%TO.N,GNDD*%
X82266000Y-53898800D03*
%TO.P,JP2,2,C*%
%TO.N,Net-(JP2-C)*%
X83566000Y-53898800D03*
%TO.P,JP2,3,B*%
%TO.N,+3.3V*%
X84866000Y-53898800D03*
%TD*%
D26*
%TO.P,LD1,1,A*%
%TO.N,Net-(LD1-A)*%
X70871000Y-44413800D03*
D27*
%TO.P,LD1,2,K*%
%TO.N,Net-(JP1-B)*%
X68331000Y-44413800D03*
%TD*%
D28*
%TO.N,+3.3V*%
X103251000Y-93903800D03*
X70866000Y-93903800D03*
X81661000Y-46913800D03*
X77851000Y-112318800D03*
%TO.N,+5V*%
X101981000Y-48818800D03*
X101981000Y-52628800D03*
X107061000Y-48818800D03*
%TO.N,GNDD*%
X85471000Y-96443800D03*
X107696000Y-90093800D03*
X80391000Y-95808800D03*
X77851000Y-109778800D03*
%TO.N,/AD_VBat*%
X115951000Y-111683800D03*
X104521000Y-52628800D03*
%TO.N,Net-(CI2-BAT)*%
X74041000Y-45008800D03*
D29*
X90551000Y-43103800D03*
D28*
%TO.N,Net-(J2-DAT0)*%
X111506000Y-85013800D03*
X79756000Y-102158800D03*
X98171000Y-102158800D03*
%TO.N,Net-(J2-CLK)*%
X98171000Y-105333800D03*
X82931000Y-110413800D03*
%TO.N,Net-(J2-DAT3{slash}CD)*%
X83566000Y-100888800D03*
%TO.N,Net-(J2-CMD)*%
X98171000Y-111048800D03*
X111506000Y-94538800D03*
X82931000Y-113588800D03*
%TO.N,Net-(JP1-B)*%
X68326000Y-82473800D03*
%TO.N,Net-(MOD1-GPIO1{slash}TXD)*%
X88011000Y-112318800D03*
X103251000Y-119303800D03*
%TO.N,Net-(MOD1-GPIO3{slash}RXD)*%
X88011000Y-109778800D03*
X104521000Y-116128800D03*
%TO.N,Net-(MOD1-GPIO0)*%
X114046000Y-97713800D03*
X88011000Y-104063800D03*
X105791000Y-104063800D03*
%TO.N,Net-(MOD1-~{RST})*%
X114046000Y-85013800D03*
%TO.N,Net-(MOD1-GPIO16)*%
X103251000Y-105968800D03*
%TO.N,Net-(Q1-B)*%
X78486000Y-95808800D03*
%TD*%
D30*
%TO.N,+3.3V*%
X69596000Y-112318800D02*
X67691000Y-110413800D01*
X72771000Y-47548800D02*
X76581000Y-47548800D01*
X103886000Y-94538800D02*
X103886000Y-100293800D01*
D31*
X84866000Y-51388800D02*
X84836000Y-51358800D01*
D30*
X68961000Y-65328800D02*
X70866000Y-63423800D01*
D31*
X84201000Y-46913800D02*
X84836000Y-47548800D01*
D30*
X68961000Y-80568800D02*
X68961000Y-65328800D01*
X70866000Y-93903800D02*
X70866000Y-82473800D01*
X67691000Y-95808800D02*
X69596000Y-93903800D01*
D31*
X81661000Y-46913800D02*
X84201000Y-46913800D01*
D30*
X103886000Y-100293800D02*
X103291000Y-100888800D01*
X69596000Y-93903800D02*
X70866000Y-93903800D01*
X103251000Y-93903800D02*
X70866000Y-93903800D01*
D31*
X77851000Y-112318800D02*
X72136000Y-112318800D01*
D30*
X103251000Y-93903800D02*
X103886000Y-94538800D01*
X70866000Y-49453800D02*
X72771000Y-47548800D01*
D31*
X84836000Y-47548800D02*
X84836000Y-51358800D01*
D30*
X67691000Y-110413800D02*
X67691000Y-95808800D01*
D31*
X84836000Y-51358800D02*
X84836000Y-53868800D01*
X84836000Y-53868800D02*
X84866000Y-53898800D01*
D30*
X70866000Y-82473800D02*
X68961000Y-80568800D01*
X77851000Y-112318800D02*
X69596000Y-112318800D01*
X70866000Y-63423800D02*
X70866000Y-49453800D01*
X119126000Y-113588800D02*
X119126000Y-100888800D01*
%TO.N,+5V*%
X107061000Y-53898800D02*
X107696000Y-54533800D01*
X109982000Y-83997800D02*
X109982000Y-117779800D01*
X109982000Y-117779800D02*
X110236000Y-118033800D01*
X103251000Y-53898800D02*
X107061000Y-53898800D01*
X114681000Y-58660743D02*
X114681000Y-70408800D01*
X101981000Y-52628800D02*
X103251000Y-53898800D01*
X113059798Y-72030002D02*
X113059799Y-72948800D01*
X113059799Y-72948800D02*
X113059799Y-80920001D01*
X110554057Y-54533800D02*
X114681000Y-58660743D01*
X113059799Y-80920001D02*
X109982000Y-83997800D01*
D32*
X107061000Y-48818800D02*
X101981000Y-48818800D01*
D30*
X107696000Y-54533800D02*
X110554057Y-54533800D01*
X114681000Y-70408800D02*
X113059798Y-72030002D01*
D31*
%TO.N,GNDD*%
X82236000Y-50663800D02*
X81661000Y-50088800D01*
D30*
X104521000Y-43738800D02*
X103886000Y-43103800D01*
X119126000Y-58343800D02*
X110733767Y-49951567D01*
D31*
X82236000Y-53868800D02*
X82266000Y-53898800D01*
D30*
X80421000Y-92633800D02*
X107021000Y-92633800D01*
X81026000Y-96443800D02*
X80391000Y-95808800D01*
X79756000Y-41833800D02*
X95631000Y-41833800D01*
D31*
X82236000Y-51358800D02*
X82236000Y-50663800D01*
D30*
X105780787Y-119928587D02*
X105156000Y-119303800D01*
D31*
X82266000Y-51388800D02*
X82236000Y-51358800D01*
D30*
X75946000Y-43128687D02*
X78461113Y-43128687D01*
X119126000Y-98348800D02*
X117221000Y-100253800D01*
X119555329Y-118229258D02*
X117856000Y-119928587D01*
X117856000Y-119928587D02*
X105780787Y-119928587D01*
X96901000Y-43103800D02*
X96266000Y-43738800D01*
D31*
X96266000Y-45008800D02*
X96266000Y-47548800D01*
D30*
X108291000Y-93903800D02*
X108291000Y-90688800D01*
X107061000Y-115493800D02*
X105156000Y-117398800D01*
X103886000Y-43103800D02*
X96901000Y-43103800D01*
D31*
X81661000Y-50088800D02*
X75946000Y-50088800D01*
D30*
X79756000Y-91968800D02*
X80421000Y-92633800D01*
X108291000Y-113588800D02*
X108291000Y-100888800D01*
X108291000Y-113588800D02*
X108291000Y-114898800D01*
X107021000Y-92633800D02*
X108291000Y-93903800D01*
X119126000Y-72948800D02*
X119126000Y-58343800D01*
X110733767Y-49951567D02*
X109601000Y-49951567D01*
X105791000Y-43738800D02*
X104521000Y-43738800D01*
X105156000Y-117398800D02*
X105156000Y-118033800D01*
X105156000Y-119303800D02*
X105156000Y-118668800D01*
D31*
X69596000Y-109143800D02*
X69596000Y-102158800D01*
D30*
X109601000Y-47548800D02*
X105791000Y-43738800D01*
D31*
X77851000Y-109778800D02*
X70231000Y-109778800D01*
D30*
X117221000Y-113794527D02*
X119555329Y-116128856D01*
X119555329Y-116128856D02*
X119555329Y-118229258D01*
X119126000Y-72948800D02*
X119126000Y-98348800D01*
X117221000Y-100253800D02*
X117221000Y-113794527D01*
X108291000Y-100888800D02*
X108291000Y-93903800D01*
X108291000Y-90688800D02*
X107696000Y-90093800D01*
D31*
X82236000Y-51358800D02*
X82236000Y-53868800D01*
D30*
X107696000Y-115493800D02*
X107061000Y-115493800D01*
X85471000Y-96443800D02*
X81026000Y-96443800D01*
X117856000Y-74218800D02*
X119126000Y-72948800D01*
X96266000Y-43738800D02*
X96266000Y-45008800D01*
D31*
X70231000Y-109778800D02*
X69596000Y-109143800D01*
D30*
X108291000Y-114898800D02*
X107696000Y-115493800D01*
X78461113Y-43128687D02*
X79756000Y-41833800D01*
X109601000Y-49951567D02*
X109601000Y-47548800D01*
X95631000Y-41833800D02*
X96901000Y-43103800D01*
D31*
%TO.N,/AD_VBat*%
X113870399Y-72489401D02*
X113870400Y-74218800D01*
X113870399Y-75948199D02*
X117856000Y-79933800D01*
X115951000Y-58343800D02*
X115951000Y-70408800D01*
X110871000Y-53263800D02*
X108331000Y-53263800D01*
X113870400Y-74218800D02*
X113870399Y-75948199D01*
X115951000Y-70408800D02*
X113870399Y-72489401D01*
X108331000Y-53263800D02*
X107696000Y-52628800D01*
X110871000Y-53263800D02*
X115951000Y-58343800D01*
X107696000Y-52628800D02*
X104521000Y-52628800D01*
X117856000Y-97713800D02*
X115951000Y-99618800D01*
X115951000Y-99618800D02*
X115951000Y-111683800D01*
X117856000Y-79933800D02*
X117856000Y-97713800D01*
D30*
%TO.N,Net-(CI2-BAT)*%
X117221000Y-71043800D02*
X116586000Y-71678800D01*
X108331000Y-51433600D02*
X108891200Y-51993800D01*
X100748400Y-51396200D02*
X108293600Y-51396200D01*
X110871000Y-51993800D02*
X117221000Y-58343800D01*
X93726000Y-48818800D02*
X94996000Y-48818800D01*
X90551000Y-43103800D02*
X92456000Y-45008800D01*
X74041000Y-45008800D02*
X79121000Y-45008800D01*
X115951000Y-71678800D02*
X114681000Y-72948800D01*
X92456000Y-47548800D02*
X93726000Y-48818800D01*
X80391000Y-43738800D02*
X89916000Y-43738800D01*
X115951000Y-76758800D02*
X117221000Y-76758800D01*
X114681000Y-72948800D02*
X114681000Y-75488800D01*
X114681000Y-75488800D02*
X115951000Y-76758800D01*
X108293600Y-51396200D02*
X108331000Y-51358800D01*
D32*
X94996000Y-48818800D02*
X98171000Y-48818800D01*
D30*
X116586000Y-71678800D02*
X115951000Y-71678800D01*
X79121000Y-45008800D02*
X80391000Y-43738800D01*
X92456000Y-45008800D02*
X92456000Y-47548800D01*
X89916000Y-43738800D02*
X90551000Y-43103800D01*
X117221000Y-58343800D02*
X117221000Y-71043800D01*
X108331000Y-51358800D02*
X108331000Y-51433600D01*
X108891200Y-51993800D02*
X110871000Y-51993800D01*
X98171000Y-48818800D02*
X100748400Y-51396200D01*
D31*
%TO.N,Net-(J2-DAT0)*%
X111506000Y-91363800D02*
X115316000Y-95173800D01*
X114046000Y-106603800D02*
X114046000Y-99618800D01*
X111506000Y-85013800D02*
X111506000Y-91363800D01*
X79756000Y-102158800D02*
X98171000Y-102158800D01*
X111506000Y-107238800D02*
X113411000Y-107238800D01*
X115316000Y-98348800D02*
X115316000Y-95173800D01*
X114046000Y-99618800D02*
X115316000Y-98348800D01*
X113411000Y-107238800D02*
X114046000Y-106603800D01*
%TO.N,Net-(J2-CLK)*%
X84836000Y-108508800D02*
X82931000Y-110413800D01*
X87376000Y-105968800D02*
X87376000Y-107873800D01*
X87376000Y-107873800D02*
X86741000Y-108508800D01*
X86741000Y-108508800D02*
X84836000Y-108508800D01*
X98171000Y-105333800D02*
X88011000Y-105333800D01*
X88011000Y-105333800D02*
X87376000Y-105968800D01*
%TO.N,Net-(J2-DAT3{slash}CD)*%
X77851000Y-102158800D02*
X79121000Y-100888800D01*
X77216000Y-102158800D02*
X77851000Y-102158800D01*
X79121000Y-100888800D02*
X83566000Y-100888800D01*
%TO.N,Net-(J2-CMD)*%
X82931000Y-113588800D02*
X83566000Y-113588800D01*
X86106000Y-111048800D02*
X96266000Y-111048800D01*
X83566000Y-113588800D02*
X86106000Y-111048800D01*
X111506000Y-100888800D02*
X111506000Y-94538800D01*
X96266000Y-111048800D02*
X98171000Y-111048800D01*
%TO.N,Net-(JP1-B)*%
X67201400Y-81349200D02*
X68326000Y-82473800D01*
X67201400Y-48818800D02*
X67201400Y-81349200D01*
X67201400Y-45543400D02*
X67201400Y-48818800D01*
X68331000Y-44413800D02*
X67201400Y-45543400D01*
%TO.N,Net-(JP2-C)*%
X89401000Y-55683800D02*
X84081000Y-55683800D01*
X89799000Y-52501800D02*
X89799000Y-55285800D01*
X83566000Y-55168800D02*
X83566000Y-53898800D01*
X84081000Y-55683800D02*
X83566000Y-55168800D01*
X89799000Y-55285800D02*
X89401000Y-55683800D01*
%TO.N,Net-(JP3-C)*%
X87376000Y-49453800D02*
X91821000Y-49453800D01*
X86106000Y-48183800D02*
X87376000Y-49453800D01*
X80391000Y-47548800D02*
X80391000Y-46278800D01*
X81026000Y-45643800D02*
X83720077Y-42949723D01*
X84836000Y-45643800D02*
X86106000Y-46913800D01*
X83536000Y-51358800D02*
X83536000Y-48788800D01*
X92339000Y-49971800D02*
X92339000Y-52501800D01*
X91821000Y-49453800D02*
X92339000Y-49971800D01*
X83536000Y-48788800D02*
X82931000Y-48183800D01*
X82931000Y-48183800D02*
X81026000Y-48183800D01*
X81026000Y-48183800D02*
X80391000Y-47548800D01*
X80391000Y-46278800D02*
X81026000Y-45643800D01*
X86106000Y-46913800D02*
X86106000Y-48183800D01*
%TO.N,Net-(MOD1-GPIO1{slash}TXD)*%
X101981000Y-112318800D02*
X102616000Y-111683800D01*
X105156000Y-113588800D02*
X105156000Y-112318800D01*
X103251000Y-115493800D02*
X105156000Y-113588800D01*
X105156000Y-112318800D02*
X104521000Y-111683800D01*
X102616000Y-111683800D02*
X104521000Y-111683800D01*
X103251000Y-119303800D02*
X103251000Y-115493800D01*
X88011000Y-112318800D02*
X101981000Y-112318800D01*
%TO.N,Net-(MOD1-GPIO3{slash}RXD)*%
X104521000Y-116128800D02*
X106426000Y-114223800D01*
X106426000Y-114223800D02*
X106426000Y-112318800D01*
X106426000Y-111048800D02*
X105156000Y-109778800D01*
X106426000Y-112318800D02*
X106426000Y-111048800D01*
X105156000Y-109778800D02*
X88011000Y-109778800D01*
%TO.N,Net-(MOD1-GPIO0)*%
X112776000Y-103428800D02*
X112776000Y-98348800D01*
X113411000Y-97713800D02*
X112776000Y-98348800D01*
X111506000Y-104063800D02*
X112141000Y-104063800D01*
X114046000Y-97713800D02*
X113411000Y-97713800D01*
X112141000Y-104063800D02*
X112776000Y-103428800D01*
X105791000Y-104063800D02*
X88011000Y-104063800D01*
%TO.N,Net-(MOD1-~{RST})*%
X115062000Y-99648806D02*
X115062000Y-107365800D01*
X114300000Y-108127800D02*
X114300000Y-110794800D01*
X114300000Y-110794800D02*
X111506000Y-113588800D01*
X116586000Y-94538800D02*
X116586000Y-98124806D01*
X114046000Y-91998800D02*
X116586000Y-94538800D01*
X116586000Y-98124806D02*
X115062000Y-99648806D01*
X114046000Y-85013800D02*
X114046000Y-91998800D01*
X115062000Y-107365800D02*
X114300000Y-108127800D01*
%TO.N,Net-(MOD1-GPIO16)*%
X107061000Y-102793800D02*
X107061000Y-105333800D01*
X74041000Y-98983800D02*
X75311000Y-100253800D01*
X106426000Y-105968800D02*
X103251000Y-105968800D01*
X99441000Y-98983800D02*
X102616000Y-102158800D01*
X106426000Y-102158800D02*
X107061000Y-102793800D01*
X107061000Y-105333800D02*
X106426000Y-105968800D01*
X102616000Y-102158800D02*
X106426000Y-102158800D01*
X69596000Y-98983800D02*
X74041000Y-98983800D01*
X78486000Y-100253800D02*
X79756000Y-98983800D01*
X75311000Y-100253800D02*
X78486000Y-100253800D01*
X79756000Y-98983800D02*
X99441000Y-98983800D01*
D30*
%TO.N,Net-(Q1-B)*%
X78486000Y-97713800D02*
X78486000Y-95808800D01*
X77216000Y-98983800D02*
X78486000Y-97713800D01*
%TD*%
M02*
