M48
; DRILL file {KiCad 9.0.0} date 2025-08-10T17:42:32-0300
; FORMAT={-:-/ absolute / metric / decimal}
; #@! TF.CreationDate,2025-08-10T17:42:32-03:00
; #@! TF.GenerationSoftware,Kicad,Pcbnew,9.0.0
; #@! TF.FileFunction,Plated,1,2,PTH
FMAT,2
METRIC
; #@! TA.AperFunction,Plated,PTH,ViaDrill
T1C0.610
; #@! TA.AperFunction,Plated,PTH,ComponentDrill
T2C0.700
; #@! TA.AperFunction,Plated,PTH,ComponentDrill
T3C0.750
; #@! TA.AperFunction,Plated,PTH,ComponentDrill
T4C0.800
; #@! TA.AperFunction,Plated,PTH,ComponentDrill
T5C0.900
; #@! TA.AperFunction,Plated,PTH,ComponentDrill
T6C1.000
; #@! TA.AperFunction,Plated,PTH,ComponentDrill
T7C1.016
; #@! TA.AperFunction,Plated,PTH,ComponentDrill
T8C1.800
; #@! TA.AperFunction,Plated,PTH,ComponentDrill
T9C2.200
%
G90
G05
T1
X68.326Y-82.474
X70.866Y-93.904
X74.041Y-45.009
X77.851Y-109.779
X77.851Y-112.319
X78.486Y-95.809
X79.756Y-102.159
X80.391Y-95.809
X81.661Y-46.914
X82.931Y-110.414
X82.931Y-113.589
X83.566Y-100.889
X85.471Y-96.444
X88.011Y-104.064
X88.011Y-109.779
X88.011Y-112.319
X90.551Y-43.104
X98.171Y-102.159
X98.171Y-105.334
X98.171Y-111.049
X101.981Y-48.819
X101.981Y-52.629
X103.251Y-93.904
X103.251Y-105.969
X103.251Y-119.304
X104.521Y-52.629
X104.521Y-116.129
X105.791Y-104.064
X107.061Y-48.819
X107.696Y-90.094
X111.506Y-85.014
X111.506Y-94.539
X114.046Y-85.014
X114.046Y-97.714
X115.951Y-111.684
T2
X68.961Y-47.549
X69.596Y-98.984
X69.596Y-102.159
X76.581Y-47.549
X77.216Y-98.984
X77.216Y-102.159
X96.266Y-45.009
X96.266Y-47.549
X96.266Y-50.089
X103.886Y-45.009
X103.886Y-47.549
X103.886Y-50.089
X111.506Y-100.889
X111.506Y-104.064
X111.506Y-107.239
X111.506Y-110.414
X111.506Y-113.589
X119.126Y-100.889
X119.126Y-104.064
X119.126Y-107.239
X119.126Y-110.414
X119.126Y-113.589
T3
X79.756Y-89.429
X79.756Y-91.969
X81.026Y-90.709
T4
X75.946Y-40.629
X75.946Y-43.129
X75.946Y-50.089
X75.946Y-52.589
X103.291Y-100.889
X103.291Y-113.589
X106.065Y-46.416
X108.291Y-100.889
X108.291Y-113.589
X109.601Y-49.952
T5
X68.331Y-44.414
X70.871Y-44.414
T6
X89.799Y-52.502
X92.339Y-52.502
X94.879Y-52.502
X97.419Y-52.502
T7
X105.156Y-118.034
X107.696Y-117.399
X110.236Y-118.034
X112.776Y-117.399
X115.316Y-118.034
X117.856Y-117.399
T8
X77.861Y-107.259
X77.871Y-117.319
T9
G00X88.201Y-38.833
M15
G01X98.001Y-38.833
M16
G05
M30
