%TF.GenerationSoftware,KiCad,Pcbnew,9.0.0*%
%TF.CreationDate,2025-08-10T17:42:25-03:00*%
%TF.ProjectId,BadgeGaroa_r2,42616467-6547-4617-926f-615f72322e6b,rev?*%
%TF.SameCoordinates,Original*%
%TF.FileFunction,Profile,NP*%
%FSLAX46Y46*%
G04 Gerber Fmt 4.6, Leading zero omitted, Abs format (unit mm)*
G04 Created by KiCad (PCBNEW 9.0.0) date 2025-08-10 17:42:25*
%MOMM*%
%LPD*%
G01*
G04 APERTURE LIST*
%TA.AperFunction,Profile*%
%ADD10C,0.050000*%
%TD*%
G04 APERTURE END LIST*
D10*
X68529200Y-35110987D02*
X66497200Y-37160200D01*
X88968013Y-35110987D02*
X68529200Y-35110987D01*
X120464013Y-118846600D02*
X118465600Y-120835987D01*
X68503800Y-120827800D02*
X66497200Y-118821200D01*
X76073000Y-56388000D02*
X111125000Y-56388000D01*
X120446800Y-43713400D02*
X113411000Y-50723800D01*
X111125000Y-79883000D02*
X99695000Y-79883000D01*
X120446800Y-57759600D02*
X120464013Y-118846600D01*
X88968013Y-35110987D02*
X97815400Y-35110987D01*
X97815400Y-35110987D02*
X104902000Y-42214800D01*
X93599000Y-81280000D02*
X87503000Y-81280000D01*
X111988600Y-35128200D02*
X113690400Y-35128200D01*
X76073000Y-79883000D02*
X76073000Y-56388000D01*
X120396000Y-57708800D02*
X120446800Y-57759600D01*
X66497200Y-57581800D02*
X66489013Y-118821200D01*
X99695000Y-81280000D02*
X99695000Y-79883000D01*
X66497200Y-57581800D02*
X66497200Y-37160200D01*
X93599000Y-81280000D02*
X99695000Y-81280000D01*
X113411000Y-50723800D02*
X120396000Y-57708800D01*
X87503000Y-81280000D02*
X87503000Y-79883000D01*
X68503800Y-120835987D02*
X118465600Y-120835987D01*
X120446800Y-41884600D02*
X120446800Y-43713400D01*
X113690400Y-35128200D02*
X120446800Y-41884600D01*
X104902000Y-42214800D02*
X111988600Y-35128200D01*
X87503000Y-79883000D02*
X76073000Y-79883000D01*
X111125000Y-56388000D02*
X111125000Y-79883000D01*
M02*
