%TF.GenerationSoftware,KiCad,Pcbnew,9.0.0*%
%TF.CreationDate,2025-08-10T17:42:25-03:00*%
%TF.ProjectId,BadgeGaroa_r2,42616467-6547-4617-926f-615f72322e6b,rev?*%
%TF.SameCoordinates,Original*%
%TF.FileFunction,Legend,Bot*%
%TF.FilePolarity,Positive*%
%FSLAX46Y46*%
G04 Gerber Fmt 4.6, Leading zero omitted, Abs format (unit mm)*
G04 Created by KiCad (PCBNEW 9.0.0) date 2025-08-10 17:42:25*
%MOMM*%
%LPD*%
G01*
G04 APERTURE LIST*
%ADD10C,0.150000*%
%ADD11C,0.100000*%
%ADD12C,0.300000*%
%ADD13C,0.149860*%
%ADD14C,0.000000*%
%ADD15C,0.120000*%
G04 APERTURE END LIST*
D10*
X87000335Y-119450528D02*
X87271268Y-119063481D01*
X87464792Y-119450528D02*
X87464792Y-118637728D01*
X87464792Y-118637728D02*
X87155154Y-118637728D01*
X87155154Y-118637728D02*
X87077744Y-118676433D01*
X87077744Y-118676433D02*
X87039039Y-118715138D01*
X87039039Y-118715138D02*
X87000335Y-118792547D01*
X87000335Y-118792547D02*
X87000335Y-118908662D01*
X87000335Y-118908662D02*
X87039039Y-118986071D01*
X87039039Y-118986071D02*
X87077744Y-119024776D01*
X87077744Y-119024776D02*
X87155154Y-119063481D01*
X87155154Y-119063481D02*
X87464792Y-119063481D01*
X86651992Y-119024776D02*
X86381058Y-119024776D01*
X86264944Y-119450528D02*
X86651992Y-119450528D01*
X86651992Y-119450528D02*
X86651992Y-118637728D01*
X86651992Y-118637728D02*
X86264944Y-118637728D01*
X86032716Y-118637728D02*
X85761783Y-119450528D01*
X85761783Y-119450528D02*
X85490849Y-118637728D01*
X85219916Y-119373119D02*
X85181211Y-119411824D01*
X85181211Y-119411824D02*
X85219916Y-119450528D01*
X85219916Y-119450528D02*
X85258620Y-119411824D01*
X85258620Y-119411824D02*
X85219916Y-119373119D01*
X85219916Y-119373119D02*
X85219916Y-119450528D01*
X84058773Y-118637728D02*
X83981363Y-118637728D01*
X83981363Y-118637728D02*
X83903954Y-118676433D01*
X83903954Y-118676433D02*
X83865249Y-118715138D01*
X83865249Y-118715138D02*
X83826544Y-118792547D01*
X83826544Y-118792547D02*
X83787839Y-118947366D01*
X83787839Y-118947366D02*
X83787839Y-119140890D01*
X83787839Y-119140890D02*
X83826544Y-119295709D01*
X83826544Y-119295709D02*
X83865249Y-119373119D01*
X83865249Y-119373119D02*
X83903954Y-119411824D01*
X83903954Y-119411824D02*
X83981363Y-119450528D01*
X83981363Y-119450528D02*
X84058773Y-119450528D01*
X84058773Y-119450528D02*
X84136182Y-119411824D01*
X84136182Y-119411824D02*
X84174887Y-119373119D01*
X84174887Y-119373119D02*
X84213592Y-119295709D01*
X84213592Y-119295709D02*
X84252296Y-119140890D01*
X84252296Y-119140890D02*
X84252296Y-118947366D01*
X84252296Y-118947366D02*
X84213592Y-118792547D01*
X84213592Y-118792547D02*
X84174887Y-118715138D01*
X84174887Y-118715138D02*
X84136182Y-118676433D01*
X84136182Y-118676433D02*
X84058773Y-118637728D01*
X82820221Y-119140890D02*
X82200945Y-119140890D01*
X81233325Y-119218300D02*
X80846278Y-119218300D01*
X81310735Y-119450528D02*
X81039802Y-118637728D01*
X81039802Y-118637728D02*
X80768868Y-119450528D01*
X80072182Y-118676433D02*
X80149592Y-118637728D01*
X80149592Y-118637728D02*
X80265706Y-118637728D01*
X80265706Y-118637728D02*
X80381820Y-118676433D01*
X80381820Y-118676433D02*
X80459230Y-118753843D01*
X80459230Y-118753843D02*
X80497935Y-118831252D01*
X80497935Y-118831252D02*
X80536639Y-118986071D01*
X80536639Y-118986071D02*
X80536639Y-119102185D01*
X80536639Y-119102185D02*
X80497935Y-119257004D01*
X80497935Y-119257004D02*
X80459230Y-119334414D01*
X80459230Y-119334414D02*
X80381820Y-119411824D01*
X80381820Y-119411824D02*
X80265706Y-119450528D01*
X80265706Y-119450528D02*
X80188297Y-119450528D01*
X80188297Y-119450528D02*
X80072182Y-119411824D01*
X80072182Y-119411824D02*
X80033478Y-119373119D01*
X80033478Y-119373119D02*
X80033478Y-119102185D01*
X80033478Y-119102185D02*
X80188297Y-119102185D01*
X79530316Y-118637728D02*
X79375497Y-118637728D01*
X79375497Y-118637728D02*
X79298087Y-118676433D01*
X79298087Y-118676433D02*
X79220678Y-118753843D01*
X79220678Y-118753843D02*
X79181973Y-118908662D01*
X79181973Y-118908662D02*
X79181973Y-119179595D01*
X79181973Y-119179595D02*
X79220678Y-119334414D01*
X79220678Y-119334414D02*
X79298087Y-119411824D01*
X79298087Y-119411824D02*
X79375497Y-119450528D01*
X79375497Y-119450528D02*
X79530316Y-119450528D01*
X79530316Y-119450528D02*
X79607725Y-119411824D01*
X79607725Y-119411824D02*
X79685135Y-119334414D01*
X79685135Y-119334414D02*
X79723839Y-119179595D01*
X79723839Y-119179595D02*
X79723839Y-118908662D01*
X79723839Y-118908662D02*
X79685135Y-118753843D01*
X79685135Y-118753843D02*
X79607725Y-118676433D01*
X79607725Y-118676433D02*
X79530316Y-118637728D01*
X78872334Y-118715138D02*
X78833630Y-118676433D01*
X78833630Y-118676433D02*
X78756220Y-118637728D01*
X78756220Y-118637728D02*
X78562696Y-118637728D01*
X78562696Y-118637728D02*
X78485287Y-118676433D01*
X78485287Y-118676433D02*
X78446582Y-118715138D01*
X78446582Y-118715138D02*
X78407877Y-118792547D01*
X78407877Y-118792547D02*
X78407877Y-118869957D01*
X78407877Y-118869957D02*
X78446582Y-118986071D01*
X78446582Y-118986071D02*
X78911039Y-119450528D01*
X78911039Y-119450528D02*
X78407877Y-119450528D01*
X77904716Y-118637728D02*
X77827306Y-118637728D01*
X77827306Y-118637728D02*
X77749897Y-118676433D01*
X77749897Y-118676433D02*
X77711192Y-118715138D01*
X77711192Y-118715138D02*
X77672487Y-118792547D01*
X77672487Y-118792547D02*
X77633782Y-118947366D01*
X77633782Y-118947366D02*
X77633782Y-119140890D01*
X77633782Y-119140890D02*
X77672487Y-119295709D01*
X77672487Y-119295709D02*
X77711192Y-119373119D01*
X77711192Y-119373119D02*
X77749897Y-119411824D01*
X77749897Y-119411824D02*
X77827306Y-119450528D01*
X77827306Y-119450528D02*
X77904716Y-119450528D01*
X77904716Y-119450528D02*
X77982125Y-119411824D01*
X77982125Y-119411824D02*
X78020830Y-119373119D01*
X78020830Y-119373119D02*
X78059535Y-119295709D01*
X78059535Y-119295709D02*
X78098239Y-119140890D01*
X78098239Y-119140890D02*
X78098239Y-118947366D01*
X78098239Y-118947366D02*
X78059535Y-118792547D01*
X78059535Y-118792547D02*
X78020830Y-118715138D01*
X78020830Y-118715138D02*
X77982125Y-118676433D01*
X77982125Y-118676433D02*
X77904716Y-118637728D01*
X77324144Y-118715138D02*
X77285440Y-118676433D01*
X77285440Y-118676433D02*
X77208030Y-118637728D01*
X77208030Y-118637728D02*
X77014506Y-118637728D01*
X77014506Y-118637728D02*
X76937097Y-118676433D01*
X76937097Y-118676433D02*
X76898392Y-118715138D01*
X76898392Y-118715138D02*
X76859687Y-118792547D01*
X76859687Y-118792547D02*
X76859687Y-118869957D01*
X76859687Y-118869957D02*
X76898392Y-118986071D01*
X76898392Y-118986071D02*
X77362849Y-119450528D01*
X77362849Y-119450528D02*
X76859687Y-119450528D01*
X76124297Y-118637728D02*
X76511345Y-118637728D01*
X76511345Y-118637728D02*
X76550049Y-119024776D01*
X76550049Y-119024776D02*
X76511345Y-118986071D01*
X76511345Y-118986071D02*
X76433935Y-118947366D01*
X76433935Y-118947366D02*
X76240411Y-118947366D01*
X76240411Y-118947366D02*
X76163002Y-118986071D01*
X76163002Y-118986071D02*
X76124297Y-119024776D01*
X76124297Y-119024776D02*
X76085592Y-119102185D01*
X76085592Y-119102185D02*
X76085592Y-119295709D01*
X76085592Y-119295709D02*
X76124297Y-119373119D01*
X76124297Y-119373119D02*
X76163002Y-119411824D01*
X76163002Y-119411824D02*
X76240411Y-119450528D01*
X76240411Y-119450528D02*
X76433935Y-119450528D01*
X76433935Y-119450528D02*
X76511345Y-119411824D01*
X76511345Y-119411824D02*
X76550049Y-119373119D01*
D11*
X113531681Y-48712395D02*
X113066418Y-49177657D01*
X113066418Y-49177657D02*
X112984313Y-49205026D01*
X112984313Y-49205026D02*
X112929576Y-49205026D01*
X112929576Y-49205026D02*
X112847471Y-49177657D01*
X112847471Y-49177657D02*
X112737997Y-49068184D01*
X112737997Y-49068184D02*
X112710629Y-48986079D01*
X112710629Y-48986079D02*
X112710629Y-48931342D01*
X112710629Y-48931342D02*
X112737997Y-48849237D01*
X112737997Y-48849237D02*
X113203260Y-48383974D01*
X112409576Y-48685026D02*
X112300103Y-48630289D01*
X112300103Y-48630289D02*
X112163261Y-48493447D01*
X112163261Y-48493447D02*
X112135892Y-48411342D01*
X112135892Y-48411342D02*
X112135892Y-48356605D01*
X112135892Y-48356605D02*
X112163261Y-48274500D01*
X112163261Y-48274500D02*
X112217997Y-48219763D01*
X112217997Y-48219763D02*
X112300103Y-48192395D01*
X112300103Y-48192395D02*
X112354839Y-48192395D01*
X112354839Y-48192395D02*
X112436945Y-48219763D01*
X112436945Y-48219763D02*
X112573787Y-48301868D01*
X112573787Y-48301868D02*
X112655892Y-48329237D01*
X112655892Y-48329237D02*
X112710629Y-48329237D01*
X112710629Y-48329237D02*
X112792734Y-48301868D01*
X112792734Y-48301868D02*
X112847471Y-48247132D01*
X112847471Y-48247132D02*
X112874839Y-48165026D01*
X112874839Y-48165026D02*
X112874839Y-48110290D01*
X112874839Y-48110290D02*
X112847471Y-48028184D01*
X112847471Y-48028184D02*
X112710629Y-47891342D01*
X112710629Y-47891342D02*
X112601155Y-47836606D01*
X111916945Y-47645027D02*
X111807472Y-47590290D01*
X111807472Y-47590290D02*
X111752735Y-47590290D01*
X111752735Y-47590290D02*
X111670630Y-47617659D01*
X111670630Y-47617659D02*
X111588524Y-47699764D01*
X111588524Y-47699764D02*
X111561156Y-47781869D01*
X111561156Y-47781869D02*
X111561156Y-47836606D01*
X111561156Y-47836606D02*
X111588524Y-47918711D01*
X111588524Y-47918711D02*
X111807472Y-48137658D01*
X111807472Y-48137658D02*
X112382208Y-47562922D01*
X112382208Y-47562922D02*
X112190629Y-47371343D01*
X112190629Y-47371343D02*
X112108524Y-47343975D01*
X112108524Y-47343975D02*
X112053787Y-47343975D01*
X112053787Y-47343975D02*
X111971682Y-47371343D01*
X111971682Y-47371343D02*
X111916945Y-47426080D01*
X111916945Y-47426080D02*
X111889577Y-47508185D01*
X111889577Y-47508185D02*
X111889577Y-47562922D01*
X111889577Y-47562922D02*
X111916945Y-47645027D01*
X111916945Y-47645027D02*
X112108524Y-47836606D01*
X111260104Y-46823975D02*
X111041157Y-46605028D01*
X110794841Y-47125027D02*
X111287472Y-46632396D01*
X111287472Y-46632396D02*
X111314841Y-46550291D01*
X111314841Y-46550291D02*
X111287472Y-46468186D01*
X111287472Y-46468186D02*
X111232735Y-46413449D01*
X110384315Y-46714502D02*
X110466420Y-46741870D01*
X110466420Y-46741870D02*
X110521157Y-46741870D01*
X110521157Y-46741870D02*
X110603262Y-46714502D01*
X110603262Y-46714502D02*
X110767473Y-46550291D01*
X110767473Y-46550291D02*
X110794841Y-46468186D01*
X110794841Y-46468186D02*
X110794841Y-46413449D01*
X110794841Y-46413449D02*
X110767473Y-46331344D01*
X110767473Y-46331344D02*
X110685367Y-46249239D01*
X110685367Y-46249239D02*
X110603262Y-46221870D01*
X110603262Y-46221870D02*
X110548525Y-46221870D01*
X110548525Y-46221870D02*
X110466420Y-46249239D01*
X110466420Y-46249239D02*
X110302210Y-46413449D01*
X110302210Y-46413449D02*
X110274841Y-46495554D01*
X110274841Y-46495554D02*
X110274841Y-46550291D01*
X110274841Y-46550291D02*
X110302210Y-46632396D01*
X110302210Y-46632396D02*
X110384315Y-46714502D01*
X109946421Y-46276608D02*
X110329579Y-45893450D01*
X110220105Y-46002924D02*
X110247473Y-45920818D01*
X110247473Y-45920818D02*
X110247473Y-45866082D01*
X110247473Y-45866082D02*
X110220105Y-45783976D01*
X110220105Y-45783976D02*
X110165368Y-45729240D01*
X108933790Y-45209240D02*
X108961159Y-45291345D01*
X108961159Y-45291345D02*
X109070632Y-45400819D01*
X109070632Y-45400819D02*
X109152737Y-45428187D01*
X109152737Y-45428187D02*
X109207474Y-45428187D01*
X109207474Y-45428187D02*
X109289579Y-45400819D01*
X109289579Y-45400819D02*
X109453790Y-45236608D01*
X109453790Y-45236608D02*
X109481158Y-45154503D01*
X109481158Y-45154503D02*
X109481158Y-45099766D01*
X109481158Y-45099766D02*
X109453790Y-45017661D01*
X109453790Y-45017661D02*
X109344316Y-44908188D01*
X109344316Y-44908188D02*
X109262211Y-44880819D01*
X108660106Y-44990293D02*
X109234842Y-44415556D01*
X108413790Y-44743977D02*
X108714843Y-44442925D01*
X108714843Y-44442925D02*
X108796948Y-44415556D01*
X108796948Y-44415556D02*
X108879053Y-44442925D01*
X108879053Y-44442925D02*
X108961158Y-44525030D01*
X108961158Y-44525030D02*
X108988527Y-44607135D01*
X108988527Y-44607135D02*
X108988527Y-44661872D01*
X107893791Y-44223978D02*
X108194844Y-43922925D01*
X108194844Y-43922925D02*
X108276949Y-43895557D01*
X108276949Y-43895557D02*
X108359054Y-43922925D01*
X108359054Y-43922925D02*
X108468528Y-44032399D01*
X108468528Y-44032399D02*
X108495896Y-44114504D01*
X107921160Y-44196609D02*
X107948528Y-44278715D01*
X107948528Y-44278715D02*
X108085370Y-44415557D01*
X108085370Y-44415557D02*
X108167475Y-44442925D01*
X108167475Y-44442925D02*
X108249580Y-44415557D01*
X108249580Y-44415557D02*
X108304317Y-44360820D01*
X108304317Y-44360820D02*
X108331686Y-44278715D01*
X108331686Y-44278715D02*
X108304317Y-44196609D01*
X108304317Y-44196609D02*
X108167475Y-44059767D01*
X108167475Y-44059767D02*
X108140107Y-43977662D01*
X107620108Y-43950294D02*
X108003265Y-43567137D01*
X107893792Y-43676610D02*
X107921160Y-43594505D01*
X107921160Y-43594505D02*
X107921160Y-43539768D01*
X107921160Y-43539768D02*
X107893792Y-43457663D01*
X107893792Y-43457663D02*
X107839055Y-43402926D01*
X107401160Y-42965032D02*
X106935898Y-43430294D01*
X106935898Y-43430294D02*
X106908529Y-43512400D01*
X106908529Y-43512400D02*
X106908529Y-43567136D01*
X106908529Y-43567136D02*
X106935898Y-43649242D01*
X106935898Y-43649242D02*
X107018003Y-43731347D01*
X107018003Y-43731347D02*
X107100108Y-43758715D01*
X107045371Y-43320821D02*
X107072740Y-43402926D01*
X107072740Y-43402926D02*
X107182213Y-43512400D01*
X107182213Y-43512400D02*
X107264318Y-43539768D01*
X107264318Y-43539768D02*
X107319055Y-43539768D01*
X107319055Y-43539768D02*
X107401160Y-43512400D01*
X107401160Y-43512400D02*
X107565371Y-43348189D01*
X107565371Y-43348189D02*
X107592739Y-43266084D01*
X107592739Y-43266084D02*
X107592739Y-43211347D01*
X107592739Y-43211347D02*
X107565371Y-43129242D01*
X107565371Y-43129242D02*
X107455897Y-43019768D01*
X107455897Y-43019768D02*
X107373792Y-42992400D01*
X106552740Y-42828190D02*
X106580109Y-42910295D01*
X106580109Y-42910295D02*
X106689582Y-43019769D01*
X106689582Y-43019769D02*
X106771687Y-43047137D01*
X106771687Y-43047137D02*
X106853793Y-43019769D01*
X106853793Y-43019769D02*
X107072740Y-42800822D01*
X107072740Y-42800822D02*
X107100108Y-42718716D01*
X107100108Y-42718716D02*
X107072740Y-42636611D01*
X107072740Y-42636611D02*
X106963266Y-42527138D01*
X106963266Y-42527138D02*
X106881161Y-42499769D01*
X106881161Y-42499769D02*
X106799056Y-42527138D01*
X106799056Y-42527138D02*
X106744319Y-42581874D01*
X106744319Y-42581874D02*
X106963266Y-42910295D01*
X111949546Y-50130319D02*
X112031651Y-50157687D01*
X112031651Y-50157687D02*
X112086388Y-50157687D01*
X112086388Y-50157687D02*
X112168493Y-50130319D01*
X112168493Y-50130319D02*
X112332704Y-49966108D01*
X112332704Y-49966108D02*
X112360072Y-49884003D01*
X112360072Y-49884003D02*
X112360072Y-49829266D01*
X112360072Y-49829266D02*
X112332704Y-49747161D01*
X112332704Y-49747161D02*
X112250599Y-49665056D01*
X112250599Y-49665056D02*
X112168493Y-49637688D01*
X112168493Y-49637688D02*
X112113757Y-49637688D01*
X112113757Y-49637688D02*
X112031651Y-49665056D01*
X112031651Y-49665056D02*
X111867441Y-49829266D01*
X111867441Y-49829266D02*
X111840073Y-49911372D01*
X111840073Y-49911372D02*
X111840073Y-49966108D01*
X111840073Y-49966108D02*
X111867441Y-50048214D01*
X111867441Y-50048214D02*
X111949546Y-50130319D01*
X111894810Y-49309267D02*
X111511652Y-49692425D01*
X111840073Y-49364004D02*
X111840073Y-49309267D01*
X111840073Y-49309267D02*
X111812705Y-49227162D01*
X111812705Y-49227162D02*
X111730599Y-49145057D01*
X111730599Y-49145057D02*
X111648494Y-49117688D01*
X111648494Y-49117688D02*
X111566389Y-49145057D01*
X111566389Y-49145057D02*
X111265337Y-49446109D01*
X110909548Y-49090320D02*
X110991653Y-49117689D01*
X110991653Y-49117689D02*
X111073758Y-49090320D01*
X111073758Y-49090320D02*
X111566389Y-48597689D01*
X111128495Y-48542952D02*
X110608496Y-48789268D01*
X110854811Y-48269268D02*
X110608496Y-48789268D01*
X110608496Y-48789268D02*
X110526390Y-48980847D01*
X110526390Y-48980847D02*
X110526390Y-49035584D01*
X110526390Y-49035584D02*
X110553759Y-49117689D01*
D10*
X87591792Y-115767528D02*
X87591792Y-114954728D01*
X87243449Y-115767528D02*
X87243449Y-115341776D01*
X87243449Y-115341776D02*
X87282154Y-115264366D01*
X87282154Y-115264366D02*
X87359563Y-115225662D01*
X87359563Y-115225662D02*
X87475677Y-115225662D01*
X87475677Y-115225662D02*
X87553087Y-115264366D01*
X87553087Y-115264366D02*
X87591792Y-115303071D01*
X86972516Y-115225662D02*
X86662878Y-115225662D01*
X86856402Y-114954728D02*
X86856402Y-115651414D01*
X86856402Y-115651414D02*
X86817697Y-115728824D01*
X86817697Y-115728824D02*
X86740287Y-115767528D01*
X86740287Y-115767528D02*
X86662878Y-115767528D01*
X86508059Y-115225662D02*
X86198421Y-115225662D01*
X86391945Y-114954728D02*
X86391945Y-115651414D01*
X86391945Y-115651414D02*
X86353240Y-115728824D01*
X86353240Y-115728824D02*
X86275830Y-115767528D01*
X86275830Y-115767528D02*
X86198421Y-115767528D01*
X85927488Y-115225662D02*
X85927488Y-116038462D01*
X85927488Y-115264366D02*
X85850078Y-115225662D01*
X85850078Y-115225662D02*
X85695259Y-115225662D01*
X85695259Y-115225662D02*
X85617850Y-115264366D01*
X85617850Y-115264366D02*
X85579145Y-115303071D01*
X85579145Y-115303071D02*
X85540440Y-115380481D01*
X85540440Y-115380481D02*
X85540440Y-115612709D01*
X85540440Y-115612709D02*
X85579145Y-115690119D01*
X85579145Y-115690119D02*
X85617850Y-115728824D01*
X85617850Y-115728824D02*
X85695259Y-115767528D01*
X85695259Y-115767528D02*
X85850078Y-115767528D01*
X85850078Y-115767528D02*
X85927488Y-115728824D01*
X85230802Y-115728824D02*
X85153393Y-115767528D01*
X85153393Y-115767528D02*
X84998574Y-115767528D01*
X84998574Y-115767528D02*
X84921164Y-115728824D01*
X84921164Y-115728824D02*
X84882460Y-115651414D01*
X84882460Y-115651414D02*
X84882460Y-115612709D01*
X84882460Y-115612709D02*
X84921164Y-115535300D01*
X84921164Y-115535300D02*
X84998574Y-115496595D01*
X84998574Y-115496595D02*
X85114688Y-115496595D01*
X85114688Y-115496595D02*
X85192098Y-115457890D01*
X85192098Y-115457890D02*
X85230802Y-115380481D01*
X85230802Y-115380481D02*
X85230802Y-115341776D01*
X85230802Y-115341776D02*
X85192098Y-115264366D01*
X85192098Y-115264366D02*
X85114688Y-115225662D01*
X85114688Y-115225662D02*
X84998574Y-115225662D01*
X84998574Y-115225662D02*
X84921164Y-115264366D01*
X84534117Y-115690119D02*
X84495412Y-115728824D01*
X84495412Y-115728824D02*
X84534117Y-115767528D01*
X84534117Y-115767528D02*
X84572821Y-115728824D01*
X84572821Y-115728824D02*
X84534117Y-115690119D01*
X84534117Y-115690119D02*
X84534117Y-115767528D01*
X84534117Y-115264366D02*
X84495412Y-115303071D01*
X84495412Y-115303071D02*
X84534117Y-115341776D01*
X84534117Y-115341776D02*
X84572821Y-115303071D01*
X84572821Y-115303071D02*
X84534117Y-115264366D01*
X84534117Y-115264366D02*
X84534117Y-115341776D01*
X83566497Y-114916024D02*
X84263183Y-115961052D01*
X82714992Y-114916024D02*
X83411678Y-115961052D01*
X82095716Y-115225662D02*
X82095716Y-115883643D01*
X82095716Y-115883643D02*
X82134421Y-115961052D01*
X82134421Y-115961052D02*
X82173125Y-115999757D01*
X82173125Y-115999757D02*
X82250535Y-116038462D01*
X82250535Y-116038462D02*
X82366649Y-116038462D01*
X82366649Y-116038462D02*
X82444059Y-115999757D01*
X82095716Y-115728824D02*
X82173125Y-115767528D01*
X82173125Y-115767528D02*
X82327944Y-115767528D01*
X82327944Y-115767528D02*
X82405354Y-115728824D01*
X82405354Y-115728824D02*
X82444059Y-115690119D01*
X82444059Y-115690119D02*
X82482763Y-115612709D01*
X82482763Y-115612709D02*
X82482763Y-115380481D01*
X82482763Y-115380481D02*
X82444059Y-115303071D01*
X82444059Y-115303071D02*
X82405354Y-115264366D01*
X82405354Y-115264366D02*
X82327944Y-115225662D01*
X82327944Y-115225662D02*
X82173125Y-115225662D01*
X82173125Y-115225662D02*
X82095716Y-115264366D01*
X81360326Y-115767528D02*
X81360326Y-115341776D01*
X81360326Y-115341776D02*
X81399031Y-115264366D01*
X81399031Y-115264366D02*
X81476440Y-115225662D01*
X81476440Y-115225662D02*
X81631259Y-115225662D01*
X81631259Y-115225662D02*
X81708669Y-115264366D01*
X81360326Y-115728824D02*
X81437735Y-115767528D01*
X81437735Y-115767528D02*
X81631259Y-115767528D01*
X81631259Y-115767528D02*
X81708669Y-115728824D01*
X81708669Y-115728824D02*
X81747373Y-115651414D01*
X81747373Y-115651414D02*
X81747373Y-115574004D01*
X81747373Y-115574004D02*
X81708669Y-115496595D01*
X81708669Y-115496595D02*
X81631259Y-115457890D01*
X81631259Y-115457890D02*
X81437735Y-115457890D01*
X81437735Y-115457890D02*
X81360326Y-115419185D01*
X80973279Y-115767528D02*
X80973279Y-115225662D01*
X80973279Y-115380481D02*
X80934574Y-115303071D01*
X80934574Y-115303071D02*
X80895869Y-115264366D01*
X80895869Y-115264366D02*
X80818460Y-115225662D01*
X80818460Y-115225662D02*
X80741050Y-115225662D01*
X80354002Y-115767528D02*
X80431412Y-115728824D01*
X80431412Y-115728824D02*
X80470117Y-115690119D01*
X80470117Y-115690119D02*
X80508821Y-115612709D01*
X80508821Y-115612709D02*
X80508821Y-115380481D01*
X80508821Y-115380481D02*
X80470117Y-115303071D01*
X80470117Y-115303071D02*
X80431412Y-115264366D01*
X80431412Y-115264366D02*
X80354002Y-115225662D01*
X80354002Y-115225662D02*
X80237888Y-115225662D01*
X80237888Y-115225662D02*
X80160479Y-115264366D01*
X80160479Y-115264366D02*
X80121774Y-115303071D01*
X80121774Y-115303071D02*
X80083069Y-115380481D01*
X80083069Y-115380481D02*
X80083069Y-115612709D01*
X80083069Y-115612709D02*
X80121774Y-115690119D01*
X80121774Y-115690119D02*
X80160479Y-115728824D01*
X80160479Y-115728824D02*
X80237888Y-115767528D01*
X80237888Y-115767528D02*
X80354002Y-115767528D01*
X79386384Y-115767528D02*
X79386384Y-115341776D01*
X79386384Y-115341776D02*
X79425089Y-115264366D01*
X79425089Y-115264366D02*
X79502498Y-115225662D01*
X79502498Y-115225662D02*
X79657317Y-115225662D01*
X79657317Y-115225662D02*
X79734727Y-115264366D01*
X79386384Y-115728824D02*
X79463793Y-115767528D01*
X79463793Y-115767528D02*
X79657317Y-115767528D01*
X79657317Y-115767528D02*
X79734727Y-115728824D01*
X79734727Y-115728824D02*
X79773431Y-115651414D01*
X79773431Y-115651414D02*
X79773431Y-115574004D01*
X79773431Y-115574004D02*
X79734727Y-115496595D01*
X79734727Y-115496595D02*
X79657317Y-115457890D01*
X79657317Y-115457890D02*
X79463793Y-115457890D01*
X79463793Y-115457890D02*
X79386384Y-115419185D01*
X78999337Y-115690119D02*
X78960632Y-115728824D01*
X78960632Y-115728824D02*
X78999337Y-115767528D01*
X78999337Y-115767528D02*
X79038041Y-115728824D01*
X79038041Y-115728824D02*
X78999337Y-115690119D01*
X78999337Y-115690119D02*
X78999337Y-115767528D01*
X78612289Y-115225662D02*
X78612289Y-115767528D01*
X78612289Y-115303071D02*
X78573584Y-115264366D01*
X78573584Y-115264366D02*
X78496174Y-115225662D01*
X78496174Y-115225662D02*
X78380060Y-115225662D01*
X78380060Y-115225662D02*
X78302651Y-115264366D01*
X78302651Y-115264366D02*
X78263946Y-115341776D01*
X78263946Y-115341776D02*
X78263946Y-115767528D01*
X77567261Y-115728824D02*
X77644670Y-115767528D01*
X77644670Y-115767528D02*
X77799489Y-115767528D01*
X77799489Y-115767528D02*
X77876899Y-115728824D01*
X77876899Y-115728824D02*
X77915603Y-115651414D01*
X77915603Y-115651414D02*
X77915603Y-115341776D01*
X77915603Y-115341776D02*
X77876899Y-115264366D01*
X77876899Y-115264366D02*
X77799489Y-115225662D01*
X77799489Y-115225662D02*
X77644670Y-115225662D01*
X77644670Y-115225662D02*
X77567261Y-115264366D01*
X77567261Y-115264366D02*
X77528556Y-115341776D01*
X77528556Y-115341776D02*
X77528556Y-115419185D01*
X77528556Y-115419185D02*
X77915603Y-115496595D01*
X77296327Y-115225662D02*
X76986689Y-115225662D01*
X77180213Y-114954728D02*
X77180213Y-115651414D01*
X77180213Y-115651414D02*
X77141508Y-115728824D01*
X77141508Y-115728824D02*
X77064098Y-115767528D01*
X77064098Y-115767528D02*
X76986689Y-115767528D01*
X76715756Y-115690119D02*
X76677051Y-115728824D01*
X76677051Y-115728824D02*
X76715756Y-115767528D01*
X76715756Y-115767528D02*
X76754460Y-115728824D01*
X76754460Y-115728824D02*
X76715756Y-115690119D01*
X76715756Y-115690119D02*
X76715756Y-115767528D01*
X76328708Y-115767528D02*
X76328708Y-114954728D01*
X76328708Y-115264366D02*
X76251298Y-115225662D01*
X76251298Y-115225662D02*
X76096479Y-115225662D01*
X76096479Y-115225662D02*
X76019070Y-115264366D01*
X76019070Y-115264366D02*
X75980365Y-115303071D01*
X75980365Y-115303071D02*
X75941660Y-115380481D01*
X75941660Y-115380481D02*
X75941660Y-115612709D01*
X75941660Y-115612709D02*
X75980365Y-115690119D01*
X75980365Y-115690119D02*
X76019070Y-115728824D01*
X76019070Y-115728824D02*
X76096479Y-115767528D01*
X76096479Y-115767528D02*
X76251298Y-115767528D01*
X76251298Y-115767528D02*
X76328708Y-115728824D01*
X75593318Y-115767528D02*
X75593318Y-115225662D01*
X75593318Y-115380481D02*
X75554613Y-115303071D01*
X75554613Y-115303071D02*
X75515908Y-115264366D01*
X75515908Y-115264366D02*
X75438499Y-115225662D01*
X75438499Y-115225662D02*
X75361089Y-115225662D01*
X74509584Y-114916024D02*
X75206270Y-115961052D01*
X74316060Y-115225662D02*
X74161241Y-115767528D01*
X74161241Y-115767528D02*
X74006422Y-115380481D01*
X74006422Y-115380481D02*
X73851603Y-115767528D01*
X73851603Y-115767528D02*
X73696784Y-115225662D01*
X73387146Y-115767528D02*
X73387146Y-115225662D01*
X73387146Y-114954728D02*
X73425850Y-114993433D01*
X73425850Y-114993433D02*
X73387146Y-115032138D01*
X73387146Y-115032138D02*
X73348441Y-114993433D01*
X73348441Y-114993433D02*
X73387146Y-114954728D01*
X73387146Y-114954728D02*
X73387146Y-115032138D01*
X73000098Y-115767528D02*
X73000098Y-114954728D01*
X72922688Y-115457890D02*
X72690460Y-115767528D01*
X72690460Y-115225662D02*
X73000098Y-115535300D01*
X72342117Y-115767528D02*
X72342117Y-115225662D01*
X72342117Y-114954728D02*
X72380821Y-114993433D01*
X72380821Y-114993433D02*
X72342117Y-115032138D01*
X72342117Y-115032138D02*
X72303412Y-114993433D01*
X72303412Y-114993433D02*
X72342117Y-114954728D01*
X72342117Y-114954728D02*
X72342117Y-115032138D01*
X71374497Y-114916024D02*
X72071183Y-115961052D01*
X70832630Y-115341776D02*
X70716516Y-115380481D01*
X70716516Y-115380481D02*
X70677811Y-115419185D01*
X70677811Y-115419185D02*
X70639107Y-115496595D01*
X70639107Y-115496595D02*
X70639107Y-115612709D01*
X70639107Y-115612709D02*
X70677811Y-115690119D01*
X70677811Y-115690119D02*
X70716516Y-115728824D01*
X70716516Y-115728824D02*
X70793926Y-115767528D01*
X70793926Y-115767528D02*
X71103564Y-115767528D01*
X71103564Y-115767528D02*
X71103564Y-114954728D01*
X71103564Y-114954728D02*
X70832630Y-114954728D01*
X70832630Y-114954728D02*
X70755221Y-114993433D01*
X70755221Y-114993433D02*
X70716516Y-115032138D01*
X70716516Y-115032138D02*
X70677811Y-115109547D01*
X70677811Y-115109547D02*
X70677811Y-115186957D01*
X70677811Y-115186957D02*
X70716516Y-115264366D01*
X70716516Y-115264366D02*
X70755221Y-115303071D01*
X70755221Y-115303071D02*
X70832630Y-115341776D01*
X70832630Y-115341776D02*
X71103564Y-115341776D01*
X69942421Y-115767528D02*
X69942421Y-115341776D01*
X69942421Y-115341776D02*
X69981126Y-115264366D01*
X69981126Y-115264366D02*
X70058535Y-115225662D01*
X70058535Y-115225662D02*
X70213354Y-115225662D01*
X70213354Y-115225662D02*
X70290764Y-115264366D01*
X69942421Y-115728824D02*
X70019830Y-115767528D01*
X70019830Y-115767528D02*
X70213354Y-115767528D01*
X70213354Y-115767528D02*
X70290764Y-115728824D01*
X70290764Y-115728824D02*
X70329468Y-115651414D01*
X70329468Y-115651414D02*
X70329468Y-115574004D01*
X70329468Y-115574004D02*
X70290764Y-115496595D01*
X70290764Y-115496595D02*
X70213354Y-115457890D01*
X70213354Y-115457890D02*
X70019830Y-115457890D01*
X70019830Y-115457890D02*
X69942421Y-115419185D01*
X69207031Y-115767528D02*
X69207031Y-114954728D01*
X69207031Y-115728824D02*
X69284440Y-115767528D01*
X69284440Y-115767528D02*
X69439259Y-115767528D01*
X69439259Y-115767528D02*
X69516669Y-115728824D01*
X69516669Y-115728824D02*
X69555374Y-115690119D01*
X69555374Y-115690119D02*
X69594078Y-115612709D01*
X69594078Y-115612709D02*
X69594078Y-115380481D01*
X69594078Y-115380481D02*
X69555374Y-115303071D01*
X69555374Y-115303071D02*
X69516669Y-115264366D01*
X69516669Y-115264366D02*
X69439259Y-115225662D01*
X69439259Y-115225662D02*
X69284440Y-115225662D01*
X69284440Y-115225662D02*
X69207031Y-115264366D01*
X68471641Y-115225662D02*
X68471641Y-115883643D01*
X68471641Y-115883643D02*
X68510346Y-115961052D01*
X68510346Y-115961052D02*
X68549050Y-115999757D01*
X68549050Y-115999757D02*
X68626460Y-116038462D01*
X68626460Y-116038462D02*
X68742574Y-116038462D01*
X68742574Y-116038462D02*
X68819984Y-115999757D01*
X68471641Y-115728824D02*
X68549050Y-115767528D01*
X68549050Y-115767528D02*
X68703869Y-115767528D01*
X68703869Y-115767528D02*
X68781279Y-115728824D01*
X68781279Y-115728824D02*
X68819984Y-115690119D01*
X68819984Y-115690119D02*
X68858688Y-115612709D01*
X68858688Y-115612709D02*
X68858688Y-115380481D01*
X68858688Y-115380481D02*
X68819984Y-115303071D01*
X68819984Y-115303071D02*
X68781279Y-115264366D01*
X68781279Y-115264366D02*
X68703869Y-115225662D01*
X68703869Y-115225662D02*
X68549050Y-115225662D01*
X68549050Y-115225662D02*
X68471641Y-115264366D01*
X67774956Y-115728824D02*
X67852365Y-115767528D01*
X67852365Y-115767528D02*
X68007184Y-115767528D01*
X68007184Y-115767528D02*
X68084594Y-115728824D01*
X68084594Y-115728824D02*
X68123298Y-115651414D01*
X68123298Y-115651414D02*
X68123298Y-115341776D01*
X68123298Y-115341776D02*
X68084594Y-115264366D01*
X68084594Y-115264366D02*
X68007184Y-115225662D01*
X68007184Y-115225662D02*
X67852365Y-115225662D01*
X67852365Y-115225662D02*
X67774956Y-115264366D01*
X67774956Y-115264366D02*
X67736251Y-115341776D01*
X67736251Y-115341776D02*
X67736251Y-115419185D01*
X67736251Y-115419185D02*
X68123298Y-115496595D01*
D12*
X95936427Y-97090557D02*
X96079285Y-97019128D01*
X96079285Y-97019128D02*
X96293570Y-97019128D01*
X96293570Y-97019128D02*
X96507856Y-97090557D01*
X96507856Y-97090557D02*
X96650713Y-97233414D01*
X96650713Y-97233414D02*
X96722142Y-97376271D01*
X96722142Y-97376271D02*
X96793570Y-97661985D01*
X96793570Y-97661985D02*
X96793570Y-97876271D01*
X96793570Y-97876271D02*
X96722142Y-98161985D01*
X96722142Y-98161985D02*
X96650713Y-98304842D01*
X96650713Y-98304842D02*
X96507856Y-98447700D01*
X96507856Y-98447700D02*
X96293570Y-98519128D01*
X96293570Y-98519128D02*
X96150713Y-98519128D01*
X96150713Y-98519128D02*
X95936427Y-98447700D01*
X95936427Y-98447700D02*
X95864999Y-98376271D01*
X95864999Y-98376271D02*
X95864999Y-97876271D01*
X95864999Y-97876271D02*
X96150713Y-97876271D01*
X95007856Y-97019128D02*
X95007856Y-97376271D01*
X95364999Y-97233414D02*
X95007856Y-97376271D01*
X95007856Y-97376271D02*
X94650713Y-97233414D01*
X95222142Y-97661985D02*
X95007856Y-97376271D01*
X95007856Y-97376271D02*
X94793570Y-97661985D01*
X93864999Y-97019128D02*
X93864999Y-97376271D01*
X94222142Y-97233414D02*
X93864999Y-97376271D01*
X93864999Y-97376271D02*
X93507856Y-97233414D01*
X94079285Y-97661985D02*
X93864999Y-97376271D01*
X93864999Y-97376271D02*
X93650713Y-97661985D01*
X92722142Y-97019128D02*
X92722142Y-97376271D01*
X93079285Y-97233414D02*
X92722142Y-97376271D01*
X92722142Y-97376271D02*
X92364999Y-97233414D01*
X92936428Y-97661985D02*
X92722142Y-97376271D01*
X92722142Y-97376271D02*
X92507856Y-97661985D01*
D10*
X96035571Y-54496619D02*
X95845095Y-54496619D01*
X95845095Y-54496619D02*
X95749857Y-54544238D01*
X95749857Y-54544238D02*
X95654619Y-54639476D01*
X95654619Y-54639476D02*
X95607000Y-54829952D01*
X95607000Y-54829952D02*
X95607000Y-55163285D01*
X95607000Y-55163285D02*
X95654619Y-55353761D01*
X95654619Y-55353761D02*
X95749857Y-55449000D01*
X95749857Y-55449000D02*
X95845095Y-55496619D01*
X95845095Y-55496619D02*
X96035571Y-55496619D01*
X96035571Y-55496619D02*
X96130809Y-55449000D01*
X96130809Y-55449000D02*
X96226047Y-55353761D01*
X96226047Y-55353761D02*
X96273666Y-55163285D01*
X96273666Y-55163285D02*
X96273666Y-54829952D01*
X96273666Y-54829952D02*
X96226047Y-54639476D01*
X96226047Y-54639476D02*
X96130809Y-54544238D01*
X96130809Y-54544238D02*
X96035571Y-54496619D01*
X94702238Y-55496619D02*
X95178428Y-55496619D01*
X95178428Y-55496619D02*
X95178428Y-54496619D01*
X94368904Y-54972809D02*
X94035571Y-54972809D01*
X93892714Y-55496619D02*
X94368904Y-55496619D01*
X94368904Y-55496619D02*
X94368904Y-54496619D01*
X94368904Y-54496619D02*
X93892714Y-54496619D01*
X93464142Y-55496619D02*
X93464142Y-54496619D01*
X93464142Y-54496619D02*
X93226047Y-54496619D01*
X93226047Y-54496619D02*
X93083190Y-54544238D01*
X93083190Y-54544238D02*
X92987952Y-54639476D01*
X92987952Y-54639476D02*
X92940333Y-54734714D01*
X92940333Y-54734714D02*
X92892714Y-54925190D01*
X92892714Y-54925190D02*
X92892714Y-55068047D01*
X92892714Y-55068047D02*
X92940333Y-55258523D01*
X92940333Y-55258523D02*
X92987952Y-55353761D01*
X92987952Y-55353761D02*
X93083190Y-55449000D01*
X93083190Y-55449000D02*
X93226047Y-55496619D01*
X93226047Y-55496619D02*
X93464142Y-55496619D01*
X91940333Y-55496619D02*
X92511761Y-55496619D01*
X92226047Y-55496619D02*
X92226047Y-54496619D01*
X92226047Y-54496619D02*
X92321285Y-54639476D01*
X92321285Y-54639476D02*
X92416523Y-54734714D01*
X92416523Y-54734714D02*
X92511761Y-54782333D01*
D13*
X119229094Y-119555426D02*
X119229094Y-118555426D01*
X119229094Y-118555426D02*
X118848142Y-118555426D01*
X118848142Y-118555426D02*
X118752904Y-118603045D01*
X118752904Y-118603045D02*
X118705285Y-118650664D01*
X118705285Y-118650664D02*
X118657666Y-118745902D01*
X118657666Y-118745902D02*
X118657666Y-118888759D01*
X118657666Y-118888759D02*
X118705285Y-118983997D01*
X118705285Y-118983997D02*
X118752904Y-119031616D01*
X118752904Y-119031616D02*
X118848142Y-119079235D01*
X118848142Y-119079235D02*
X119229094Y-119079235D01*
X118276713Y-118650664D02*
X118229094Y-118603045D01*
X118229094Y-118603045D02*
X118133856Y-118555426D01*
X118133856Y-118555426D02*
X117895761Y-118555426D01*
X117895761Y-118555426D02*
X117800523Y-118603045D01*
X117800523Y-118603045D02*
X117752904Y-118650664D01*
X117752904Y-118650664D02*
X117705285Y-118745902D01*
X117705285Y-118745902D02*
X117705285Y-118841140D01*
X117705285Y-118841140D02*
X117752904Y-118983997D01*
X117752904Y-118983997D02*
X118324332Y-119555426D01*
X118324332Y-119555426D02*
X117705285Y-119555426D01*
D10*
X117959094Y-79543619D02*
X117959094Y-78543619D01*
X117959094Y-78543619D02*
X117578142Y-78543619D01*
X117578142Y-78543619D02*
X117482904Y-78591238D01*
X117482904Y-78591238D02*
X117435285Y-78638857D01*
X117435285Y-78638857D02*
X117387666Y-78734095D01*
X117387666Y-78734095D02*
X117387666Y-78876952D01*
X117387666Y-78876952D02*
X117435285Y-78972190D01*
X117435285Y-78972190D02*
X117482904Y-79019809D01*
X117482904Y-79019809D02*
X117578142Y-79067428D01*
X117578142Y-79067428D02*
X117959094Y-79067428D01*
X116435285Y-79543619D02*
X117006713Y-79543619D01*
X116720999Y-79543619D02*
X116720999Y-78543619D01*
X116720999Y-78543619D02*
X116816237Y-78686476D01*
X116816237Y-78686476D02*
X116911475Y-78781714D01*
X116911475Y-78781714D02*
X117006713Y-78829333D01*
X88179333Y-50813619D02*
X88179333Y-51527904D01*
X88179333Y-51527904D02*
X88226952Y-51670761D01*
X88226952Y-51670761D02*
X88322190Y-51766000D01*
X88322190Y-51766000D02*
X88465047Y-51813619D01*
X88465047Y-51813619D02*
X88560285Y-51813619D01*
X87703142Y-51813619D02*
X87703142Y-50813619D01*
X87703142Y-50813619D02*
X87322190Y-50813619D01*
X87322190Y-50813619D02*
X87226952Y-50861238D01*
X87226952Y-50861238D02*
X87179333Y-50908857D01*
X87179333Y-50908857D02*
X87131714Y-51004095D01*
X87131714Y-51004095D02*
X87131714Y-51146952D01*
X87131714Y-51146952D02*
X87179333Y-51242190D01*
X87179333Y-51242190D02*
X87226952Y-51289809D01*
X87226952Y-51289809D02*
X87322190Y-51337428D01*
X87322190Y-51337428D02*
X87703142Y-51337428D01*
X86798380Y-50813619D02*
X86179333Y-50813619D01*
X86179333Y-50813619D02*
X86512666Y-51194571D01*
X86512666Y-51194571D02*
X86369809Y-51194571D01*
X86369809Y-51194571D02*
X86274571Y-51242190D01*
X86274571Y-51242190D02*
X86226952Y-51289809D01*
X86226952Y-51289809D02*
X86179333Y-51385047D01*
X86179333Y-51385047D02*
X86179333Y-51623142D01*
X86179333Y-51623142D02*
X86226952Y-51718380D01*
X86226952Y-51718380D02*
X86274571Y-51766000D01*
X86274571Y-51766000D02*
X86369809Y-51813619D01*
X86369809Y-51813619D02*
X86655523Y-51813619D01*
X86655523Y-51813619D02*
X86750761Y-51766000D01*
X86750761Y-51766000D02*
X86798380Y-51718380D01*
X88239333Y-53353619D02*
X88239333Y-54067904D01*
X88239333Y-54067904D02*
X88286952Y-54210761D01*
X88286952Y-54210761D02*
X88382190Y-54306000D01*
X88382190Y-54306000D02*
X88525047Y-54353619D01*
X88525047Y-54353619D02*
X88620285Y-54353619D01*
X87763142Y-54353619D02*
X87763142Y-53353619D01*
X87763142Y-53353619D02*
X87382190Y-53353619D01*
X87382190Y-53353619D02*
X87286952Y-53401238D01*
X87286952Y-53401238D02*
X87239333Y-53448857D01*
X87239333Y-53448857D02*
X87191714Y-53544095D01*
X87191714Y-53544095D02*
X87191714Y-53686952D01*
X87191714Y-53686952D02*
X87239333Y-53782190D01*
X87239333Y-53782190D02*
X87286952Y-53829809D01*
X87286952Y-53829809D02*
X87382190Y-53877428D01*
X87382190Y-53877428D02*
X87763142Y-53877428D01*
X86810761Y-53448857D02*
X86763142Y-53401238D01*
X86763142Y-53401238D02*
X86667904Y-53353619D01*
X86667904Y-53353619D02*
X86429809Y-53353619D01*
X86429809Y-53353619D02*
X86334571Y-53401238D01*
X86334571Y-53401238D02*
X86286952Y-53448857D01*
X86286952Y-53448857D02*
X86239333Y-53544095D01*
X86239333Y-53544095D02*
X86239333Y-53639333D01*
X86239333Y-53639333D02*
X86286952Y-53782190D01*
X86286952Y-53782190D02*
X86858380Y-54353619D01*
X86858380Y-54353619D02*
X86239333Y-54353619D01*
D14*
%TO.C,G\u002A\u002A\u002A*%
G36*
X106065880Y-92916199D02*
G01*
X107016987Y-93926181D01*
X107830534Y-95002387D01*
X108275220Y-95761413D01*
X108493726Y-96134376D01*
X108605710Y-96368372D01*
X108897057Y-97099537D01*
X109147111Y-97904451D01*
X109342504Y-98729595D01*
X109469868Y-99521447D01*
X109515834Y-100226487D01*
X109502625Y-100467919D01*
X109437621Y-100651173D01*
X109293249Y-100797987D01*
X109247417Y-100833055D01*
X109024520Y-100953691D01*
X108834591Y-100932094D01*
X108623485Y-100765648D01*
X108495176Y-100595715D01*
X108415667Y-100272730D01*
X108345440Y-99793058D01*
X108134668Y-99293456D01*
X107811039Y-98841714D01*
X107402527Y-98476369D01*
X106937106Y-98235955D01*
X106854745Y-98209309D01*
X106230762Y-98097455D01*
X105634350Y-98139900D01*
X105086060Y-98323741D01*
X104606443Y-98636075D01*
X104216049Y-99063999D01*
X103935428Y-99594609D01*
X103785132Y-100215003D01*
X103755724Y-100374607D01*
X103627427Y-100683295D01*
X103435238Y-100894920D01*
X103206629Y-100973466D01*
X103131792Y-100965361D01*
X102921673Y-100836532D01*
X102761857Y-100563067D01*
X102662893Y-100160736D01*
X102553782Y-99665496D01*
X102308957Y-99129639D01*
X101942512Y-98702199D01*
X101795912Y-98577212D01*
X101484855Y-98353615D01*
X101183139Y-98220102D01*
X100831915Y-98155562D01*
X100372333Y-98138880D01*
X100257785Y-98139954D01*
X99751277Y-98182831D01*
X99346457Y-98303363D01*
X98993812Y-98522206D01*
X98643831Y-98860018D01*
X98604962Y-98903640D01*
X98318720Y-99289861D01*
X98140583Y-99696699D01*
X98038099Y-100195710D01*
X98002614Y-100414090D01*
X97915859Y-100685902D01*
X97777710Y-100846858D01*
X97564504Y-100933835D01*
X97424448Y-100946618D01*
X97203062Y-100850197D01*
X97040739Y-100601827D01*
X96942822Y-100207746D01*
X96939990Y-100187463D01*
X96827035Y-99669551D01*
X96634714Y-99245380D01*
X96333351Y-98848782D01*
X96089229Y-98616725D01*
X95783263Y-98394461D01*
X95487978Y-98238379D01*
X95253373Y-98179466D01*
X95243433Y-98182244D01*
X95224365Y-98209096D01*
X95207385Y-98271770D01*
X95192371Y-98379167D01*
X95179203Y-98540189D01*
X95167760Y-98763734D01*
X95157919Y-99058706D01*
X95149560Y-99434003D01*
X95142561Y-99898527D01*
X95136801Y-100461178D01*
X95132159Y-101130858D01*
X95128514Y-101916466D01*
X95125744Y-102826904D01*
X95123728Y-103871072D01*
X95122344Y-105057872D01*
X95121472Y-106396202D01*
X95120991Y-107894966D01*
X95118981Y-117610466D01*
X94924642Y-118082865D01*
X94704337Y-118537312D01*
X94314365Y-119072657D01*
X93814770Y-119495554D01*
X93182400Y-119829212D01*
X93137766Y-119847314D01*
X92576056Y-119990270D01*
X91956705Y-120019010D01*
X91339625Y-119935701D01*
X90784728Y-119742510D01*
X90770081Y-119735265D01*
X90185508Y-119354986D01*
X89684814Y-118851825D01*
X89307956Y-118265738D01*
X89248362Y-118140816D01*
X89154277Y-117904328D01*
X89100082Y-117669148D01*
X89075269Y-117378464D01*
X89069333Y-116975466D01*
X89071361Y-116693869D01*
X89087101Y-116380906D01*
X89128096Y-116142488D01*
X89205618Y-115922076D01*
X89330937Y-115663133D01*
X89349416Y-115627659D01*
X89586502Y-115250904D01*
X89817044Y-115038554D01*
X90047805Y-114986555D01*
X90285550Y-115090850D01*
X90432844Y-115227434D01*
X90521610Y-115429264D01*
X90491381Y-115686739D01*
X90344305Y-116034321D01*
X90164245Y-116547011D01*
X90120556Y-117094346D01*
X90214750Y-117626021D01*
X90440489Y-118107057D01*
X90791436Y-118502477D01*
X91064430Y-118694753D01*
X91572745Y-118907754D01*
X92101849Y-118972712D01*
X92624531Y-118895244D01*
X93113578Y-118680969D01*
X93541778Y-118335503D01*
X93881921Y-117864466D01*
X94064667Y-117525799D01*
X94087574Y-107852633D01*
X94089703Y-106941093D01*
X94092747Y-105551990D01*
X94095060Y-104317646D01*
X94096521Y-103228952D01*
X94097010Y-102276800D01*
X94096409Y-101452081D01*
X94094597Y-100745688D01*
X94091455Y-100148511D01*
X94086864Y-99651442D01*
X94080703Y-99245372D01*
X94072853Y-98921194D01*
X94063195Y-98669798D01*
X94051610Y-98482076D01*
X94037976Y-98348920D01*
X94022175Y-98261221D01*
X94004088Y-98209871D01*
X93983594Y-98185761D01*
X93960574Y-98179782D01*
X93812740Y-98213483D01*
X93551883Y-98339158D01*
X93256123Y-98530800D01*
X92974458Y-98759598D01*
X92942411Y-98790516D01*
X92721879Y-99072832D01*
X92525435Y-99428533D01*
X92384333Y-99792628D01*
X92329827Y-100100121D01*
X92323860Y-100239666D01*
X92242287Y-100593930D01*
X92077218Y-100830057D01*
X91844065Y-100932365D01*
X91558242Y-100885171D01*
X91472986Y-100846546D01*
X91369199Y-100769584D01*
X91298776Y-100643257D01*
X91243258Y-100428055D01*
X91184187Y-100084466D01*
X91132666Y-99834265D01*
X90920577Y-99283217D01*
X90606546Y-98837440D01*
X90212048Y-98496738D01*
X89758564Y-98260915D01*
X89267571Y-98129775D01*
X88760547Y-98103122D01*
X88258972Y-98180759D01*
X87784322Y-98362491D01*
X87358076Y-98648122D01*
X87001713Y-99037455D01*
X86736711Y-99530295D01*
X86584548Y-100126446D01*
X86533275Y-100417159D01*
X86446677Y-100664260D01*
X86320259Y-100819059D01*
X86111762Y-100948897D01*
X85927954Y-100945618D01*
X85706286Y-100807585D01*
X85588973Y-100688044D01*
X85498764Y-100487224D01*
X85447181Y-100174474D01*
X85402988Y-99911428D01*
X85216460Y-99386251D01*
X84924385Y-98920513D01*
X84555250Y-98565605D01*
X84460679Y-98500139D01*
X84050079Y-98266757D01*
X83647364Y-98142070D01*
X83178916Y-98101240D01*
X82798965Y-98122245D01*
X82203184Y-98275752D01*
X81692660Y-98566239D01*
X81282850Y-98980392D01*
X80989215Y-99504899D01*
X80827215Y-100126446D01*
X80775942Y-100417159D01*
X80689344Y-100664260D01*
X80562926Y-100819059D01*
X80523614Y-100850031D01*
X80331014Y-100955775D01*
X80151576Y-100936308D01*
X79925031Y-100788768D01*
X79690226Y-100604071D01*
X79744381Y-99793935D01*
X79825209Y-99050054D01*
X80089680Y-97848007D01*
X80444601Y-96867133D01*
X83142667Y-96867133D01*
X83143921Y-96898877D01*
X83183981Y-96987994D01*
X83310963Y-97033717D01*
X83566000Y-97054225D01*
X83576944Y-97054667D01*
X83992531Y-97035903D01*
X84276475Y-96936876D01*
X84449465Y-96750474D01*
X84473529Y-96674524D01*
X84507577Y-96440174D01*
X84528715Y-96141806D01*
X84977886Y-96141806D01*
X84997185Y-96483564D01*
X85163260Y-96794172D01*
X85245416Y-96881021D01*
X85391094Y-96978080D01*
X85595023Y-97031780D01*
X85912723Y-97061959D01*
X86106969Y-97072137D01*
X86335574Y-97068438D01*
X86458923Y-97031410D01*
X86516797Y-96953940D01*
X86518612Y-96948623D01*
X86539283Y-96800204D01*
X86556145Y-96523213D01*
X86567504Y-96155307D01*
X86568804Y-96023776D01*
X87092515Y-96023776D01*
X87107361Y-96395415D01*
X87151891Y-96654502D01*
X87234689Y-96829756D01*
X87364340Y-96949894D01*
X87549429Y-97043634D01*
X87699156Y-97104617D01*
X87867633Y-97149987D01*
X88018450Y-97128611D01*
X88237167Y-97040042D01*
X88400776Y-96955116D01*
X88496699Y-96867133D01*
X88984667Y-96867133D01*
X88985964Y-96899399D01*
X89016231Y-96973797D01*
X89112779Y-97018806D01*
X89309957Y-97044566D01*
X89642115Y-97061217D01*
X89778702Y-97065465D01*
X90090507Y-97062302D01*
X90269788Y-97032426D01*
X90343116Y-96972473D01*
X90347826Y-96952460D01*
X90360494Y-96786676D01*
X90367598Y-96496068D01*
X90368609Y-96114971D01*
X90363001Y-95677722D01*
X90359881Y-95531032D01*
X90351324Y-95247689D01*
X90900641Y-95247689D01*
X90945707Y-95441459D01*
X91080167Y-95539147D01*
X91088778Y-95540659D01*
X91197326Y-95510288D01*
X91228333Y-95349341D01*
X91238290Y-95264645D01*
X91339283Y-95043174D01*
X91508199Y-94865559D01*
X91694000Y-94792799D01*
X91822712Y-94836547D01*
X91990333Y-94962133D01*
X92065894Y-95056307D01*
X92123971Y-95207449D01*
X92152238Y-95439185D01*
X92159667Y-95795677D01*
X92154103Y-96122786D01*
X92129690Y-96358419D01*
X92077282Y-96508162D01*
X91987770Y-96615453D01*
X91836449Y-96706099D01*
X91609151Y-96707723D01*
X91404144Y-96572107D01*
X91259556Y-96314983D01*
X91174634Y-96126975D01*
X91061054Y-96029243D01*
X90962764Y-96083314D01*
X90954082Y-96114971D01*
X90905818Y-96290957D01*
X90902813Y-96347727D01*
X90961014Y-96646188D01*
X91118825Y-96896667D01*
X91341741Y-97039882D01*
X91466035Y-97074637D01*
X91651667Y-97123841D01*
X91782496Y-97124078D01*
X92023449Y-97046966D01*
X92256592Y-96910861D01*
X92407000Y-96752589D01*
X92425058Y-96695542D01*
X94368813Y-96695542D01*
X94400765Y-96915322D01*
X94495919Y-97045949D01*
X94648789Y-97051460D01*
X94660262Y-97046496D01*
X94754390Y-96920488D01*
X94784333Y-96654185D01*
X94797551Y-96445000D01*
X94869384Y-96287888D01*
X95037798Y-96164695D01*
X95181018Y-96049157D01*
X95278841Y-95900737D01*
X95296159Y-95776321D01*
X95213714Y-95724133D01*
X95201937Y-95723500D01*
X95055836Y-95643234D01*
X94925425Y-95478470D01*
X94869000Y-95300799D01*
X94929296Y-95103112D01*
X95114737Y-94940206D01*
X95380518Y-94877466D01*
X95625941Y-94877466D01*
X95649637Y-95950040D01*
X95666140Y-96437487D01*
X95692174Y-96779304D01*
X95729262Y-96981154D01*
X95779122Y-97057748D01*
X95786952Y-97060201D01*
X95858217Y-97059592D01*
X95908415Y-96995142D01*
X95935632Y-96867133D01*
X96435333Y-96867133D01*
X96436500Y-96897622D01*
X96476396Y-96987682D01*
X96603440Y-97034718D01*
X96858667Y-97057150D01*
X97172938Y-97049695D01*
X97491161Y-96956254D01*
X97726500Y-96755757D01*
X97767154Y-96654665D01*
X97806126Y-96407094D01*
X97815840Y-96255905D01*
X98265136Y-96255905D01*
X98272400Y-96542645D01*
X98298608Y-96831332D01*
X98346697Y-96989977D01*
X98425000Y-97036466D01*
X98485675Y-97011734D01*
X98552568Y-96870169D01*
X98597549Y-96582790D01*
X98614167Y-96454486D01*
X98713480Y-96133392D01*
X98890597Y-95951093D01*
X99156981Y-95893466D01*
X99176216Y-95893664D01*
X99271240Y-95912709D01*
X99326386Y-95989289D01*
X99355801Y-96160663D01*
X99373632Y-96464091D01*
X99380389Y-96594499D01*
X99408735Y-96863413D01*
X99457666Y-97007871D01*
X99536180Y-97060914D01*
X99620884Y-97059824D01*
X99688691Y-97000666D01*
X99734481Y-96859722D01*
X99762245Y-96615132D01*
X99774245Y-96291720D01*
X100303761Y-96291720D01*
X100317920Y-96575575D01*
X100464070Y-96850916D01*
X100757429Y-97043634D01*
X100907156Y-97104617D01*
X101075633Y-97149987D01*
X101226450Y-97128611D01*
X101445167Y-97040042D01*
X101484699Y-97022227D01*
X101662242Y-96913301D01*
X101781169Y-96762429D01*
X101852488Y-96537922D01*
X101887207Y-96208090D01*
X101896333Y-95741244D01*
X101896313Y-95688865D01*
X101892685Y-95317137D01*
X101876945Y-95070127D01*
X101851096Y-94954381D01*
X102399059Y-94954381D01*
X102417051Y-95741244D01*
X102422863Y-95995423D01*
X102434727Y-96400872D01*
X102452848Y-96716816D01*
X102479607Y-96911231D01*
X102518661Y-97009365D01*
X102573667Y-97036466D01*
X102639127Y-97006875D01*
X102701684Y-96860963D01*
X102743000Y-96570799D01*
X102785333Y-96105133D01*
X103208667Y-96105133D01*
X103632000Y-96105133D01*
X103674333Y-96570065D01*
X103703089Y-96797262D01*
X103762644Y-96989298D01*
X103854180Y-97061055D01*
X103855152Y-97061237D01*
X103956572Y-97052178D01*
X104026240Y-96965437D01*
X104069450Y-96778184D01*
X104091495Y-96467589D01*
X104097667Y-96010822D01*
X104093140Y-95766466D01*
X104521000Y-95766466D01*
X104522264Y-96010822D01*
X104522762Y-96107091D01*
X104533187Y-96493171D01*
X104555216Y-96752305D01*
X104591401Y-96909823D01*
X104644291Y-96991054D01*
X104764043Y-97056795D01*
X104866705Y-97004684D01*
X104925552Y-96800988D01*
X104944333Y-96438802D01*
X104944333Y-95893466D01*
X105325333Y-95893466D01*
X105706333Y-95893466D01*
X105706333Y-96352208D01*
X105709944Y-96530089D01*
X105728567Y-96787350D01*
X105757725Y-96944874D01*
X105786365Y-96997465D01*
X105923498Y-97077196D01*
X106073222Y-97022355D01*
X106080779Y-97003968D01*
X106100022Y-96850184D01*
X106115538Y-96570526D01*
X106125896Y-96196951D01*
X106129667Y-95761413D01*
X106126885Y-95307353D01*
X106115957Y-94941675D01*
X106094739Y-94702321D01*
X106061119Y-94566680D01*
X106012984Y-94512140D01*
X105978657Y-94501577D01*
X105830612Y-94540487D01*
X105738215Y-94730791D01*
X105706333Y-95063733D01*
X105706333Y-95470133D01*
X105325333Y-95470133D01*
X104944333Y-95470133D01*
X104944333Y-95009463D01*
X104937966Y-94815467D01*
X104889506Y-94565869D01*
X104792121Y-94475461D01*
X104644291Y-94541877D01*
X104607031Y-94588839D01*
X104565567Y-94718143D01*
X104539108Y-94940628D01*
X104525102Y-95281625D01*
X104521000Y-95766466D01*
X104093140Y-95766466D01*
X104091634Y-95685158D01*
X104044441Y-95196485D01*
X103942209Y-94846110D01*
X103775181Y-94616969D01*
X103533603Y-94491998D01*
X103207720Y-94454133D01*
X103167568Y-94454838D01*
X102896536Y-94516940D01*
X102649184Y-94704257D01*
X102399059Y-94954381D01*
X101851096Y-94954381D01*
X101840700Y-94907830D01*
X101775557Y-94790238D01*
X101673121Y-94677345D01*
X101663340Y-94667722D01*
X101383262Y-94491357D01*
X101073877Y-94441519D01*
X100773254Y-94503370D01*
X100519464Y-94662072D01*
X100350576Y-94902790D01*
X100304660Y-95210685D01*
X100344192Y-95398805D01*
X100436405Y-95507077D01*
X100545595Y-95461856D01*
X100639721Y-95258564D01*
X100753198Y-95000029D01*
X100938889Y-94837039D01*
X101159636Y-94820829D01*
X101388333Y-94962133D01*
X101447061Y-95030775D01*
X101515185Y-95178444D01*
X101548715Y-95401910D01*
X101557148Y-95727575D01*
X101557667Y-95747627D01*
X101537326Y-96145708D01*
X101457225Y-96482392D01*
X101312133Y-96677310D01*
X101097566Y-96740133D01*
X100952193Y-96715965D01*
X100764147Y-96562794D01*
X100635534Y-96258712D01*
X100580864Y-96120232D01*
X100470448Y-96025116D01*
X100365402Y-96083540D01*
X100303761Y-96291720D01*
X99774245Y-96291720D01*
X99775977Y-96245036D01*
X99779667Y-95727575D01*
X99773760Y-95228076D01*
X99754745Y-94874568D01*
X99721023Y-94655636D01*
X99670994Y-94554009D01*
X99603138Y-94510466D01*
X99474664Y-94527622D01*
X99386176Y-94704744D01*
X99340261Y-95038042D01*
X99314000Y-95491256D01*
X99035577Y-95102486D01*
X98832253Y-94824614D01*
X98660975Y-94615800D01*
X98540043Y-94515588D01*
X98446700Y-94506065D01*
X98358191Y-94569322D01*
X98308537Y-94630690D01*
X98296924Y-94725570D01*
X98365929Y-94867781D01*
X98529011Y-95099061D01*
X98827116Y-95501514D01*
X98613125Y-95703334D01*
X98536958Y-95775169D01*
X98386765Y-95926432D01*
X98295734Y-96072328D01*
X98265136Y-96255905D01*
X97815840Y-96255905D01*
X97827518Y-96074157D01*
X97831153Y-95703334D01*
X97816851Y-95342104D01*
X97784433Y-95037945D01*
X97733721Y-94838337D01*
X97690724Y-94767785D01*
X97513374Y-94618690D01*
X97271197Y-94514228D01*
X97007482Y-94460555D01*
X96765518Y-94463823D01*
X96588595Y-94530186D01*
X96520000Y-94665799D01*
X96520586Y-94686701D01*
X96559103Y-94783757D01*
X96686632Y-94840652D01*
X96943333Y-94877466D01*
X97131793Y-94899100D01*
X97294155Y-94942434D01*
X97365733Y-95028704D01*
X97392837Y-95190123D01*
X97401761Y-95321852D01*
X97371589Y-95421168D01*
X97255468Y-95465261D01*
X97011837Y-95486456D01*
X96847998Y-95501930D01*
X96661390Y-95552509D01*
X96604667Y-95639466D01*
X96620575Y-95691394D01*
X96744296Y-95757649D01*
X97011276Y-95792453D01*
X97417884Y-95818440D01*
X97392769Y-96208143D01*
X97392276Y-96215786D01*
X97366667Y-96613133D01*
X96901000Y-96655466D01*
X96776809Y-96667922D01*
X96561051Y-96705702D01*
X96460250Y-96766185D01*
X96435333Y-96867133D01*
X95935632Y-96867133D01*
X95940170Y-96845792D01*
X95956103Y-96590480D01*
X95958839Y-96208143D01*
X95951001Y-95677722D01*
X95927333Y-94496466D01*
X95436595Y-94506543D01*
X95141252Y-94526057D01*
X94914793Y-94587565D01*
X94742487Y-94707675D01*
X94557603Y-94955029D01*
X94475286Y-95284810D01*
X94546629Y-95615284D01*
X94589623Y-95725850D01*
X94605054Y-95765532D01*
X94602308Y-95928038D01*
X94510361Y-96144201D01*
X94405549Y-96422573D01*
X94368813Y-96695542D01*
X92425058Y-96695542D01*
X92431605Y-96674860D01*
X92465964Y-96438808D01*
X92489563Y-96107225D01*
X92498333Y-95725850D01*
X92498328Y-95699479D01*
X92494928Y-95313724D01*
X92480063Y-95056081D01*
X92446116Y-94887563D01*
X92385472Y-94769182D01*
X92290515Y-94661951D01*
X92219314Y-94597284D01*
X92004132Y-94485354D01*
X91705375Y-94454133D01*
X91471082Y-94468987D01*
X91281578Y-94545224D01*
X91104377Y-94719956D01*
X91073148Y-94759347D01*
X90943583Y-95004697D01*
X90900641Y-95247689D01*
X90351324Y-95247689D01*
X90346701Y-95094588D01*
X90328417Y-94796910D01*
X90301969Y-94613996D01*
X90264295Y-94521848D01*
X90212333Y-94496466D01*
X90158612Y-94522497D01*
X90119782Y-94618134D01*
X90093009Y-94808309D01*
X90074802Y-95117952D01*
X90061667Y-95571991D01*
X90051342Y-96041219D01*
X90038000Y-96647515D01*
X89511334Y-96672657D01*
X89279073Y-96687106D01*
X89090331Y-96717239D01*
X89004787Y-96772599D01*
X88984667Y-96867133D01*
X88496699Y-96867133D01*
X88530376Y-96836244D01*
X88613823Y-96663455D01*
X88659370Y-96408022D01*
X88675271Y-96041219D01*
X88669778Y-95534319D01*
X88658034Y-95132988D01*
X88639926Y-94816591D01*
X88613166Y-94621891D01*
X88574081Y-94523609D01*
X88519000Y-94496466D01*
X88479141Y-94508863D01*
X88432522Y-94586247D01*
X88398323Y-94756757D01*
X88372164Y-95045795D01*
X88349667Y-95478763D01*
X88338010Y-95715457D01*
X88302564Y-96146031D01*
X88247981Y-96440651D01*
X88165720Y-96622452D01*
X88047239Y-96714568D01*
X87884000Y-96740133D01*
X87806627Y-96735667D01*
X87663993Y-96683871D01*
X87562388Y-96555417D01*
X87493270Y-96327170D01*
X87448098Y-95975996D01*
X87418333Y-95478763D01*
X87403623Y-95174602D01*
X87379190Y-94839815D01*
X87348194Y-94632131D01*
X87306257Y-94526148D01*
X87249000Y-94496466D01*
X87199413Y-94517301D01*
X87158663Y-94606044D01*
X87130663Y-94788276D01*
X87111740Y-95089275D01*
X87098222Y-95534319D01*
X87095892Y-95734141D01*
X87092515Y-96023776D01*
X86568804Y-96023776D01*
X86571667Y-95734141D01*
X86567557Y-95275760D01*
X86549192Y-94915056D01*
X86509219Y-94676885D01*
X86440309Y-94536904D01*
X86335135Y-94470768D01*
X86186368Y-94454133D01*
X85986158Y-94472856D01*
X85656829Y-94593610D01*
X85404763Y-94800980D01*
X85260643Y-95065228D01*
X85255153Y-95356619D01*
X85261595Y-95524519D01*
X85160848Y-95729699D01*
X85135043Y-95782252D01*
X85106801Y-95820494D01*
X84977886Y-96141806D01*
X84528715Y-96141806D01*
X84530970Y-96109980D01*
X84539667Y-95729699D01*
X84538428Y-95485244D01*
X84527657Y-95161650D01*
X84500820Y-94949648D01*
X84451944Y-94812347D01*
X84375056Y-94712855D01*
X84368759Y-94706673D01*
X84166099Y-94575834D01*
X83909522Y-94495105D01*
X83641892Y-94465322D01*
X83406070Y-94487318D01*
X83244920Y-94561930D01*
X83201303Y-94689991D01*
X83230925Y-94755001D01*
X83363499Y-94825637D01*
X83629754Y-94860917D01*
X83790207Y-94876660D01*
X84005815Y-94939090D01*
X84122346Y-95058033D01*
X84166685Y-95156515D01*
X84171709Y-95334544D01*
X84030581Y-95437184D01*
X83737991Y-95470133D01*
X83621722Y-95474131D01*
X83430040Y-95504453D01*
X83354333Y-95554799D01*
X83354324Y-95562978D01*
X83352256Y-95702966D01*
X83375087Y-95726727D01*
X83519906Y-95772298D01*
X83754422Y-95808799D01*
X83936966Y-95830531D01*
X84092417Y-95875712D01*
X84159006Y-95971059D01*
X84184115Y-96154713D01*
X84180348Y-96370035D01*
X84096223Y-96535171D01*
X83899896Y-96627926D01*
X83563850Y-96671217D01*
X83497863Y-96675742D01*
X83273272Y-96705586D01*
X83168503Y-96763043D01*
X83142667Y-96867133D01*
X80444601Y-96867133D01*
X80512538Y-96679378D01*
X81087804Y-95551751D01*
X81809503Y-94472714D01*
X82671655Y-93449850D01*
X83668284Y-92490748D01*
X83859821Y-92339620D01*
X88095667Y-92339620D01*
X88095858Y-92465111D01*
X88103445Y-92978101D01*
X88125751Y-93344835D01*
X88167781Y-93584268D01*
X88234537Y-93715351D01*
X88331023Y-93757040D01*
X88462241Y-93728286D01*
X88468075Y-93725882D01*
X88546227Y-93639761D01*
X88594637Y-93445579D01*
X88621139Y-93112992D01*
X88646000Y-92549133D01*
X89154000Y-92549133D01*
X89662000Y-92549133D01*
X89687185Y-93077471D01*
X89713858Y-93385982D01*
X89767472Y-93583872D01*
X89856519Y-93679863D01*
X89952054Y-93722865D01*
X90053199Y-93735602D01*
X90124321Y-93676954D01*
X90170608Y-93527339D01*
X90197247Y-93267180D01*
X90209426Y-92876895D01*
X90211302Y-92528446D01*
X90899080Y-92528446D01*
X90924714Y-92912193D01*
X90984358Y-93192868D01*
X91084063Y-93400853D01*
X91229880Y-93566532D01*
X91307424Y-93625783D01*
X91619085Y-93752494D01*
X91987666Y-93792137D01*
X92346869Y-93742974D01*
X92630394Y-93603266D01*
X92770456Y-93460067D01*
X92861440Y-93295767D01*
X93513560Y-93295767D01*
X93561575Y-93540598D01*
X93662500Y-93677713D01*
X93709080Y-93699632D01*
X93887086Y-93721174D01*
X93989516Y-93597563D01*
X94022333Y-93322916D01*
X94066448Y-92996314D01*
X94228542Y-92690887D01*
X94496544Y-92503551D01*
X94626572Y-92412034D01*
X94701452Y-92245242D01*
X94673935Y-92079089D01*
X94538956Y-91976522D01*
X94390267Y-91888763D01*
X94236606Y-91718325D01*
X94193260Y-91647928D01*
X94140715Y-91480141D01*
X94198324Y-91305977D01*
X94320773Y-91119800D01*
X94493300Y-91012461D01*
X94763167Y-90984096D01*
X95038333Y-90982799D01*
X95038333Y-92246752D01*
X95038535Y-92401551D01*
X95043387Y-92869123D01*
X95056597Y-93200871D01*
X95080665Y-93423053D01*
X95118093Y-93561928D01*
X95171381Y-93643752D01*
X95256239Y-93724860D01*
X95319548Y-93774225D01*
X95355548Y-93756849D01*
X95482833Y-93685351D01*
X95508560Y-93667741D01*
X95555369Y-93607384D01*
X95588610Y-93498651D01*
X95610539Y-93317354D01*
X95623410Y-93039304D01*
X95629478Y-92640313D01*
X95630120Y-92410783D01*
X96223667Y-92410783D01*
X96224655Y-92768050D01*
X96230955Y-93140278D01*
X96245979Y-93390413D01*
X96273026Y-93545953D01*
X96315398Y-93634397D01*
X96376396Y-93683246D01*
X96539411Y-93731327D01*
X96670080Y-93657005D01*
X96754706Y-93437792D01*
X96800648Y-93062929D01*
X96836060Y-92506799D01*
X97334197Y-92506799D01*
X97832333Y-92506799D01*
X97832333Y-93054154D01*
X97834322Y-93230407D01*
X97854101Y-93472573D01*
X97904216Y-93611038D01*
X97995787Y-93688986D01*
X98138729Y-93730155D01*
X98292120Y-93643584D01*
X98337264Y-93580462D01*
X98380255Y-93445698D01*
X98407160Y-93226459D01*
X98421052Y-92894505D01*
X98423356Y-92618514D01*
X99029968Y-92618514D01*
X99073717Y-93050854D01*
X99204402Y-93368286D01*
X99431015Y-93597625D01*
X99785479Y-93763679D01*
X100188667Y-93798482D01*
X100574653Y-93690216D01*
X100900282Y-93443410D01*
X100911534Y-93430797D01*
X101004040Y-93319348D01*
X101066580Y-93208249D01*
X101105016Y-93063564D01*
X101125212Y-92851356D01*
X101133030Y-92537689D01*
X101134333Y-92088626D01*
X101132914Y-91658012D01*
X101124864Y-91335968D01*
X101104688Y-91116912D01*
X101066894Y-90966767D01*
X101005991Y-90851454D01*
X100916486Y-90736894D01*
X100811725Y-90630916D01*
X100478569Y-90435583D01*
X100095367Y-90356749D01*
X99713632Y-90399997D01*
X99384878Y-90570909D01*
X99306216Y-90649550D01*
X99163147Y-90866294D01*
X99073987Y-91097351D01*
X99069658Y-91273769D01*
X99130066Y-91355336D01*
X99293441Y-91405043D01*
X99478882Y-91356139D01*
X99620030Y-91215633D01*
X99720306Y-91068442D01*
X99948377Y-90913664D01*
X100205397Y-90911310D01*
X100457000Y-91067466D01*
X100508707Y-91126191D01*
X100569526Y-91242698D01*
X100605245Y-91416126D01*
X100622101Y-91683905D01*
X100626333Y-92083466D01*
X100624930Y-92343403D01*
X100613792Y-92658637D01*
X100586250Y-92864772D01*
X100536066Y-92999238D01*
X100457000Y-93099466D01*
X100296077Y-93210119D01*
X100082145Y-93268799D01*
X99948510Y-93239361D01*
X99741742Y-93086568D01*
X99586722Y-92849380D01*
X99525667Y-92580048D01*
X99538846Y-92430251D01*
X99616872Y-92353349D01*
X99811633Y-92337466D01*
X99840387Y-92337025D01*
X100095576Y-92281647D01*
X100236214Y-92149543D01*
X100236343Y-91963567D01*
X100210522Y-91917086D01*
X100117763Y-91861753D01*
X99934160Y-91840834D01*
X99621049Y-91847002D01*
X99060000Y-91871799D01*
X99034426Y-92415123D01*
X99034284Y-92421597D01*
X99029968Y-92618514D01*
X98423356Y-92618514D01*
X98425000Y-92421597D01*
X98424969Y-92392863D01*
X98417200Y-91959484D01*
X98397683Y-91570903D01*
X98369239Y-91268623D01*
X98334694Y-91094144D01*
X98268414Y-90946205D01*
X98012344Y-90614344D01*
X97675231Y-90414356D01*
X97285795Y-90358703D01*
X96872755Y-90459845D01*
X96759520Y-90513741D01*
X96560036Y-90644158D01*
X96416062Y-90814492D01*
X96319019Y-91050532D01*
X96260325Y-91378068D01*
X96231401Y-91822888D01*
X96227806Y-92096192D01*
X96223667Y-92410783D01*
X95630120Y-92410783D01*
X95631000Y-92096192D01*
X95629732Y-91747823D01*
X95620218Y-91216975D01*
X95600795Y-90838122D01*
X95570759Y-90600096D01*
X95529400Y-90491733D01*
X95435115Y-90443257D01*
X95197107Y-90404336D01*
X94888065Y-90401210D01*
X94563586Y-90433480D01*
X94279265Y-90500745D01*
X94031922Y-90634804D01*
X93783469Y-90911703D01*
X93636921Y-91260974D01*
X93609578Y-91636572D01*
X93718744Y-91992452D01*
X93748516Y-92057858D01*
X93775511Y-92117162D01*
X93773395Y-92262756D01*
X93673727Y-92458119D01*
X93574313Y-92694867D01*
X93517969Y-92996197D01*
X93513560Y-93295767D01*
X92861440Y-93295767D01*
X92884971Y-93253274D01*
X92957425Y-92971320D01*
X92995364Y-92583188D01*
X93006333Y-92057858D01*
X93006306Y-92004834D01*
X93002154Y-91590246D01*
X92986734Y-91301874D01*
X92954034Y-91100795D01*
X92898040Y-90948084D01*
X92812738Y-90804820D01*
X92563486Y-90549584D01*
X92216988Y-90389539D01*
X91835543Y-90358029D01*
X91461737Y-90457921D01*
X91138152Y-90692082D01*
X91091702Y-90743705D01*
X91017823Y-90851329D01*
X90968696Y-90988666D01*
X90937695Y-91190618D01*
X90918197Y-91492088D01*
X90903577Y-91927979D01*
X90901407Y-92011244D01*
X90899942Y-92336906D01*
X90899080Y-92528446D01*
X90211302Y-92528446D01*
X90212333Y-92336906D01*
X90211897Y-91940599D01*
X90207919Y-91544171D01*
X90196384Y-91265333D01*
X90173283Y-91074636D01*
X90134606Y-90942630D01*
X90076344Y-90839866D01*
X89994486Y-90736894D01*
X89978977Y-90718867D01*
X89664107Y-90473721D01*
X89296225Y-90361395D01*
X88916806Y-90380238D01*
X88567327Y-90528597D01*
X88289262Y-90804820D01*
X88280487Y-90817937D01*
X88207222Y-90941119D01*
X88156316Y-91073875D01*
X88123737Y-91248155D01*
X88105456Y-91495906D01*
X88097442Y-91849078D01*
X88095667Y-92339620D01*
X83859821Y-92339620D01*
X84793412Y-91602992D01*
X86041061Y-90794168D01*
X87405254Y-90071863D01*
X87409622Y-90069783D01*
X88529873Y-89591380D01*
X89726144Y-89179430D01*
X90949479Y-88847236D01*
X92150917Y-88608099D01*
X93281500Y-88475320D01*
X94107000Y-88417806D01*
X94107000Y-87188136D01*
X94107252Y-87016530D01*
X94112306Y-86564020D01*
X94126003Y-86244309D01*
X94151160Y-86029563D01*
X94190594Y-85891949D01*
X94247122Y-85803633D01*
X94462391Y-85674047D01*
X94727156Y-85667219D01*
X94968167Y-85788921D01*
X95017923Y-85844300D01*
X95064029Y-85942077D01*
X95094486Y-86097119D01*
X95112397Y-86337433D01*
X95120867Y-86691031D01*
X95123000Y-87185921D01*
X95123000Y-88442799D01*
X95556634Y-88442799D01*
X95644740Y-88443693D01*
X96263297Y-88486139D01*
X96992712Y-88586462D01*
X97794635Y-88736774D01*
X98630716Y-88929185D01*
X99462606Y-89155804D01*
X100251953Y-89408744D01*
X101141728Y-89747326D01*
X102515135Y-90388004D01*
X103802159Y-91136670D01*
X104990005Y-91982882D01*
X105111901Y-92088626D01*
X106065880Y-92916199D01*
G37*
G36*
X109478067Y-95219508D02*
G01*
X109574933Y-95372001D01*
X109590721Y-95598708D01*
X109499400Y-95791866D01*
X109314909Y-95884843D01*
X109124475Y-95851696D01*
X108972228Y-95727305D01*
X108901611Y-95547238D01*
X108956069Y-95347059D01*
X109069872Y-95221535D01*
X109275365Y-95143994D01*
X109478067Y-95219508D01*
G37*
G36*
X80092953Y-95183600D02*
G01*
X80273931Y-95347059D01*
X80308669Y-95403271D01*
X80342021Y-95544226D01*
X80258079Y-95706893D01*
X80234317Y-95738342D01*
X80043702Y-95872900D01*
X79846295Y-95868474D01*
X79691570Y-95740871D01*
X79629000Y-95505899D01*
X79633263Y-95441021D01*
X79723258Y-95242738D01*
X79892942Y-95152878D01*
X80092953Y-95183600D01*
G37*
G36*
X108499990Y-93310821D02*
G01*
X108616039Y-93440959D01*
X108657170Y-93624131D01*
X108536619Y-93813085D01*
X108433191Y-93891387D01*
X108209371Y-93939781D01*
X108009267Y-93844533D01*
X107943594Y-93759577D01*
X107899924Y-93561130D01*
X107968337Y-93379390D01*
X108114226Y-93251998D01*
X108302979Y-93216595D01*
X108499990Y-93310821D01*
G37*
G36*
X80957153Y-93184564D02*
G01*
X81148180Y-93265568D01*
X81273230Y-93443796D01*
X81306137Y-93657400D01*
X81220733Y-93844533D01*
X81209314Y-93855338D01*
X81018157Y-93931220D01*
X80805042Y-93890702D01*
X80631819Y-93759951D01*
X80560333Y-93565133D01*
X80623129Y-93404805D01*
X80774506Y-93251508D01*
X80941333Y-93184133D01*
X80957153Y-93184564D01*
G37*
G36*
X109478067Y-91324841D02*
G01*
X109574933Y-91477334D01*
X109590721Y-91704041D01*
X109499400Y-91897199D01*
X109314909Y-91990176D01*
X109124475Y-91957029D01*
X108972228Y-91832639D01*
X108901611Y-91652571D01*
X108956069Y-91452393D01*
X109069872Y-91326868D01*
X109275365Y-91249327D01*
X109478067Y-91324841D01*
G37*
G36*
X107503482Y-91323244D02*
G01*
X107614330Y-91484553D01*
X107644792Y-91683884D01*
X107565133Y-91876459D01*
X107435913Y-91973465D01*
X107226952Y-91974441D01*
X107014182Y-91824510D01*
X106922393Y-91663485D01*
X106963067Y-91472189D01*
X107172492Y-91285224D01*
X107341986Y-91244735D01*
X107503482Y-91323244D01*
G37*
G36*
X105556149Y-91323244D02*
G01*
X105666996Y-91484553D01*
X105697459Y-91683884D01*
X105617799Y-91876459D01*
X105488580Y-91973465D01*
X105279618Y-91974441D01*
X105066848Y-91824510D01*
X104975060Y-91663485D01*
X105015734Y-91472189D01*
X105225159Y-91285224D01*
X105394653Y-91244735D01*
X105556149Y-91323244D01*
G37*
G36*
X83987620Y-91288933D02*
G01*
X84168598Y-91452393D01*
X84203336Y-91508605D01*
X84236687Y-91649560D01*
X84152746Y-91812226D01*
X84128983Y-91843675D01*
X83938369Y-91978233D01*
X83740962Y-91973807D01*
X83586236Y-91846205D01*
X83523667Y-91611233D01*
X83527930Y-91546355D01*
X83617924Y-91348071D01*
X83787609Y-91258211D01*
X83987620Y-91288933D01*
G37*
G36*
X82040287Y-91288933D02*
G01*
X82221264Y-91452393D01*
X82256003Y-91508605D01*
X82289354Y-91649560D01*
X82205413Y-91812226D01*
X82181650Y-91843675D01*
X81991036Y-91978233D01*
X81793628Y-91973807D01*
X81638903Y-91846205D01*
X81576333Y-91611233D01*
X81580596Y-91546355D01*
X81670591Y-91348071D01*
X81840275Y-91258211D01*
X82040287Y-91288933D01*
G37*
G36*
X80092953Y-91288933D02*
G01*
X80273931Y-91452393D01*
X80308669Y-91508605D01*
X80342021Y-91649560D01*
X80258079Y-91812226D01*
X80234317Y-91843675D01*
X80043702Y-91978233D01*
X79846295Y-91973807D01*
X79691570Y-91846205D01*
X79629000Y-91611233D01*
X79633263Y-91546355D01*
X79723258Y-91348071D01*
X79892942Y-91258211D01*
X80092953Y-91288933D01*
G37*
G36*
X108435026Y-89348251D02*
G01*
X108599228Y-89496937D01*
X108669667Y-89670466D01*
X108644573Y-89762519D01*
X108536619Y-89918418D01*
X108440883Y-90000617D01*
X108281593Y-90043716D01*
X108071434Y-89963820D01*
X107990321Y-89901597D01*
X107909949Y-89720757D01*
X107938289Y-89519803D01*
X108059371Y-89356713D01*
X108257219Y-89289466D01*
X108435026Y-89348251D01*
G37*
G36*
X106419258Y-89322541D02*
G01*
X106466853Y-89337291D01*
X106643996Y-89475365D01*
X106690392Y-89676908D01*
X106589842Y-89888200D01*
X106472271Y-90000142D01*
X106324238Y-90042497D01*
X106124101Y-89963820D01*
X106088847Y-89941040D01*
X105979616Y-89770074D01*
X105977096Y-89555764D01*
X106086234Y-89375045D01*
X106206813Y-89321354D01*
X106419258Y-89322541D01*
G37*
G36*
X104519519Y-89337291D02*
G01*
X104696662Y-89475365D01*
X104743059Y-89676908D01*
X104642509Y-89888200D01*
X104439035Y-90026337D01*
X104232932Y-90027212D01*
X104075629Y-89900951D01*
X104013000Y-89663899D01*
X104063515Y-89469274D01*
X104229914Y-89331097D01*
X104471924Y-89322541D01*
X104519519Y-89337291D01*
G37*
G36*
X102546842Y-89337891D02*
G01*
X102730712Y-89490541D01*
X102802075Y-89680905D01*
X102705152Y-89877176D01*
X102551941Y-90000812D01*
X102338436Y-90041624D01*
X102154201Y-89929126D01*
X102076201Y-89750866D01*
X102099877Y-89550545D01*
X102206033Y-89385090D01*
X102364934Y-89299279D01*
X102546842Y-89337891D01*
G37*
G36*
X87038433Y-89375045D02*
G01*
X87136763Y-89527241D01*
X87154448Y-89755211D01*
X87062733Y-89949866D01*
X86951969Y-90020683D01*
X86751810Y-90026730D01*
X86567020Y-89928835D01*
X86447382Y-89759127D01*
X86442679Y-89549730D01*
X86467972Y-89494174D01*
X86627912Y-89356339D01*
X86844168Y-89308976D01*
X87038433Y-89375045D01*
G37*
G36*
X84958504Y-89302643D02*
G01*
X85125396Y-89418207D01*
X85211110Y-89605233D01*
X85198103Y-89805307D01*
X85068833Y-89960017D01*
X84973592Y-90006750D01*
X84820881Y-90048891D01*
X84815001Y-90048891D01*
X84661580Y-89980476D01*
X84518290Y-89830246D01*
X84455000Y-89670466D01*
X84518637Y-89506216D01*
X84679596Y-89354534D01*
X84867448Y-89289466D01*
X84958504Y-89302643D01*
G37*
G36*
X83011170Y-89302643D02*
G01*
X83178062Y-89418207D01*
X83263776Y-89605233D01*
X83250770Y-89805307D01*
X83121500Y-89960017D01*
X83026259Y-90006750D01*
X82873548Y-90048891D01*
X82867668Y-90048891D01*
X82714247Y-89980476D01*
X82570957Y-89830246D01*
X82507667Y-89670466D01*
X82571304Y-89506216D01*
X82732263Y-89354534D01*
X82920114Y-89289466D01*
X83011170Y-89302643D01*
G37*
G36*
X81167764Y-89345545D02*
G01*
X81292243Y-89503966D01*
X81305476Y-89712525D01*
X81189286Y-89918418D01*
X81090082Y-89995950D01*
X80941333Y-90051466D01*
X80781006Y-89988670D01*
X80627709Y-89837294D01*
X80560333Y-89670466D01*
X80623970Y-89506216D01*
X80784930Y-89354534D01*
X80972781Y-89289466D01*
X81167764Y-89345545D01*
G37*
G36*
X109478067Y-87430175D02*
G01*
X109574933Y-87582668D01*
X109590721Y-87809374D01*
X109499400Y-88002533D01*
X109314909Y-88095509D01*
X109124475Y-88062362D01*
X108972228Y-87937972D01*
X108901611Y-87757904D01*
X108956069Y-87557726D01*
X109069872Y-87432201D01*
X109275365Y-87354661D01*
X109478067Y-87430175D01*
G37*
G36*
X107552067Y-87443733D02*
G01*
X107629342Y-87579637D01*
X107642860Y-87809111D01*
X107552067Y-88002533D01*
X107399304Y-88092207D01*
X107193988Y-88065153D01*
X107009460Y-87890296D01*
X106929865Y-87755365D01*
X106922240Y-87640749D01*
X107020630Y-87509296D01*
X107138667Y-87407944D01*
X107355281Y-87347947D01*
X107552067Y-87443733D01*
G37*
G36*
X105580433Y-87427712D02*
G01*
X105608459Y-87454401D01*
X105696226Y-87645555D01*
X105678457Y-87858040D01*
X105558167Y-88012684D01*
X105433598Y-88073911D01*
X105252504Y-88080270D01*
X105076825Y-87940867D01*
X105045377Y-87902072D01*
X104974284Y-87688486D01*
X105047028Y-87494958D01*
X105247409Y-87375208D01*
X105401269Y-87364784D01*
X105580433Y-87427712D01*
G37*
G36*
X103633100Y-87427712D02*
G01*
X103661126Y-87454401D01*
X103748893Y-87645555D01*
X103731124Y-87858040D01*
X103610833Y-88012684D01*
X103486264Y-88073911D01*
X103305171Y-88080270D01*
X103129491Y-87940867D01*
X103098043Y-87902072D01*
X103026950Y-87688486D01*
X103099694Y-87494958D01*
X103300076Y-87375208D01*
X103453936Y-87364784D01*
X103633100Y-87427712D01*
G37*
G36*
X101685766Y-87427712D02*
G01*
X101713793Y-87454401D01*
X101801559Y-87645555D01*
X101783791Y-87858040D01*
X101663500Y-88012684D01*
X101538931Y-88073911D01*
X101357838Y-88080270D01*
X101182158Y-87940867D01*
X101150710Y-87902072D01*
X101079617Y-87688486D01*
X101152361Y-87494958D01*
X101352743Y-87375208D01*
X101506603Y-87364784D01*
X101685766Y-87427712D01*
G37*
G36*
X99762733Y-87443733D02*
G01*
X99829215Y-87538527D01*
X99851165Y-87758152D01*
X99731286Y-87971085D01*
X99605081Y-88068439D01*
X99422934Y-88082928D01*
X99229022Y-87934455D01*
X99168043Y-87846737D01*
X99136978Y-87649167D01*
X99218555Y-87475473D01*
X99375134Y-87360264D01*
X99569074Y-87338147D01*
X99762733Y-87443733D01*
G37*
G36*
X97739812Y-87394535D02*
G01*
X97884893Y-87548635D01*
X97906317Y-87756932D01*
X97783953Y-87971085D01*
X97684748Y-88048617D01*
X97536000Y-88104133D01*
X97524714Y-88103622D01*
X97368523Y-88034185D01*
X97220682Y-87894976D01*
X97155000Y-87753852D01*
X97193171Y-87592803D01*
X97333366Y-87415726D01*
X97522046Y-87342133D01*
X97739812Y-87394535D01*
G37*
G36*
X91771924Y-87375208D02*
G01*
X91819519Y-87389958D01*
X91996662Y-87528032D01*
X92043059Y-87729575D01*
X91942509Y-87940867D01*
X91824938Y-88052808D01*
X91676904Y-88095163D01*
X91476767Y-88016487D01*
X91441514Y-87993707D01*
X91332283Y-87822741D01*
X91329762Y-87608431D01*
X91438901Y-87427712D01*
X91559480Y-87374021D01*
X91771924Y-87375208D01*
G37*
G36*
X89824591Y-87375208D02*
G01*
X89872186Y-87389958D01*
X90049329Y-87528032D01*
X90095726Y-87729575D01*
X89995176Y-87940867D01*
X89877605Y-88052808D01*
X89729571Y-88095163D01*
X89529434Y-88016487D01*
X89494180Y-87993707D01*
X89384949Y-87822741D01*
X89382429Y-87608431D01*
X89491567Y-87427712D01*
X89612146Y-87374021D01*
X89824591Y-87375208D01*
G37*
G36*
X87877258Y-87375208D02*
G01*
X87924853Y-87389958D01*
X88101996Y-87528032D01*
X88148392Y-87729575D01*
X88047842Y-87940867D01*
X87930271Y-88052808D01*
X87782238Y-88095163D01*
X87582101Y-88016487D01*
X87546847Y-87993707D01*
X87437616Y-87822741D01*
X87435096Y-87608431D01*
X87544234Y-87427712D01*
X87664813Y-87374021D01*
X87877258Y-87375208D01*
G37*
G36*
X85929924Y-87375208D02*
G01*
X85977519Y-87389958D01*
X86154662Y-87528032D01*
X86201059Y-87729575D01*
X86100509Y-87940867D01*
X85982938Y-88052808D01*
X85834904Y-88095163D01*
X85634767Y-88016487D01*
X85599514Y-87993707D01*
X85490283Y-87822741D01*
X85487762Y-87608431D01*
X85596901Y-87427712D01*
X85717480Y-87374021D01*
X85929924Y-87375208D01*
G37*
G36*
X83947028Y-87367905D02*
G01*
X84156704Y-87509296D01*
X84243429Y-87617588D01*
X84257673Y-87728701D01*
X84167874Y-87890296D01*
X84125042Y-87947706D01*
X83933409Y-88080545D01*
X83737538Y-88079154D01*
X83585076Y-87955895D01*
X83523667Y-87723133D01*
X83584782Y-87492056D01*
X83741143Y-87367308D01*
X83947028Y-87367905D01*
G37*
G36*
X82040287Y-87394266D02*
G01*
X82221264Y-87557726D01*
X82256003Y-87613938D01*
X82289354Y-87754893D01*
X82205413Y-87917559D01*
X82181650Y-87949008D01*
X81991036Y-88083566D01*
X81793628Y-88079140D01*
X81638903Y-87951538D01*
X81576333Y-87716566D01*
X81580596Y-87651688D01*
X81670591Y-87453405D01*
X81840275Y-87363545D01*
X82040287Y-87394266D01*
G37*
G36*
X80092953Y-87394266D02*
G01*
X80273931Y-87557726D01*
X80308669Y-87613938D01*
X80342021Y-87754893D01*
X80258079Y-87917559D01*
X80234317Y-87949008D01*
X80043702Y-88083566D01*
X79846295Y-88079140D01*
X79691570Y-87951538D01*
X79629000Y-87716566D01*
X79633263Y-87651688D01*
X79723258Y-87453405D01*
X79892942Y-87363545D01*
X80092953Y-87394266D01*
G37*
G36*
X108474409Y-85455470D02*
G01*
X108601801Y-85601358D01*
X108637204Y-85790112D01*
X108542978Y-85987122D01*
X108412840Y-86103171D01*
X108229668Y-86144302D01*
X108040714Y-86023752D01*
X107962412Y-85920323D01*
X107914018Y-85696503D01*
X108009267Y-85496399D01*
X108094223Y-85430726D01*
X108292669Y-85387056D01*
X108474409Y-85455470D01*
G37*
G36*
X106527076Y-85455470D02*
G01*
X106654468Y-85601358D01*
X106689871Y-85790112D01*
X106595645Y-85987122D01*
X106472649Y-86104587D01*
X106323925Y-86147688D01*
X106124101Y-86069154D01*
X106111384Y-86061850D01*
X105988427Y-85902045D01*
X105969062Y-85687018D01*
X106061933Y-85496399D01*
X106146889Y-85430726D01*
X106345336Y-85387056D01*
X106527076Y-85455470D01*
G37*
G36*
X104471924Y-85427875D02*
G01*
X104519519Y-85442625D01*
X104696662Y-85580699D01*
X104743059Y-85782241D01*
X104642509Y-85993533D01*
X104524938Y-86105475D01*
X104376904Y-86147830D01*
X104176767Y-86069154D01*
X104141514Y-86046373D01*
X104032283Y-85875407D01*
X104029762Y-85661098D01*
X104138901Y-85480378D01*
X104259480Y-85426687D01*
X104471924Y-85427875D01*
G37*
G36*
X102646862Y-85479799D02*
G01*
X102777915Y-85617665D01*
X102779906Y-85762962D01*
X102700636Y-85957062D01*
X102588706Y-86096445D01*
X102439791Y-86148393D01*
X102229434Y-86069154D01*
X102194180Y-86046373D01*
X102084949Y-85875407D01*
X102082429Y-85661098D01*
X102191567Y-85480378D01*
X102235944Y-85451458D01*
X102438717Y-85417961D01*
X102646862Y-85479799D01*
G37*
G36*
X100699528Y-85479799D02*
G01*
X100830582Y-85617665D01*
X100832572Y-85762962D01*
X100753302Y-85957062D01*
X100641373Y-86096445D01*
X100492458Y-86148393D01*
X100282101Y-86069154D01*
X100246847Y-86046373D01*
X100137616Y-85875407D01*
X100135096Y-85661098D01*
X100244234Y-85480378D01*
X100288611Y-85451458D01*
X100491384Y-85417961D01*
X100699528Y-85479799D01*
G37*
G36*
X98670707Y-85463087D02*
G01*
X98815931Y-85610393D01*
X98850669Y-85666605D01*
X98884021Y-85807560D01*
X98800079Y-85970226D01*
X98690754Y-86099005D01*
X98542896Y-86148360D01*
X98334767Y-86069154D01*
X98217131Y-85956780D01*
X98173954Y-85767628D01*
X98229082Y-85576340D01*
X98363697Y-85438320D01*
X98558984Y-85408974D01*
X98670707Y-85463087D01*
G37*
G36*
X96749589Y-85480521D02*
G01*
X96862317Y-85640684D01*
X96893314Y-85840156D01*
X96812466Y-86034459D01*
X96741494Y-86095736D01*
X96562333Y-86156799D01*
X96457750Y-86138817D01*
X96305137Y-86014933D01*
X96239181Y-85820699D01*
X96271614Y-85612374D01*
X96414167Y-85446212D01*
X96585243Y-85404140D01*
X96749589Y-85480521D01*
G37*
G36*
X92904733Y-85496399D02*
G01*
X92912022Y-85503970D01*
X92998116Y-85695711D01*
X92977920Y-85910695D01*
X92858167Y-86066489D01*
X92753985Y-86115256D01*
X92541808Y-86110933D01*
X92361403Y-85941206D01*
X92326664Y-85884994D01*
X92293313Y-85744039D01*
X92377254Y-85581372D01*
X92503082Y-85456087D01*
X92709300Y-85400256D01*
X92904733Y-85496399D01*
G37*
G36*
X90933100Y-85480378D02*
G01*
X90961126Y-85507067D01*
X91048893Y-85698222D01*
X91031124Y-85910706D01*
X90910833Y-86065351D01*
X90815391Y-86111901D01*
X90658785Y-86154225D01*
X90565659Y-86118514D01*
X90438001Y-85974258D01*
X90351363Y-85783805D01*
X90346752Y-85617665D01*
X90370758Y-85572733D01*
X90531573Y-85454106D01*
X90746507Y-85416886D01*
X90933100Y-85480378D01*
G37*
G36*
X88985766Y-85480378D02*
G01*
X89013793Y-85507067D01*
X89101559Y-85698222D01*
X89083791Y-85910706D01*
X88963500Y-86065351D01*
X88838931Y-86126578D01*
X88657838Y-86132936D01*
X88482158Y-85993533D01*
X88450710Y-85954739D01*
X88379617Y-85741153D01*
X88452361Y-85547625D01*
X88652743Y-85427875D01*
X88806603Y-85417451D01*
X88985766Y-85480378D01*
G37*
G36*
X87062733Y-85496399D02*
G01*
X87070966Y-85504993D01*
X87156271Y-85696691D01*
X87135762Y-85910880D01*
X87016167Y-86065351D01*
X86885102Y-86128938D01*
X86706356Y-86130708D01*
X86529022Y-85987122D01*
X86468043Y-85899403D01*
X86436978Y-85701834D01*
X86518555Y-85528140D01*
X86675134Y-85412930D01*
X86869074Y-85390814D01*
X87062733Y-85496399D01*
G37*
G36*
X85115400Y-85496399D02*
G01*
X85181882Y-85591194D01*
X85203832Y-85810818D01*
X85083953Y-86023752D01*
X84957748Y-86121106D01*
X84775601Y-86135595D01*
X84581689Y-85987122D01*
X84520710Y-85899403D01*
X84489645Y-85701834D01*
X84571222Y-85528140D01*
X84727801Y-85412930D01*
X84921740Y-85390814D01*
X85115400Y-85496399D01*
G37*
G36*
X83168067Y-85496399D02*
G01*
X83234548Y-85591194D01*
X83256499Y-85810818D01*
X83136619Y-86023752D01*
X83010414Y-86121106D01*
X82828267Y-86135595D01*
X82634356Y-85987122D01*
X82573377Y-85899403D01*
X82542311Y-85701834D01*
X82623888Y-85528140D01*
X82780467Y-85412930D01*
X82974407Y-85390814D01*
X83168067Y-85496399D01*
G37*
G36*
X81151462Y-85447884D02*
G01*
X81290713Y-85603227D01*
X81309873Y-85811803D01*
X81189286Y-86023752D01*
X81090082Y-86101284D01*
X80941333Y-86156799D01*
X80849280Y-86131705D01*
X80693381Y-86023752D01*
X80578606Y-85834964D01*
X80583895Y-85623669D01*
X80711357Y-85460327D01*
X80941333Y-85394799D01*
X81151462Y-85447884D01*
G37*
G36*
X109342504Y-83460643D02*
G01*
X109509396Y-83576207D01*
X109595110Y-83763233D01*
X109582103Y-83963307D01*
X109452833Y-84118017D01*
X109359943Y-84166307D01*
X109241167Y-84206891D01*
X109165490Y-84174484D01*
X109024980Y-84055096D01*
X108895713Y-83906587D01*
X108839000Y-83792180D01*
X108839656Y-83780455D01*
X108919110Y-83635817D01*
X109080517Y-83504642D01*
X109251448Y-83447466D01*
X109342504Y-83460643D01*
G37*
G36*
X107527766Y-83533045D02*
G01*
X107555793Y-83559734D01*
X107643559Y-83750888D01*
X107625791Y-83963373D01*
X107505500Y-84118017D01*
X107410058Y-84164568D01*
X107253452Y-84206891D01*
X107160326Y-84171181D01*
X107032667Y-84026925D01*
X106946030Y-83836472D01*
X106941418Y-83670332D01*
X106965425Y-83625400D01*
X107126240Y-83506773D01*
X107341174Y-83469552D01*
X107527766Y-83533045D01*
G37*
G36*
X105604734Y-83549066D02*
G01*
X105612966Y-83557660D01*
X105698271Y-83749358D01*
X105677762Y-83963547D01*
X105558167Y-84118017D01*
X105427102Y-84181605D01*
X105248356Y-84183374D01*
X105071022Y-84039789D01*
X105010043Y-83952070D01*
X104978978Y-83754501D01*
X105060555Y-83580807D01*
X105217134Y-83465597D01*
X105411074Y-83443480D01*
X105604734Y-83549066D01*
G37*
G36*
X103657400Y-83549066D02*
G01*
X103665632Y-83557660D01*
X103750938Y-83749358D01*
X103730429Y-83963547D01*
X103610833Y-84118017D01*
X103479769Y-84181605D01*
X103301023Y-84183374D01*
X103123689Y-84039789D01*
X103062710Y-83952070D01*
X103031645Y-83754501D01*
X103113222Y-83580807D01*
X103269801Y-83465597D01*
X103463740Y-83443480D01*
X103657400Y-83549066D01*
G37*
G36*
X101710067Y-83549066D02*
G01*
X101776548Y-83643860D01*
X101798499Y-83863485D01*
X101678619Y-84076418D01*
X101552414Y-84173772D01*
X101370267Y-84188261D01*
X101176356Y-84039789D01*
X101115377Y-83952070D01*
X101084311Y-83754501D01*
X101165888Y-83580807D01*
X101322467Y-83465597D01*
X101516407Y-83443480D01*
X101710067Y-83549066D01*
G37*
G36*
X99762733Y-83549066D02*
G01*
X99829215Y-83643860D01*
X99851165Y-83863485D01*
X99731286Y-84076418D01*
X99605081Y-84173772D01*
X99422934Y-84188261D01*
X99229022Y-84039789D01*
X99168043Y-83952070D01*
X99136978Y-83754501D01*
X99218555Y-83580807D01*
X99375134Y-83465597D01*
X99569074Y-83443480D01*
X99762733Y-83549066D01*
G37*
G36*
X97746129Y-83500551D02*
G01*
X97885379Y-83655894D01*
X97904540Y-83864470D01*
X97783953Y-84076418D01*
X97673336Y-84166907D01*
X97504040Y-84194298D01*
X97309834Y-84069344D01*
X97179432Y-83875834D01*
X97178996Y-83669979D01*
X97303694Y-83511126D01*
X97536000Y-83447466D01*
X97746129Y-83500551D01*
G37*
G36*
X95780289Y-83485887D02*
G01*
X95929102Y-83626617D01*
X95951180Y-83830465D01*
X95829545Y-84054632D01*
X95704440Y-84167441D01*
X95548287Y-84192992D01*
X95362500Y-84069344D01*
X95232098Y-83875834D01*
X95231662Y-83669979D01*
X95356361Y-83511126D01*
X95588667Y-83447466D01*
X95780289Y-83485887D01*
G37*
G36*
X93827076Y-83508136D02*
G01*
X93954468Y-83654025D01*
X93989871Y-83842778D01*
X93895645Y-84039789D01*
X93765507Y-84155838D01*
X93582335Y-84196969D01*
X93393381Y-84076418D01*
X93315079Y-83972990D01*
X93266685Y-83749170D01*
X93361933Y-83549066D01*
X93446889Y-83483393D01*
X93645336Y-83439723D01*
X93827076Y-83508136D01*
G37*
G36*
X91879742Y-83508136D02*
G01*
X92007134Y-83654025D01*
X92042538Y-83842778D01*
X91948311Y-84039789D01*
X91818174Y-84155838D01*
X91635002Y-84196969D01*
X91446048Y-84076418D01*
X91367746Y-83972990D01*
X91319351Y-83749170D01*
X91414600Y-83549066D01*
X91499556Y-83483393D01*
X91698003Y-83439723D01*
X91879742Y-83508136D01*
G37*
G36*
X89932409Y-83508136D02*
G01*
X90059801Y-83654025D01*
X90095204Y-83842778D01*
X90000978Y-84039789D01*
X89877982Y-84157253D01*
X89729258Y-84200355D01*
X89529434Y-84121820D01*
X89516717Y-84114516D01*
X89393760Y-83954712D01*
X89374395Y-83739685D01*
X89467267Y-83549066D01*
X89552223Y-83483393D01*
X89750669Y-83439723D01*
X89932409Y-83508136D01*
G37*
G36*
X87985076Y-83508136D02*
G01*
X88112468Y-83654025D01*
X88147871Y-83842778D01*
X88053645Y-84039789D01*
X87930649Y-84157253D01*
X87781925Y-84200355D01*
X87582101Y-84121820D01*
X87569384Y-84114516D01*
X87446427Y-83954712D01*
X87427062Y-83739685D01*
X87519933Y-83549066D01*
X87604889Y-83483393D01*
X87803336Y-83439723D01*
X87985076Y-83508136D01*
G37*
G36*
X86052195Y-83532466D02*
G01*
X86183249Y-83670332D01*
X86185239Y-83815628D01*
X86105969Y-84009729D01*
X85994040Y-84149112D01*
X85845124Y-84201060D01*
X85634767Y-84121820D01*
X85599514Y-84099040D01*
X85490283Y-83928074D01*
X85487762Y-83713764D01*
X85596901Y-83533045D01*
X85641277Y-83504125D01*
X85844051Y-83470628D01*
X86052195Y-83532466D01*
G37*
G36*
X84104862Y-83532466D02*
G01*
X84235915Y-83670332D01*
X84237906Y-83815628D01*
X84158636Y-84009729D01*
X84046706Y-84149112D01*
X83897791Y-84201060D01*
X83687434Y-84121820D01*
X83652180Y-84099040D01*
X83542949Y-83928074D01*
X83540429Y-83713764D01*
X83649567Y-83533045D01*
X83693944Y-83504125D01*
X83896717Y-83470628D01*
X84104862Y-83532466D01*
G37*
G36*
X82083192Y-83522210D02*
G01*
X82228590Y-83674093D01*
X82287244Y-83774432D01*
X82291229Y-83892813D01*
X82175206Y-84033926D01*
X82152501Y-84056564D01*
X82011908Y-84178459D01*
X81900396Y-84194968D01*
X81740101Y-84121820D01*
X81622464Y-84009446D01*
X81579287Y-83820295D01*
X81634415Y-83629006D01*
X81769031Y-83490987D01*
X81964317Y-83461641D01*
X82083192Y-83522210D01*
G37*
G36*
X80115833Y-83498879D02*
G01*
X80156983Y-83529173D01*
X80274576Y-83714076D01*
X80281533Y-83928053D01*
X80171192Y-84098889D01*
X80070361Y-84164984D01*
X79967667Y-84209466D01*
X79906216Y-84187391D01*
X79764142Y-84098889D01*
X79720455Y-84060697D01*
X79639485Y-83887007D01*
X79665631Y-83697759D01*
X79771799Y-83539173D01*
X79930898Y-83457473D01*
X80115833Y-83498879D01*
G37*
G36*
X108474409Y-81560803D02*
G01*
X108601801Y-81706691D01*
X108637204Y-81895445D01*
X108542978Y-82092455D01*
X108412840Y-82208504D01*
X108229668Y-82249635D01*
X108040714Y-82129085D01*
X107962412Y-82025656D01*
X107914018Y-81801837D01*
X108009267Y-81601733D01*
X108094223Y-81536060D01*
X108292669Y-81492390D01*
X108474409Y-81560803D01*
G37*
G36*
X106509672Y-81552646D02*
G01*
X106657604Y-81721745D01*
X106701990Y-81834300D01*
X106693994Y-81968303D01*
X106561742Y-82102745D01*
X106405173Y-82213638D01*
X106295668Y-82262133D01*
X106279810Y-82260784D01*
X106141777Y-82177264D01*
X106015558Y-82015969D01*
X105960333Y-81849685D01*
X105988467Y-81706504D01*
X106120659Y-81555016D01*
X106312542Y-81500399D01*
X106509672Y-81552646D01*
G37*
G36*
X104554671Y-81548065D02*
G01*
X104710271Y-81721745D01*
X104754657Y-81834300D01*
X104746661Y-81968303D01*
X104614409Y-82102745D01*
X104563463Y-82143909D01*
X104426793Y-82239172D01*
X104323960Y-82245092D01*
X104176767Y-82174487D01*
X104164051Y-82167183D01*
X104041093Y-82007379D01*
X104021729Y-81792351D01*
X104114600Y-81601733D01*
X104133990Y-81583668D01*
X104341189Y-81497730D01*
X104554671Y-81548065D01*
G37*
G36*
X102611547Y-81538399D02*
G01*
X102739988Y-81680673D01*
X102777994Y-81876338D01*
X102718256Y-82069867D01*
X102553470Y-82205736D01*
X102511291Y-82222427D01*
X102419934Y-82255448D01*
X102395594Y-82258089D01*
X102254215Y-82195119D01*
X102123282Y-82052801D01*
X102065667Y-81895087D01*
X102083682Y-81758747D01*
X102216568Y-81568383D01*
X102460621Y-81500133D01*
X102611547Y-81538399D01*
G37*
G36*
X100664214Y-81538399D02*
G01*
X100792655Y-81680673D01*
X100830660Y-81876338D01*
X100770923Y-82069867D01*
X100606137Y-82205736D01*
X100563958Y-82222427D01*
X100472601Y-82255448D01*
X100422966Y-82241566D01*
X100282101Y-82174487D01*
X100181091Y-82093245D01*
X100111648Y-81910851D01*
X100155613Y-81716937D01*
X100295366Y-81562900D01*
X100513288Y-81500133D01*
X100664214Y-81538399D01*
G37*
G36*
X98625450Y-81532085D02*
G01*
X98689073Y-81553580D01*
X98845881Y-81694734D01*
X98872714Y-81894028D01*
X98757384Y-82099082D01*
X98756779Y-82099686D01*
X98611900Y-82228744D01*
X98498951Y-82248732D01*
X98334767Y-82174487D01*
X98299514Y-82151707D01*
X98190283Y-81980741D01*
X98187762Y-81766431D01*
X98296901Y-81585712D01*
X98418497Y-81531977D01*
X98625450Y-81532085D01*
G37*
G36*
X96710500Y-81551546D02*
G01*
X96751650Y-81581840D01*
X96869242Y-81766743D01*
X96876199Y-81980720D01*
X96765859Y-82151555D01*
X96665028Y-82217650D01*
X96562333Y-82262133D01*
X96500883Y-82240058D01*
X96358808Y-82151555D01*
X96315122Y-82113363D01*
X96234152Y-81939674D01*
X96260297Y-81750425D01*
X96366466Y-81591840D01*
X96525564Y-81510139D01*
X96710500Y-81551546D01*
G37*
G36*
X94827766Y-81585712D02*
G01*
X94855793Y-81612401D01*
X94943559Y-81803555D01*
X94925791Y-82016040D01*
X94805500Y-82170684D01*
X94657566Y-82242484D01*
X94524688Y-82230907D01*
X94367283Y-82099082D01*
X94321094Y-82045658D01*
X94245687Y-81836983D01*
X94309124Y-81648332D01*
X94499217Y-81532085D01*
X94651798Y-81523102D01*
X94827766Y-81585712D01*
G37*
G36*
X92747837Y-81513310D02*
G01*
X92914729Y-81628874D01*
X93000443Y-81815900D01*
X92987437Y-82015974D01*
X92858167Y-82170684D01*
X92765276Y-82218974D01*
X92646500Y-82259558D01*
X92570823Y-82227150D01*
X92430313Y-82107762D01*
X92301047Y-81959254D01*
X92244333Y-81844847D01*
X92244990Y-81833121D01*
X92324444Y-81688483D01*
X92485850Y-81557309D01*
X92656781Y-81500133D01*
X92747837Y-81513310D01*
G37*
G36*
X90957400Y-81601733D02*
G01*
X90965632Y-81610327D01*
X91050938Y-81802024D01*
X91030429Y-82016214D01*
X90910833Y-82170684D01*
X90789005Y-82238009D01*
X90693723Y-82246925D01*
X90555395Y-82179818D01*
X90449597Y-82104171D01*
X90339587Y-81899676D01*
X90384949Y-81663332D01*
X90392369Y-81650432D01*
X90552074Y-81528015D01*
X90766979Y-81508923D01*
X90957400Y-81601733D01*
G37*
G36*
X89010067Y-81601733D02*
G01*
X89018299Y-81610327D01*
X89103604Y-81802024D01*
X89083095Y-82016214D01*
X88963500Y-82170684D01*
X88841672Y-82238009D01*
X88746390Y-82246925D01*
X88608062Y-82179818D01*
X88502264Y-82104171D01*
X88392254Y-81899676D01*
X88437616Y-81663332D01*
X88445036Y-81650432D01*
X88604741Y-81528015D01*
X88819646Y-81508923D01*
X89010067Y-81601733D01*
G37*
G36*
X86987011Y-81553423D02*
G01*
X87132640Y-81707256D01*
X87154090Y-81914925D01*
X87031286Y-82129085D01*
X87022741Y-82137576D01*
X86882835Y-82242916D01*
X86750217Y-82232468D01*
X86562925Y-82102745D01*
X86469163Y-82019056D01*
X86412296Y-81895264D01*
X86467063Y-81721745D01*
X86565492Y-81578343D01*
X86764585Y-81500133D01*
X86987011Y-81553423D01*
G37*
G36*
X85115400Y-81601733D02*
G01*
X85181882Y-81696527D01*
X85203832Y-81916152D01*
X85083953Y-82129085D01*
X84957748Y-82226439D01*
X84775601Y-82240928D01*
X84581689Y-82092455D01*
X84520710Y-82004737D01*
X84489645Y-81807167D01*
X84571222Y-81633473D01*
X84727801Y-81518264D01*
X84921740Y-81496147D01*
X85115400Y-81601733D01*
G37*
G36*
X83168067Y-81601733D02*
G01*
X83234548Y-81696527D01*
X83256499Y-81916152D01*
X83136619Y-82129085D01*
X83010414Y-82226439D01*
X82828267Y-82240928D01*
X82634356Y-82092455D01*
X82573377Y-82004737D01*
X82542311Y-81807167D01*
X82623888Y-81633473D01*
X82780467Y-81518264D01*
X82974407Y-81496147D01*
X83168067Y-81601733D01*
G37*
G36*
X81132956Y-81538554D02*
G01*
X81281769Y-81679283D01*
X81303847Y-81883132D01*
X81182211Y-82107299D01*
X81057107Y-82220107D01*
X80900953Y-82245659D01*
X80715167Y-82122010D01*
X80584765Y-81928501D01*
X80584329Y-81722646D01*
X80709027Y-81563793D01*
X80941333Y-81500133D01*
X81132956Y-81538554D01*
G37*
G36*
X109499400Y-79654399D02*
G01*
X109507632Y-79662993D01*
X109592938Y-79854691D01*
X109572429Y-80068880D01*
X109452833Y-80223351D01*
X109331005Y-80290676D01*
X109235723Y-80299591D01*
X109097395Y-80232485D01*
X108991597Y-80156838D01*
X108881587Y-79952343D01*
X108926949Y-79715999D01*
X108934369Y-79703099D01*
X109094074Y-79580681D01*
X109308979Y-79561590D01*
X109499400Y-79654399D01*
G37*
G36*
X107552067Y-79654399D02*
G01*
X107560299Y-79662993D01*
X107645604Y-79854691D01*
X107625095Y-80068880D01*
X107505500Y-80223351D01*
X107383672Y-80290676D01*
X107288390Y-80299591D01*
X107150062Y-80232485D01*
X107044264Y-80156838D01*
X106934254Y-79952343D01*
X106979616Y-79715999D01*
X106987036Y-79703099D01*
X107146741Y-79580681D01*
X107361646Y-79561590D01*
X107552067Y-79654399D01*
G37*
G36*
X105604734Y-79654399D02*
G01*
X105612966Y-79662993D01*
X105698271Y-79854691D01*
X105677762Y-80068880D01*
X105558167Y-80223351D01*
X105436339Y-80290676D01*
X105341057Y-80299591D01*
X105202728Y-80232485D01*
X105096930Y-80156838D01*
X104986920Y-79952343D01*
X105032283Y-79715999D01*
X105039703Y-79703099D01*
X105199407Y-79580681D01*
X105414312Y-79561590D01*
X105604734Y-79654399D01*
G37*
G36*
X103581678Y-79606090D02*
G01*
X103727307Y-79759922D01*
X103748757Y-79967591D01*
X103625953Y-80181752D01*
X103617408Y-80190242D01*
X103477502Y-80295583D01*
X103344884Y-80285135D01*
X103157591Y-80155412D01*
X103063829Y-80071722D01*
X103006963Y-79947931D01*
X103061730Y-79774412D01*
X103160159Y-79631009D01*
X103359252Y-79552799D01*
X103581678Y-79606090D01*
G37*
G36*
X101634345Y-79606090D02*
G01*
X101779973Y-79759922D01*
X101801424Y-79967591D01*
X101678619Y-80181752D01*
X101670074Y-80190242D01*
X101530169Y-80295583D01*
X101397551Y-80285135D01*
X101210258Y-80155412D01*
X101116496Y-80071722D01*
X101059629Y-79947931D01*
X101114396Y-79774412D01*
X101212825Y-79631009D01*
X101411918Y-79552799D01*
X101634345Y-79606090D01*
G37*
G36*
X99674956Y-79591221D02*
G01*
X99823769Y-79731950D01*
X99845847Y-79935798D01*
X99724211Y-80159966D01*
X99708744Y-80176968D01*
X99581882Y-80290447D01*
X99466515Y-80291180D01*
X99290506Y-80182998D01*
X99259328Y-80159445D01*
X99124484Y-79968977D01*
X99127061Y-79771074D01*
X99251773Y-79615695D01*
X99483333Y-79552799D01*
X99674956Y-79591221D01*
G37*
G36*
X97568928Y-79554217D02*
G01*
X97789547Y-79632961D01*
X97900541Y-79796802D01*
X97886104Y-79996266D01*
X97730427Y-80181878D01*
X97670169Y-80221748D01*
X97524913Y-80267707D01*
X97370594Y-80197730D01*
X97316772Y-80157101D01*
X97187532Y-79966761D01*
X97188001Y-79769690D01*
X97306020Y-79615249D01*
X97529434Y-79552799D01*
X97568928Y-79554217D01*
G37*
G36*
X95621595Y-79554217D02*
G01*
X95842214Y-79632961D01*
X95953208Y-79796802D01*
X95938770Y-79996266D01*
X95783094Y-80181878D01*
X95722836Y-80221748D01*
X95577580Y-80267707D01*
X95423260Y-80197730D01*
X95369439Y-80157101D01*
X95240199Y-79966761D01*
X95240667Y-79769690D01*
X95358687Y-79615249D01*
X95582100Y-79552799D01*
X95621595Y-79554217D01*
G37*
G36*
X93680150Y-79554212D02*
G01*
X93897468Y-79633284D01*
X94005767Y-79797746D01*
X93989760Y-79997638D01*
X93834161Y-80182998D01*
X93796640Y-80209239D01*
X93650619Y-80296558D01*
X93549940Y-80285563D01*
X93415167Y-80174677D01*
X93284765Y-79981168D01*
X93284329Y-79775313D01*
X93409027Y-79616459D01*
X93641333Y-79552799D01*
X93680150Y-79554212D01*
G37*
G36*
X91863268Y-79606901D02*
G01*
X92010271Y-79774412D01*
X92054657Y-79886967D01*
X92046661Y-80020969D01*
X91914409Y-80155412D01*
X91762993Y-80266974D01*
X91670121Y-80314799D01*
X91628698Y-80304495D01*
X91493343Y-80200308D01*
X91368094Y-80040389D01*
X91313000Y-79895277D01*
X91341554Y-79753813D01*
X91474282Y-79606071D01*
X91666396Y-79553944D01*
X91863268Y-79606901D01*
G37*
G36*
X89915005Y-79605313D02*
G01*
X90062937Y-79774412D01*
X90107323Y-79886967D01*
X90099327Y-80020969D01*
X89967076Y-80155412D01*
X89810506Y-80266305D01*
X89701001Y-80314799D01*
X89685144Y-80313450D01*
X89547110Y-80229931D01*
X89420891Y-80068635D01*
X89365667Y-79902352D01*
X89393800Y-79759171D01*
X89525992Y-79607682D01*
X89717876Y-79553066D01*
X89915005Y-79605313D01*
G37*
G36*
X87964214Y-79591065D02*
G01*
X88092655Y-79733340D01*
X88130660Y-79929005D01*
X88070923Y-80122534D01*
X87906137Y-80258403D01*
X87827043Y-80287420D01*
X87689981Y-80291050D01*
X87551381Y-80181752D01*
X87434864Y-79991011D01*
X87441910Y-79779787D01*
X87574761Y-79617603D01*
X87813288Y-79552799D01*
X87964214Y-79591065D01*
G37*
G36*
X86016880Y-79591065D02*
G01*
X86145321Y-79733340D01*
X86183327Y-79929005D01*
X86123590Y-80122534D01*
X85958804Y-80258403D01*
X85916624Y-80275093D01*
X85825267Y-80308115D01*
X85800928Y-80310756D01*
X85659548Y-80247786D01*
X85528616Y-80105468D01*
X85471000Y-79947754D01*
X85489015Y-79811414D01*
X85621902Y-79621050D01*
X85865955Y-79552799D01*
X86016880Y-79591065D01*
G37*
G36*
X84069547Y-79591065D02*
G01*
X84197988Y-79733340D01*
X84235994Y-79929005D01*
X84176256Y-80122534D01*
X84011470Y-80258403D01*
X83969291Y-80275093D01*
X83877934Y-80308115D01*
X83853594Y-80310756D01*
X83712215Y-80247786D01*
X83581282Y-80105468D01*
X83523667Y-79947754D01*
X83541682Y-79811414D01*
X83674568Y-79621050D01*
X83918621Y-79552799D01*
X84069547Y-79591065D01*
G37*
G36*
X82129239Y-79617932D02*
G01*
X82248622Y-79764525D01*
X82273032Y-79953807D01*
X82167009Y-80147457D01*
X82158687Y-80155770D01*
X82015355Y-80282278D01*
X81902911Y-80301017D01*
X81740101Y-80227154D01*
X81706100Y-80205278D01*
X81596261Y-80034905D01*
X81591942Y-79820856D01*
X81698673Y-79641333D01*
X81747396Y-79606106D01*
X81950344Y-79552352D01*
X82129239Y-79617932D01*
G37*
G36*
X80137000Y-79595133D02*
G01*
X80251813Y-79687713D01*
X80308085Y-79873846D01*
X80277669Y-80076109D01*
X80158167Y-80223351D01*
X80032135Y-80292464D01*
X79936829Y-80297919D01*
X79792767Y-80227154D01*
X79672437Y-80101048D01*
X79624548Y-79903254D01*
X79666716Y-79711615D01*
X79798333Y-79595133D01*
X79911818Y-79575033D01*
X80137000Y-79595133D01*
G37*
G36*
X108321595Y-77606884D02*
G01*
X108542214Y-77685628D01*
X108653208Y-77849469D01*
X108638770Y-78048933D01*
X108483094Y-78234545D01*
X108422836Y-78274414D01*
X108277580Y-78320374D01*
X108123260Y-78250397D01*
X108069439Y-78209767D01*
X107940199Y-78019428D01*
X107940667Y-77822357D01*
X108058687Y-77667915D01*
X108282100Y-77605466D01*
X108321595Y-77606884D01*
G37*
G36*
X106505730Y-77643593D02*
G01*
X106657604Y-77827079D01*
X106702875Y-77942813D01*
X106692757Y-78075379D01*
X106558961Y-78210331D01*
X106456711Y-78286285D01*
X106326942Y-78323785D01*
X106181006Y-78253769D01*
X106122813Y-78209808D01*
X105990787Y-78016556D01*
X105993642Y-77819793D01*
X106118759Y-77666953D01*
X106353516Y-77605466D01*
X106505730Y-77643593D01*
G37*
G36*
X104558880Y-77643732D02*
G01*
X104687321Y-77786006D01*
X104725327Y-77981671D01*
X104665590Y-78175201D01*
X104500804Y-78311069D01*
X104421710Y-78340087D01*
X104284647Y-78343716D01*
X104146048Y-78234418D01*
X104029531Y-78043678D01*
X104036577Y-77832453D01*
X104169428Y-77670269D01*
X104407955Y-77605466D01*
X104558880Y-77643732D01*
G37*
G36*
X102611547Y-77643732D02*
G01*
X102739988Y-77786006D01*
X102777994Y-77981671D01*
X102718256Y-78175201D01*
X102553470Y-78311069D01*
X102511291Y-78327760D01*
X102419934Y-78360782D01*
X102395594Y-78363422D01*
X102254215Y-78300452D01*
X102123282Y-78158135D01*
X102065667Y-78000420D01*
X102083682Y-77864081D01*
X102216568Y-77673716D01*
X102460621Y-77605466D01*
X102611547Y-77643732D01*
G37*
G36*
X100664214Y-77643732D02*
G01*
X100792655Y-77786006D01*
X100830660Y-77981671D01*
X100770923Y-78175201D01*
X100606137Y-78311069D01*
X100563958Y-78327760D01*
X100472601Y-78360782D01*
X100448261Y-78363422D01*
X100306882Y-78300452D01*
X100175949Y-78158135D01*
X100118333Y-78000420D01*
X100136349Y-77864081D01*
X100269235Y-77673716D01*
X100513288Y-77605466D01*
X100664214Y-77643732D01*
G37*
G36*
X98716880Y-77643732D02*
G01*
X98845321Y-77786006D01*
X98883327Y-77981671D01*
X98823590Y-78175201D01*
X98658804Y-78311069D01*
X98616624Y-78327760D01*
X98525267Y-78360782D01*
X98500928Y-78363422D01*
X98359548Y-78300452D01*
X98228616Y-78158135D01*
X98171000Y-78000420D01*
X98189015Y-77864081D01*
X98321902Y-77673716D01*
X98565955Y-77605466D01*
X98716880Y-77643732D01*
G37*
G36*
X96746224Y-77659826D02*
G01*
X96847988Y-77728587D01*
X96887097Y-77897624D01*
X96882011Y-78071018D01*
X96765081Y-78257457D01*
X96665091Y-78322994D01*
X96562333Y-78367466D01*
X96397462Y-78300404D01*
X96271655Y-78123193D01*
X96237570Y-77897624D01*
X96269347Y-77743748D01*
X96359921Y-77664553D01*
X96562333Y-77647799D01*
X96746224Y-77659826D01*
G37*
G36*
X94742189Y-77640281D02*
G01*
X94784087Y-77652182D01*
X94918154Y-77746593D01*
X94953667Y-77941538D01*
X94921633Y-78122459D01*
X94805500Y-78276017D01*
X94657566Y-78347817D01*
X94524688Y-78336241D01*
X94367283Y-78204416D01*
X94276734Y-78079815D01*
X94252032Y-77858584D01*
X94306870Y-77730440D01*
X94472786Y-77621012D01*
X94742189Y-77640281D01*
G37*
G36*
X92904733Y-77707066D02*
G01*
X92912966Y-77715660D01*
X92998271Y-77907358D01*
X92977762Y-78121547D01*
X92858167Y-78276017D01*
X92736339Y-78343343D01*
X92641057Y-78352258D01*
X92502728Y-78285151D01*
X92396930Y-78209504D01*
X92286920Y-78005009D01*
X92332283Y-77768666D01*
X92339703Y-77755766D01*
X92499407Y-77633348D01*
X92714312Y-77614257D01*
X92904733Y-77707066D01*
G37*
G36*
X90957400Y-77707066D02*
G01*
X90965632Y-77715660D01*
X91050938Y-77907358D01*
X91030429Y-78121547D01*
X90910833Y-78276017D01*
X90789005Y-78343343D01*
X90693723Y-78352258D01*
X90555395Y-78285151D01*
X90449597Y-78209504D01*
X90339587Y-78005009D01*
X90384949Y-77768666D01*
X90392369Y-77755766D01*
X90552074Y-77633348D01*
X90766979Y-77614257D01*
X90957400Y-77707066D01*
G37*
G36*
X88934478Y-77657868D02*
G01*
X89079560Y-77811968D01*
X89100984Y-78020265D01*
X88978619Y-78234418D01*
X88873976Y-78330193D01*
X88767670Y-78356670D01*
X88608062Y-78285151D01*
X88508088Y-78211757D01*
X88403416Y-78026174D01*
X88408957Y-77827856D01*
X88516219Y-77669916D01*
X88716712Y-77605466D01*
X88934478Y-77657868D01*
G37*
G36*
X86815338Y-77607342D02*
G01*
X87036139Y-77687291D01*
X87148418Y-77850153D01*
X87135800Y-78047683D01*
X86981910Y-78231638D01*
X86791298Y-78299683D01*
X86577774Y-78247295D01*
X86433365Y-78072210D01*
X86423237Y-78037280D01*
X86452952Y-77842864D01*
X86584703Y-77676185D01*
X86769379Y-77605466D01*
X86815338Y-77607342D01*
G37*
G36*
X84868928Y-77606884D02*
G01*
X85089547Y-77685628D01*
X85200541Y-77849469D01*
X85186104Y-78048933D01*
X85030427Y-78234545D01*
X84970169Y-78274414D01*
X84824913Y-78320374D01*
X84670594Y-78250397D01*
X84616772Y-78209767D01*
X84487532Y-78019428D01*
X84488001Y-77822357D01*
X84606020Y-77667915D01*
X84829434Y-77605466D01*
X84868928Y-77606884D01*
G37*
G36*
X82921595Y-77606884D02*
G01*
X83142214Y-77685628D01*
X83253208Y-77849469D01*
X83238770Y-78048933D01*
X83083094Y-78234545D01*
X83022836Y-78274414D01*
X82877580Y-78320374D01*
X82723260Y-78250397D01*
X82669439Y-78209767D01*
X82540199Y-78019428D01*
X82540667Y-77822357D01*
X82658687Y-77667915D01*
X82882100Y-77605466D01*
X82921595Y-77606884D01*
G37*
G36*
X80974261Y-77606884D02*
G01*
X81194880Y-77685628D01*
X81305875Y-77849469D01*
X81291437Y-78048933D01*
X81135760Y-78234545D01*
X81075502Y-78274414D01*
X80930247Y-78320374D01*
X80775927Y-78250397D01*
X80722105Y-78209767D01*
X80592865Y-78019428D01*
X80593334Y-77822357D01*
X80711354Y-77667915D01*
X80934767Y-77605466D01*
X80974261Y-77606884D01*
G37*
G36*
X107568088Y-75784033D02*
G01*
X107610365Y-75858280D01*
X107628060Y-76059582D01*
X107558325Y-76250866D01*
X107420776Y-76355976D01*
X107379858Y-76363823D01*
X107139417Y-76335649D01*
X106971003Y-76156172D01*
X106964974Y-76144450D01*
X106935057Y-75939796D01*
X107026102Y-75772949D01*
X107192417Y-75672388D01*
X107388310Y-75666589D01*
X107568088Y-75784033D01*
G37*
G36*
X105357426Y-75660035D02*
G01*
X105577457Y-75739983D01*
X105690261Y-75902505D01*
X105679111Y-76099269D01*
X105527280Y-76281944D01*
X105388714Y-76352402D01*
X105186150Y-76336281D01*
X105023669Y-76156172D01*
X105004168Y-76112540D01*
X104998944Y-75900890D01*
X105113132Y-75729022D01*
X105311379Y-75658133D01*
X105357426Y-75660035D01*
G37*
G36*
X103410093Y-75660035D02*
G01*
X103630123Y-75739983D01*
X103742927Y-75902505D01*
X103731778Y-76099269D01*
X103579947Y-76281944D01*
X103441380Y-76352402D01*
X103238817Y-76336281D01*
X103076336Y-76156172D01*
X103056834Y-76112540D01*
X103051611Y-75900890D01*
X103165799Y-75729022D01*
X103364046Y-75658133D01*
X103410093Y-75660035D01*
G37*
G36*
X101463595Y-75659550D02*
G01*
X101684214Y-75738294D01*
X101795208Y-75902136D01*
X101780770Y-76101600D01*
X101625094Y-76287212D01*
X101564836Y-76327081D01*
X101419580Y-76373041D01*
X101265260Y-76303063D01*
X101211439Y-76262434D01*
X101082199Y-76072095D01*
X101082667Y-75875023D01*
X101200687Y-75720582D01*
X101424100Y-75658133D01*
X101463595Y-75659550D01*
G37*
G36*
X99516261Y-75659550D02*
G01*
X99736880Y-75738294D01*
X99847875Y-75902136D01*
X99833437Y-76101600D01*
X99677760Y-76287212D01*
X99617502Y-76327081D01*
X99472247Y-76373041D01*
X99317927Y-76303063D01*
X99264105Y-76262434D01*
X99134865Y-76072095D01*
X99135334Y-75875023D01*
X99253354Y-75720582D01*
X99476767Y-75658133D01*
X99516261Y-75659550D01*
G37*
G36*
X97568928Y-75659550D02*
G01*
X97789547Y-75738294D01*
X97900541Y-75902136D01*
X97886104Y-76101600D01*
X97730427Y-76287212D01*
X97670169Y-76327081D01*
X97524913Y-76373041D01*
X97370594Y-76303063D01*
X97316772Y-76262434D01*
X97187532Y-76072095D01*
X97188001Y-75875023D01*
X97306020Y-75720582D01*
X97529434Y-75658133D01*
X97568928Y-75659550D01*
G37*
G36*
X95621595Y-75659550D02*
G01*
X95842214Y-75738294D01*
X95953208Y-75902136D01*
X95938770Y-76101600D01*
X95783094Y-76287212D01*
X95722836Y-76327081D01*
X95577580Y-76373041D01*
X95423260Y-76303063D01*
X95369439Y-76262434D01*
X95240199Y-76072095D01*
X95240667Y-75875023D01*
X95358687Y-75720582D01*
X95582100Y-75658133D01*
X95621595Y-75659550D01*
G37*
G36*
X93674261Y-75659550D02*
G01*
X93894880Y-75738294D01*
X94005875Y-75902136D01*
X93991437Y-76101600D01*
X93835760Y-76287212D01*
X93775502Y-76327081D01*
X93630247Y-76373041D01*
X93475927Y-76303063D01*
X93422105Y-76262434D01*
X93292865Y-76072095D01*
X93293334Y-75875023D01*
X93411354Y-75720582D01*
X93634767Y-75658133D01*
X93674261Y-75659550D01*
G37*
G36*
X91726928Y-75659550D02*
G01*
X91947547Y-75738294D01*
X92058541Y-75902136D01*
X92044104Y-76101600D01*
X91888427Y-76287212D01*
X91828169Y-76327081D01*
X91682913Y-76373041D01*
X91528594Y-76303063D01*
X91474772Y-76262434D01*
X91345532Y-76072095D01*
X91346001Y-75875023D01*
X91464020Y-75720582D01*
X91687434Y-75658133D01*
X91726928Y-75659550D01*
G37*
G36*
X89911064Y-75696259D02*
G01*
X90062937Y-75879745D01*
X90108208Y-75995480D01*
X90098090Y-76128046D01*
X89964294Y-76262997D01*
X89862044Y-76338951D01*
X89732275Y-76376452D01*
X89586339Y-76306435D01*
X89528146Y-76262475D01*
X89396120Y-76069222D01*
X89398976Y-75872460D01*
X89524092Y-75719620D01*
X89758849Y-75658133D01*
X89911064Y-75696259D01*
G37*
G36*
X87947181Y-75689604D02*
G01*
X88095667Y-75827466D01*
X88134615Y-76005373D01*
X88069068Y-76220784D01*
X87906137Y-76360830D01*
X87876190Y-76368372D01*
X87700591Y-76330849D01*
X87528022Y-76207034D01*
X87432509Y-76046116D01*
X87446111Y-75882011D01*
X87567522Y-75734972D01*
X87752839Y-75664805D01*
X87947181Y-75689604D01*
G37*
G36*
X85942884Y-75675141D02*
G01*
X86105892Y-75780732D01*
X86190880Y-75951491D01*
X86152283Y-76158754D01*
X86083372Y-76257899D01*
X85958804Y-76356640D01*
X85878583Y-76373665D01*
X85675578Y-76327058D01*
X85531162Y-76180395D01*
X85479956Y-75982958D01*
X85556579Y-75784033D01*
X85565079Y-75774113D01*
X85747425Y-75663381D01*
X85942884Y-75675141D01*
G37*
G36*
X109315678Y-75659422D02*
G01*
X109485146Y-75711428D01*
X109566185Y-75869610D01*
X109588621Y-76030807D01*
X109570455Y-76208277D01*
X109455293Y-76311260D01*
X109261853Y-76336509D01*
X109061204Y-76286605D01*
X108923667Y-76166133D01*
X108894351Y-76098428D01*
X108893478Y-75881610D01*
X109025895Y-75720950D01*
X109263699Y-75658133D01*
X109315678Y-75659422D01*
G37*
G36*
X83939447Y-75663876D02*
G01*
X84149444Y-75759485D01*
X84245929Y-75940799D01*
X84201000Y-76166133D01*
X84101451Y-76274343D01*
X83856697Y-76335466D01*
X83640360Y-76289069D01*
X83537466Y-76135966D01*
X83558482Y-75869610D01*
X83570996Y-75825810D01*
X83665617Y-75693183D01*
X83860968Y-75658133D01*
X83939447Y-75663876D01*
G37*
G36*
X82007179Y-75675075D02*
G01*
X82212735Y-75762488D01*
X82302846Y-75939913D01*
X82251020Y-76171077D01*
X82240585Y-76189605D01*
X82110712Y-76304760D01*
X81888208Y-76319244D01*
X81713243Y-76287213D01*
X81634451Y-76198093D01*
X81618667Y-75996799D01*
X81632384Y-75803114D01*
X81706504Y-75709310D01*
X81888208Y-75674354D01*
X82007179Y-75675075D01*
G37*
G36*
X80111558Y-75707308D02*
G01*
X80242357Y-75761541D01*
X80291862Y-75897123D01*
X80298931Y-76036742D01*
X80271278Y-76220031D01*
X80182096Y-76302884D01*
X79947082Y-76319707D01*
X79766016Y-76287018D01*
X79686949Y-76197938D01*
X79671333Y-75996799D01*
X79671370Y-75974244D01*
X79687603Y-75787519D01*
X79769055Y-75713572D01*
X79967667Y-75700466D01*
X80111558Y-75707308D01*
G37*
G36*
X103472256Y-94906209D02*
G01*
X103617436Y-95101336D01*
X103674333Y-95391842D01*
X103674333Y-95732982D01*
X103230626Y-95707390D01*
X102953252Y-95671153D01*
X102781580Y-95576542D01*
X102745541Y-95402990D01*
X102829275Y-95127584D01*
X102889756Y-95012778D01*
X103070144Y-94849961D01*
X103277069Y-94818428D01*
X103472256Y-94906209D01*
G37*
G36*
X85997341Y-94877469D02*
G01*
X86065182Y-94893661D01*
X86109146Y-94961160D01*
X86134288Y-95109463D01*
X86145665Y-95368066D01*
X86148333Y-95766466D01*
X86148333Y-96655466D01*
X85862367Y-96655466D01*
X85849747Y-96655349D01*
X85624985Y-96617736D01*
X85474868Y-96533126D01*
X85456287Y-96508670D01*
X85394825Y-96293232D01*
X85468982Y-96074760D01*
X85661500Y-95910806D01*
X85834287Y-95791683D01*
X85884447Y-95635537D01*
X85767333Y-95470133D01*
X85656400Y-95301424D01*
X85665698Y-95103616D01*
X85786151Y-94943434D01*
X85995934Y-94877466D01*
X85997341Y-94877469D01*
G37*
G36*
X92127297Y-90939372D02*
G01*
X92329000Y-91067466D01*
X92376325Y-91120461D01*
X92439334Y-91236121D01*
X92476391Y-91407238D01*
X92493918Y-91671726D01*
X92498333Y-92067501D01*
X92497158Y-92301760D01*
X92486250Y-92622490D01*
X92458427Y-92833856D01*
X92407106Y-92974609D01*
X92325702Y-93083501D01*
X92087437Y-93238159D01*
X91816911Y-93245945D01*
X91567000Y-93099466D01*
X91515294Y-93040740D01*
X91454474Y-92924233D01*
X91418756Y-92750806D01*
X91401899Y-92483027D01*
X91397667Y-92083466D01*
X91399071Y-91823529D01*
X91410208Y-91508295D01*
X91437750Y-91302160D01*
X91487934Y-91167694D01*
X91567000Y-91067466D01*
X91728996Y-90957019D01*
X91948000Y-90898133D01*
X92127297Y-90939372D01*
G37*
G36*
X97384134Y-90901784D02*
G01*
X97634496Y-90998184D01*
X97783215Y-91227560D01*
X97832333Y-91592628D01*
X97832333Y-92006879D01*
X97303167Y-91981673D01*
X96774000Y-91956466D01*
X96781242Y-91597519D01*
X96786210Y-91508268D01*
X96873252Y-91185049D01*
X97053671Y-90973798D01*
X97309622Y-90898133D01*
X97384134Y-90901784D01*
G37*
G36*
X89261017Y-90906342D02*
G01*
X89495158Y-91024472D01*
X89649003Y-91269869D01*
X89704333Y-91617799D01*
X89704333Y-91998799D01*
X89154000Y-91998799D01*
X88603667Y-91998799D01*
X88603667Y-91696900D01*
X88612813Y-91525398D01*
X88708034Y-91188231D01*
X88898767Y-90974995D01*
X89175167Y-90899429D01*
X89261017Y-90906342D01*
G37*
D15*
%TO.C,P1*%
X115891000Y-72888800D02*
X118551000Y-72888800D01*
X115891000Y-75488799D02*
X115891000Y-72888800D01*
X115891000Y-75488799D02*
X118551000Y-75488799D01*
X115891000Y-76758800D02*
X115891000Y-78088800D01*
X115891000Y-78088800D02*
X117221000Y-78088800D01*
X118551000Y-75488799D02*
X118551000Y-72888800D01*
%TO.C,JP3*%
X81486000Y-50358800D02*
X81486000Y-52358800D01*
X81486000Y-52358800D02*
X85586000Y-52358800D01*
X84836000Y-52558800D02*
X84536000Y-52858800D01*
X84836000Y-52558800D02*
X85136000Y-52858800D01*
X85136000Y-52858800D02*
X84536000Y-52858800D01*
X85586000Y-50358800D02*
X81486000Y-50358800D01*
X85586000Y-52358800D02*
X85586000Y-50358800D01*
%TO.C,JP2*%
X81516000Y-52898800D02*
X81516000Y-54898800D01*
X81516000Y-54898800D02*
X85616000Y-54898800D01*
X81966000Y-52398800D02*
X82566000Y-52398800D01*
X82266000Y-52698800D02*
X81966000Y-52398800D01*
X82266000Y-52698800D02*
X82566000Y-52398800D01*
X85616000Y-52898800D02*
X81516000Y-52898800D01*
X85616000Y-54898800D02*
X85616000Y-52898800D01*
%TD*%
M02*
